<svg width="937" height="623" viewBox="0 0 937 623" fill="none" xmlns="http://www.w3.org/2000/svg">
<path opacity="0.5" d="M252.044 0.767825C312.343 120.854 414.048 143.886 524.705 168.946C535.374 171.363 546.126 173.798 556.933 176.34C618.482 190.822 681.822 208.793 741.712 246.593C801.592 284.387 858.054 342.024 905.8 435.882L935.866 495.777L752.769 587.689L684.642 621.888C615.999 495.679 516.751 474.92 409.512 452.49C393.902 449.225 378.122 445.924 362.243 442.258C299.681 427.813 235.53 407.695 173.924 361.769C112.404 315.908 53.3807 244.278 1.04092 126.767L1.05053 126.763L1.21962 126.678L1.39271 126.591L1.56977 126.502L1.75076 126.411L1.93579 126.318L2.12469 126.223L2.31757 126.126L2.51432 126.028L2.71501 125.927L2.91951 125.824L3.12794 125.72L3.34013 125.613L3.55619 125.505L3.77608 125.394L3.99978 125.282L4.22719 125.168L4.45842 125.052L4.69336 124.934L4.93206 124.814L5.17447 124.692L5.42054 124.569L5.67031 124.443L5.9238 124.316L6.18089 124.187L6.44163 124.056L6.70597 123.924L6.97391 123.789L7.24545 123.653L7.52053 123.515L7.79916 123.375L8.0814 123.233L8.36712 123.09L8.65633 122.945L8.94904 122.798L9.24518 122.649L9.54481 122.499L9.84788 122.346L10.1544 122.193L10.4643 122.037L10.7776 121.88L11.0943 121.721L11.4143 121.56L11.7377 121.398L12.0644 121.234L12.3944 121.068L12.7278 120.901L13.0643 120.732L13.4041 120.561L13.7473 120.389L14.0936 120.215L14.4431 120.04L14.7959 119.863L15.1518 119.684L15.5109 119.504L15.8732 119.322L16.2385 119.138L16.607 118.953L16.9786 118.767L17.3533 118.579L17.731 118.389L18.1118 118.198L18.4957 118.005L18.8825 117.811L19.2724 117.615L19.6652 117.418L20.0611 117.219L20.4598 117.019L20.8616 116.818L21.2662 116.615L21.6738 116.41L22.0842 116.204L22.4975 115.996L22.9137 115.788L23.3327 115.577L23.7546 115.365L24.1793 115.152L24.6067 114.938L25.037 114.722L25.47 114.504L25.9057 114.286L26.3442 114.065L26.7853 113.844L27.2293 113.621L27.6758 113.397L28.1251 113.171L28.577 112.945L29.0315 112.716L29.4886 112.487L29.9484 112.256L30.4107 112.024L30.8756 111.791L31.3431 111.556L31.8131 111.32L32.2855 111.083L32.7606 110.845L33.2381 110.605L33.718 110.364L34.2005 110.122L34.6853 109.878L35.1727 109.634L35.6623 109.388L36.1545 109.141L36.649 108.893L37.1458 108.643L37.645 108.393L38.1465 108.141L38.6503 107.888L39.1564 107.634L39.6648 107.379L40.1754 107.122L40.6884 106.865L41.2035 106.606L41.7208 106.347L42.2404 106.086L42.7621 105.824L43.286 105.561L43.812 105.297L44.3402 105.032L44.8705 104.766L45.4029 104.498L45.9374 104.23L46.474 103.961L47.0126 103.69L47.5532 103.419L48.0959 103.146L48.6405 102.873L49.1872 102.599L49.7358 102.323L50.2864 102.047L50.8389 101.769L51.3934 101.491L51.9498 101.212L52.508 100.932L53.0682 100.65L53.6301 100.368L54.194 100.085L54.7596 99.8013L55.3271 99.5165L55.8964 99.2307L56.4674 98.9441L57.0402 98.6565L57.6148 98.3681L58.1911 98.0788L58.7691 97.7887L59.3488 97.4976L59.9302 97.2058L60.5133 96.9131L61.098 96.6196L61.6843 96.3253L62.2723 96.0301L62.8618 95.7342L63.453 95.4374L64.0457 95.1399L64.6399 94.8416L65.2358 94.5425L65.8331 94.2427L66.4319 93.942L67.0323 93.6407L67.634 93.3386L68.2373 93.0358L68.842 92.7322L69.4481 92.428L70.0557 92.123L70.6646 91.8173L71.2749 91.511L71.8865 91.2039L72.4995 90.8962L73.1138 90.5878L73.7295 90.2788L74.3464 89.9691L74.9646 89.6588L75.5841 89.3478L76.2048 89.0362L76.8268 88.724L77.45 88.4111L78.0743 88.0977L78.6999 87.7837L79.3266 87.4691L79.9544 87.1539L80.5835 86.8382L81.2136 86.5219L81.8448 86.205L82.4771 85.8876L83.1105 85.5696L83.7449 85.2512L84.3804 84.9322L85.0169 84.6126L85.6545 84.2926L86.2929 83.9721L86.9324 83.6511L87.5728 83.3296L88.2142 83.0077L88.8564 82.6853L89.4997 82.3624L90.1437 82.0391L90.7887 81.7153L91.4345 81.3911L92.0812 81.0665L92.7287 80.7415L93.377 80.416L94.0261 80.0902L94.676 79.7639L95.3267 79.4373L95.978 79.1104L96.6301 78.783L97.283 78.4553L97.9366 78.1272L98.5908 77.7988L99.2457 77.47L99.9012 77.141L100.557 76.8116L101.214 76.4819L101.872 76.1519L102.53 75.8216L103.188 75.491L103.847 75.1601L104.507 74.829L105.167 74.4976L105.828 74.166L106.489 73.8341L107.151 73.5019L107.813 73.1696L108.475 72.837L109.138 72.5042L109.801 72.1712L110.465 71.838L111.129 71.5046L111.794 71.171L112.459 70.8373L113.124 70.5034L113.789 70.1693L114.455 69.8351L115.121 69.5008L115.787 69.1663L116.454 68.8317L117.121 68.497L117.788 68.1621L118.455 67.8272L119.123 67.4922L119.79 67.1571L120.458 66.8219L121.126 66.4866L121.794 66.1513L122.462 65.816L123.13 65.4805L123.798 65.1451L124.466 64.8096L125.135 64.4741L125.803 64.1387L126.471 63.8031L127.14 63.4677L127.808 63.1322L128.476 62.7967L129.145 62.4613L129.813 62.1259L130.481 61.7905L131.149 61.4552L131.816 61.12L132.484 60.7848L133.152 60.4497L133.819 60.1147L134.486 59.7798L135.153 59.445L135.82 59.1103L136.486 58.7758L137.153 58.4413L137.819 58.107L138.484 57.7728L139.15 57.4388L139.815 57.105L140.48 56.7712L141.144 56.4377L141.808 56.1044L142.472 55.7712L143.135 55.4383L143.798 55.1056L144.46 54.773L145.122 54.4408L145.784 54.1087L146.445 53.7769L147.105 53.4453L147.765 53.114L148.425 52.7829L149.084 52.4521L149.742 52.1216L150.4 51.7914L151.057 51.4615L151.714 51.1319L152.37 50.8026L153.025 50.4736L153.68 50.1449L154.334 49.8166L154.987 49.4886L155.64 49.161L156.292 48.8338L156.943 48.5069L157.593 48.1804L158.243 47.8542L158.892 47.5285L159.54 47.2032L160.187 46.8783L160.834 46.5538L161.479 46.2297L162.124 45.906L162.768 45.5829L163.411 45.2601L164.053 44.9378L164.694 44.616L165.334 44.2946L165.973 43.9738L166.612 43.6534L167.249 43.3335L167.885 43.0142L168.52 42.6953L169.154 42.377L169.787 42.0592L170.419 41.7419L171.05 41.4252L171.68 41.109L172.309 40.7934L172.936 40.4784L173.563 40.164L174.188 39.8501L174.812 39.5369L175.435 39.2242L176.056 38.9122L176.677 38.6008L177.296 38.29L177.914 37.9798L178.53 37.6703L179.146 37.3614L179.76 37.0532L180.372 36.7457L180.984 36.4389L181.594 36.1327L182.202 35.8272L182.809 35.5224L183.415 35.2184L184.019 34.915L184.622 34.6124L185.223 34.3105L185.823 34.0094L186.422 33.709L187.019 33.4093L187.614 33.1105L188.208 32.8124L188.8 32.515L189.391 32.2185L189.98 31.9228L190.567 31.6279L191.153 31.3338L191.738 31.0405L192.32 30.748L192.901 30.4564L193.48 30.1656L194.058 29.8757L194.634 29.5867L195.208 29.2985L195.78 29.0112L196.351 28.7248L196.919 28.4393L197.486 28.1547L198.052 27.871L198.615 27.5882L199.176 27.3063L199.736 27.0254L200.294 26.7455L200.85 26.4664L201.403 26.1884L201.955 25.9113L202.506 25.6352L203.054 25.36L203.6 25.0859L204.144 24.8128L204.686 24.5406L205.226 24.2695L205.764 23.9994L206.3 23.7304L206.834 23.4624L207.366 23.1954L207.895 22.9295L208.423 22.6647L208.949 22.4009L209.472 22.1382L209.993 21.8766L210.512 21.6161L211.029 21.3567L211.543 21.0984L212.055 20.8413L212.565 20.5853L213.073 20.3304L213.579 20.0766L214.082 19.824L214.583 19.5726L215.081 19.3224L215.577 19.0733L216.071 18.8254L216.563 18.5787L217.052 18.3332L217.538 18.0889L218.023 17.8459L218.504 17.604L218.984 17.3634L219.46 17.1241L219.935 16.886L220.406 16.6492L220.876 16.4136L221.343 16.1793L221.807 15.9463L222.268 15.7145L222.727 15.4841L223.184 15.255L223.638 15.0272L224.089 14.8007L224.537 14.5756L224.983 14.3518L225.426 14.1293L225.867 13.9082L226.304 13.6885L226.739 13.4702L227.172 13.2532L227.601 13.0376L228.028 12.8234L228.452 12.6106L228.873 12.3993L229.291 12.1893L229.706 11.9808L230.119 11.7737L230.528 11.5681L230.935 11.3639L231.339 11.1612L231.74 10.9599L232.138 10.7602L232.533 10.5619L232.925 10.3651L233.314 10.1698L233.7 9.97602L234.083 9.78377L234.463 9.59304L234.84 9.40384L235.214 9.21619L235.584 9.03009L235.952 8.84554L236.316 8.66257L236.678 8.48117L237.036 8.30135L237.391 8.12313L237.743 7.9465L238.092 7.77149L238.437 7.59809L238.779 7.4263L239.118 7.25616L239.454 7.08765L239.786 6.9208L240.115 6.75559L240.441 6.59206L240.764 6.43019L241.083 6.27L241.398 6.11151L241.711 5.95471L242.02 5.79962L242.325 5.64623L242.627 5.49458L242.926 5.34464L243.221 5.19645L243.513 5.05001L243.801 4.90531L244.086 4.76237L244.367 4.62122L244.645 4.48183L244.919 4.34423L245.19 4.20843L245.457 4.07442L245.72 3.94223L245.98 3.81185L246.236 3.6833L246.488 3.55659L246.737 3.43171L246.982 3.30869L247.223 3.18753L247.461 3.06823L247.695 2.95081L247.925 2.83527L248.151 2.72162L248.374 2.60988L248.593 2.50003L248.808 2.3921L249.019 2.28611L249.226 2.18203L249.43 2.07989L249.629 1.97971L249.825 1.88148L250.017 1.78522L250.205 1.69092L250.389 1.59862L250.568 1.50828L250.744 1.41996L250.916 1.33364L251.084 1.24933L251.248 1.16703L251.408 1.08677L251.564 1.00854L251.716 0.932365L251.863 0.858241L252.007 0.786171L252.044 0.767825Z" stroke="url(#paint0_linear_800_10473)" stroke-width="1.1099"/>
<defs>
<linearGradient id="paint0_linear_800_10473" x1="785.273" y1="436.432" x2="43.1063" y2="157.185" gradientUnits="userSpaceOnUse">
<stop stop-color="#339DFF"/>
<stop offset="0.337797" stop-color="#1E203F"/>
<stop offset="0.589216" stop-color="#1E203F"/>
<stop offset="1" stop-color="#339DFF"/>
</linearGradient>
</defs>
</svg>
