<svg width="530" height="497" viewBox="0 0 530 497" fill="none" xmlns="http://www.w3.org/2000/svg">
<path d="M387.496 11.5243L387.504 11.5548L388.469 11.2964L425.928 1.2592L457.009 117.254L468.468 160.018C387.712 184.777 363.887 239.754 338.286 298.829C334.548 307.455 330.771 316.169 326.774 324.889C311.044 359.208 291.888 393.7 258.242 423.667C224.691 453.55 176.659 478.993 103.089 495.191L103.071 495.121L103.038 495L103.005 494.876L102.971 494.75L102.937 494.622L102.902 494.491L102.866 494.358L102.83 494.223L102.793 494.085L102.755 493.945L102.717 493.802L102.678 493.657L102.639 493.51L102.599 493.36L102.558 493.208L102.517 493.054L102.475 492.898L102.432 492.739L102.389 492.578L102.345 492.415L102.301 492.249L102.256 492.081L102.211 491.912L102.164 491.739L102.118 491.565L102.07 491.388L102.023 491.21L101.974 491.029L101.925 490.846L101.875 490.66L101.825 490.473L101.774 490.283L101.723 490.092L101.671 489.898L101.619 489.702L101.565 489.504L101.512 489.304L101.458 489.102L101.403 488.898L101.348 488.691L101.292 488.483L101.236 488.273L101.179 488.06L101.121 487.846L101.063 487.629L101.005 487.411L100.946 487.19L100.886 486.968L100.826 486.744L100.765 486.517L100.704 486.289L100.642 486.059L100.58 485.827L100.517 485.593L100.454 485.357L100.39 485.119L100.326 484.879L100.261 484.637L100.196 484.394L100.13 484.148L100.064 483.901L99.9975 483.652L99.9303 483.401L99.8625 483.148L99.7943 482.894L99.7256 482.638L99.6565 482.379L99.5868 482.12L99.5167 481.858L99.4461 481.594L99.3751 481.329L99.3035 481.062L99.2315 480.794L99.1591 480.523L99.0862 480.251L99.0128 479.977L98.939 479.702L98.8647 479.425L98.79 479.146L98.7148 478.865L98.6392 478.583L98.5631 478.299L98.4867 478.014L98.4097 477.727L98.3324 477.438L98.2546 477.147L98.1764 476.856L98.0977 476.562L98.0187 476.267L97.9392 475.97L97.8593 475.672L97.779 475.372L97.6982 475.071L97.6171 474.768L97.5356 474.464L97.4536 474.158L97.3713 473.851L97.2885 473.542L97.2054 473.232L97.1219 472.92L97.038 472.607L96.9537 472.292L96.869 471.976L96.7839 471.659L96.6984 471.34L96.6126 471.02L96.5264 470.698L96.4398 470.375L96.3529 470.05L96.2655 469.724L96.1779 469.397L96.0898 469.069L96.0014 468.739L95.9127 468.407L95.8236 468.075L95.7341 467.741L95.6443 467.406L95.5541 467.069L95.4636 466.732L95.3728 466.393L95.2816 466.052L95.1901 465.711L95.0983 465.368L95.0061 465.024L94.9136 464.679L94.8208 464.332L94.7277 463.985L94.6342 463.636L94.5404 463.286L94.4463 462.935L94.3519 462.583L94.2572 462.229L94.1622 461.875L94.0669 461.519L93.9713 461.162L93.8754 460.804L93.7791 460.445L93.6826 460.085L93.5858 459.724L93.4888 459.361L93.3914 458.998L93.2937 458.633L93.1958 458.268L93.0976 457.901L92.9991 457.534L92.9004 457.165L92.8014 456.796L92.7021 456.425L92.6025 456.054L92.5027 455.681L92.4026 455.308L92.3023 454.933L92.2017 454.558L92.1009 454.182L91.9998 453.805L91.8985 453.426L91.797 453.047L91.6952 452.667L91.5931 452.287L91.4908 451.905L91.3883 451.522L91.2856 451.139L91.1826 450.755L91.0795 450.37L90.9761 449.984L90.8724 449.597L90.7686 449.209L90.6645 448.821L90.5603 448.432L90.4558 448.042L90.3511 447.651L90.2462 447.26L90.1412 446.868L90.0359 446.475L89.9304 446.081L89.8247 445.687L89.7189 445.292L89.6129 444.896L89.5066 444.5L89.4002 444.103L89.2936 443.705L89.1869 443.306L89.0799 442.907L88.9728 442.508L88.8655 442.107L88.7581 441.706L88.6505 441.305L88.5427 440.902L88.4348 440.5L88.3267 440.096L88.2185 439.692L88.1101 439.288L88.0016 438.883L87.8929 438.477L87.7841 438.071L87.6752 437.665L87.5661 437.257L87.4569 436.85L87.3475 436.442L87.238 436.033L87.1284 435.624L87.0187 435.214L86.9088 434.805L86.7988 434.394L86.6888 433.983L86.5786 433.572L86.4682 433.16L86.3578 432.748L86.2473 432.336L86.1367 431.923L86.0259 431.51L85.9151 431.096L85.8042 430.682L85.6932 430.268L85.5821 429.853L85.4709 429.438L85.3597 429.023L85.2483 428.607L85.1369 428.192L85.0254 427.775L84.9138 427.359L84.8021 426.942L84.6904 426.525L84.5786 426.108L84.4668 425.691L84.3549 425.273L84.2429 424.855L84.1309 424.437L84.0189 424.019L83.9067 423.601L83.7946 423.182L83.6824 422.763L83.5701 422.344L83.4578 421.925L83.3455 421.506L83.2331 421.087L83.1207 420.667L83.0083 420.248L82.8959 419.828L82.7834 419.408L82.6709 418.989L82.5584 418.569L82.4459 418.149L82.3334 417.729L82.2208 417.309L82.1083 416.889L81.9957 416.469L81.8832 416.049L81.7706 415.629L81.6581 415.208L81.5455 414.788L81.433 414.368L81.3205 413.949L81.2079 413.529L81.0955 413.109L80.983 412.689L80.8705 412.269L80.7581 411.85L80.6457 411.43L80.5333 411.011L80.421 410.592L80.3087 410.172L80.1964 409.753L80.0842 409.335L79.972 408.916L79.8599 408.497L79.7478 408.079L79.6357 407.661L79.5237 407.243L79.4118 406.825L79.2999 406.408L79.1881 405.991L79.0764 405.574L78.9647 405.157L78.8531 404.74L78.7416 404.324L78.6301 403.908L78.5187 403.492L78.4074 403.077L78.2962 402.662L78.1851 402.247L78.074 401.833L77.9631 401.419L77.8522 401.005L77.7414 400.591L77.6307 400.178L77.5202 399.766L77.4097 399.353L77.2994 398.942L77.1891 398.53L77.079 398.119L76.9689 397.708L76.859 397.298L76.7492 396.889L76.6396 396.479L76.53 396.07L76.4206 395.662L76.3113 395.254L76.2022 394.847L76.0932 394.44L75.9843 394.034L75.8756 393.628L75.767 393.223L75.6585 392.818L75.5502 392.414L75.4421 392.01L75.3341 391.607L75.2263 391.205L75.1186 390.803L75.0111 390.402L74.9037 390.001L74.7966 389.601L74.6895 389.202L74.5827 388.803L74.476 388.405L74.3695 388.007L74.2632 387.611L74.1571 387.215L74.0512 386.819L73.9454 386.425L73.8399 386.031L73.7345 385.637L73.6293 385.245L73.5244 384.853L73.4196 384.462L73.315 384.072L73.2107 383.682L73.1065 383.294L73.0026 382.906L72.8989 382.519L72.7954 382.133L72.6921 381.747L72.589 381.362L72.4862 380.979L72.3836 380.596L72.2812 380.214L72.1791 379.832L72.0772 379.452L71.9755 379.073L71.8741 378.694L71.7729 378.317L71.672 377.94L71.5713 377.564L71.4708 377.189L71.3707 376.815L71.2707 376.442L71.1711 376.07L71.0717 375.699L70.9725 375.329L70.8737 374.961L70.7751 374.593L70.6767 374.226L70.5787 373.86L70.4809 373.495L70.3834 373.131L70.2862 372.768L70.1893 372.406L70.0927 372.046L69.9963 371.686L69.9003 371.328L69.8045 370.97L69.7091 370.614L69.6139 370.259L69.5191 369.905L69.4245 369.552L69.3303 369.201L69.2364 368.85L69.1428 368.501L69.0495 368.153L68.9565 367.806L68.8639 367.46L68.7716 367.115L68.6796 366.772L68.5879 366.43L68.4966 366.089L68.4056 365.75L68.315 365.411L68.2247 365.074L68.1347 364.739L68.0451 364.404L67.9558 364.071L67.8669 363.739L67.7784 363.409L67.6902 363.08L67.6023 362.752L67.5149 362.425L67.4278 362.1L67.341 361.777L67.2546 361.454L67.1686 361.133L67.083 360.814L66.9978 360.496L66.9129 360.179L66.8284 359.864L66.7443 359.55L66.6606 359.237L66.5773 358.926L66.4944 358.617L66.4119 358.309L66.3298 358.003L66.2481 357.698L66.1667 357.394L66.0858 357.092L66.0053 356.792L65.9253 356.493L65.8456 356.196L65.7664 355.9L65.6875 355.606L65.6091 355.313L65.5311 355.022L65.4536 354.733L65.3765 354.445L65.2998 354.159L65.2235 353.874L65.1477 353.591L65.0724 353.31L64.9975 353.03L64.923 352.752L64.849 352.476L64.7754 352.201L64.7023 351.929L64.6296 351.657L64.5574 351.388L64.4857 351.12L64.4144 350.854L64.3436 350.59L64.2733 350.328L64.2034 350.067L64.1341 349.808L64.0652 349.551L63.9967 349.296L63.9288 349.042L63.8614 348.79L63.7944 348.54L63.7279 348.292L63.662 348.046L63.5965 347.802L63.5315 347.559L63.4671 347.319L63.4031 347.08L63.3396 346.843L63.2767 346.608L63.2143 346.375L63.1523 346.144L63.091 345.915L63.0301 345.688L62.9697 345.463L62.9099 345.239L62.8506 345.018L62.7918 344.799L62.7336 344.581L62.6759 344.366L62.6188 344.153L62.5622 343.942L62.5061 343.732L62.4506 343.525L62.3956 343.32L62.3412 343.117L62.2873 342.916L62.234 342.717L62.1813 342.52L62.1291 342.325L62.0775 342.133L62.0265 341.942L61.976 341.754L61.9261 341.568L61.8768 341.384L61.828 341.202L61.7799 341.022L61.7323 340.845L61.6853 340.669L61.6389 340.496L61.5931 340.325L61.5479 340.156L61.5033 339.99L61.4593 339.826L61.4159 339.664L61.3731 339.504L61.3309 339.347L61.2893 339.191L61.2484 339.038L61.208 338.888L61.1683 338.74L61.1292 338.594L61.0907 338.45L61.0528 338.309L61.0156 338.17L60.979 338.033L60.9431 337.899L60.9077 337.767L60.873 337.638L60.839 337.511L60.8056 337.386L60.7729 337.264L60.7408 337.144L60.7093 337.027L60.6785 336.912L60.6484 336.799L60.6189 336.689L60.5901 336.582L60.5769 336.532C136.788 315.82 162.211 259.71 189.706 199.025C192.393 193.096 195.099 187.124 197.873 181.137C213.522 147.374 231.374 113.074 260.198 83.1285C288.851 53.3603 328.393 27.8501 387.496 11.5243ZM59.9799 336.694L59.9804 336.694L59.9799 336.694Z" stroke="url(#paint0_linear_866_11289)" stroke-width="1.99656"/>
<path d="M376.999 294.778L496.03 262.884L527.924 381.915L408.893 413.809L376.999 294.778Z" stroke="url(#paint1_linear_866_11289)" stroke-width="1.99656"/>
<path d="M1.22264 115.019L120.254 83.1251L152.148 202.156L33.1169 234.05L1.22264 115.019Z" stroke="url(#paint2_linear_866_11289)" stroke-width="1.99656"/>
<defs>
<linearGradient id="paint0_linear_866_11289" x1="102.53" y1="496.961" x2="548.638" y2="333.985" gradientUnits="userSpaceOnUse">
<stop stop-color="#2CA5F6"/>
<stop offset="1" stop-color="#0FC2D4"/>
</linearGradient>
<linearGradient id="paint1_linear_866_11289" x1="408.187" y1="415.032" x2="535.182" y2="369.94" gradientUnits="userSpaceOnUse">
<stop stop-color="#2CA5F6"/>
<stop offset="1" stop-color="#0FC2D4"/>
</linearGradient>
<linearGradient id="paint2_linear_866_11289" x1="32.411" y1="235.273" x2="159.406" y2="190.181" gradientUnits="userSpaceOnUse">
<stop stop-color="#2CA5F6"/>
<stop offset="1" stop-color="#0FC2D4"/>
</linearGradient>
</defs>
</svg>
