<svg width="338" height="342" viewBox="0 0 338 342" fill="none" xmlns="http://www.w3.org/2000/svg">
<mask id="mask0_612_11194" style="mask-type:alpha" maskUnits="userSpaceOnUse" x="127" y="83" width="117" height="188">
<path d="M154.286 270.094L243.279 227.35L230.953 137.81L220.78 108.705L165.292 83.155L127.253 104.163L140.099 196.531L154.286 270.094Z" fill="url(#paint0_linear_612_11194)"/>
</mask>
<g mask="url(#mask0_612_11194)">
</g>
<mask id="mask1_612_11194" style="mask-type:alpha" maskUnits="userSpaceOnUse" x="123" y="81" width="125" height="175">
<path d="M123.877 95.478C167.382 89.499 222.882 81.8804 225.025 81.4107L247.302 241.594L146.155 255.661L123.877 95.478Z" fill="url(#paint1_linear_612_11194)"/>
</mask>
<g mask="url(#mask1_612_11194)">
<path d="M220.561 150.652C223.073 168.718 209.608 186.074 195.643 188.017C181.677 189.959 162.333 185.195 159.637 165.811C158.301 156.205 147.343 145.84 152.711 133.461C158.175 120.859 177.589 120.851 184.634 119.872C198.6 117.929 218.048 132.585 220.561 150.652Z" fill="#3757FF"/>
<g filter="url(#filter0_f_612_11194)">
<path d="M219.335 150.601C222.029 169.977 210.568 185.706 198.564 187.376C186.559 189.045 169.789 183.926 167.094 164.55C165.759 154.948 155.801 144.449 160.192 132.21C164.662 119.751 181.402 120.115 187.458 119.273C199.462 117.603 216.64 131.225 219.335 150.601Z" fill="#3757FF"/>
</g>
<g filter="url(#filter1_f_612_11194)">
<path d="M219.415 151.188C222.436 172.905 208.089 190.743 193.289 192.801C178.489 194.859 157.927 189.367 154.907 167.65C153.41 156.889 139.936 145.443 145.528 131.632C151.22 117.573 173.069 117.552 180.535 116.513C195.335 114.455 216.395 129.471 219.415 151.188Z" fill="#3757FF"/>
</g>
<g filter="url(#filter2_f_612_11194)">
<path d="M218.013 153.938C218.111 181.255 202.005 206.134 184.683 208.543C167.362 210.952 146.744 199.948 143.122 173.903C141.327 160.996 120.141 147.031 126.634 130.497C133.244 113.666 157.361 113.93 166.099 112.715C183.421 110.306 217.898 122.293 218.013 153.938Z" fill="#3757FF"/>
</g>
<g filter="url(#filter3_f_612_11194)">
<path d="M212.257 163.946C216.158 191.99 197.198 219.236 180.263 221.591C163.328 223.947 142.982 211.84 139.082 183.796C137.149 169.899 128.339 153.925 134.476 136.241C140.724 118.24 164.353 118.849 172.896 117.661C189.831 115.306 208.357 135.903 212.257 163.946Z" fill="#3757FF"/>
</g>
<g filter="url(#filter4_f_612_11194)">
<path d="M206.74 153.621C210.267 178.978 190.477 203.983 173.156 206.392C155.835 208.801 135.267 198.156 131.74 172.798C129.992 160.232 123.263 145.615 129.812 129.486C136.479 113.067 160.584 113.237 169.322 112.022C186.643 109.613 203.214 128.263 206.74 153.621Z" fill="#3757FF"/>
</g>
</g>
<mask id="mask2_612_11194" style="mask-type:alpha" maskUnits="userSpaceOnUse" x="93" y="78" width="103" height="156">
<path d="M186.752 78.7572L93.6819 107.199L96.3087 181.335L103.278 206.303L155.629 233.083L195.706 218.653L192.91 140.953L186.752 78.7572Z" fill="url(#paint2_linear_612_11194)"/>
</mask>
<g mask="url(#mask2_612_11194)">
<mask id="mask3_612_11194" style="mask-type:alpha" maskUnits="userSpaceOnUse" x="95" y="86" width="100" height="144">
<path d="M194.107 225.69C150.219 227.21 102.316 228.851 100.135 229.071L95.7293 90.3028L189.701 86.9214L194.107 225.69Z" fill="url(#paint3_linear_612_11194)"/>
</mask>
<g mask="url(#mask3_612_11194)">
<path d="M107.982 172.673C107.435 157.476 122.693 144.132 136.783 143.625C150.874 143.118 169.587 148.605 170.174 164.911C170.465 172.991 180.237 182.463 173.566 192.316C166.774 202.346 147.476 200.815 140.368 201.071C126.277 201.578 108.529 187.871 107.982 172.673Z" fill="#6DFFDC"/>
<g filter="url(#filter5_f_612_11194)">
<path d="M109.196 172.811C108.609 156.512 120.392 144.408 131.332 144.014C142.271 143.62 156.849 149.253 157.436 165.553C157.726 173.63 165.677 183.163 160.574 192.956C155.38 202.924 140.38 201.24 134.861 201.438C123.921 201.832 109.782 189.11 109.196 172.811Z" fill="#6DFFDC"/>
</g>
<g filter="url(#filter6_f_612_11194)">
<path d="M109.177 172.318C108.52 154.05 123.117 140.434 136.625 139.947C150.133 139.461 168.108 145.716 168.765 163.984C169.091 173.037 180.126 183.646 173.786 194.644C167.333 205.839 147.677 204.053 140.863 204.299C127.355 204.785 109.834 190.587 109.177 172.318Z" fill="#6DFFDC"/>
</g>
<g filter="url(#filter7_f_612_11194)">
<path d="M113.513 170.044C116.364 147.357 135.06 127.977 152.536 127.349C170.013 126.72 189.318 137.488 190.107 159.397C190.497 170.254 210.047 183.526 201.808 196.738C193.422 210.188 161.455 210.035 152.639 210.352C135.162 210.981 110.21 196.325 113.513 170.044Z" fill="#6DFFDC"/>
</g>
<g filter="url(#filter8_f_612_11194)">
<path d="M117.731 163.977C116.882 140.386 138.608 117.582 155.695 116.968C172.782 116.353 191.698 128.014 192.547 151.605C192.967 163.295 199.999 177.255 191.99 191.45C183.837 205.9 148.655 214.069 140.035 214.379C122.948 214.994 118.58 187.567 117.731 163.977Z" fill="#6DFFDC"/>
</g>
<g filter="url(#filter9_f_612_11194)">
<path d="M124.16 152.865C123.283 128.486 145.558 106.67 163.035 106.041C180.512 105.413 199.863 117.471 200.741 141.849C201.175 153.93 178.181 172.819 169.994 187.485C161.661 202.415 137.705 199.95 128.889 200.268C111.412 200.896 125.037 177.244 124.16 152.865Z" fill="#6DFFDC"/>
</g>
<g filter="url(#filter10_f_612_11194)">
<path d="M122.04 171.301C121.272 149.97 143.642 130.777 161.119 130.148C178.596 129.519 197.89 139.985 198.658 161.317C199.038 171.887 204.149 184.555 195.898 197.427C187.498 210.53 163.557 208.481 154.741 208.798C137.264 209.427 122.807 192.632 122.04 171.301Z" fill="#6DFFDC"/>
</g>
</g>
</g>
<mask id="mask4_612_11194" style="mask-type:alpha" maskUnits="userSpaceOnUse" x="81" y="112" width="150" height="111">
<path d="M230.917 136.188L208.88 222.564L123.015 217.404L100.516 208.369L81.1251 147.953L98.6441 112.171L170.595 122.726L230.917 136.188Z" fill="url(#paint4_linear_612_11194)"/>
</mask>
<g mask="url(#mask4_612_11194)">
<mask id="mask5_612_11194" style="mask-type:alpha" maskUnits="userSpaceOnUse" x="82" y="112" width="150" height="114">
<path d="M91.9395 112.938C86.0325 153.585 83.2373 205.506 82.8092 207.511L211.369 225.816L231.887 135.873L91.9395 112.938Z" fill="url(#paint5_linear_612_11194)"/>
</mask>
<g mask="url(#mask5_612_11194)">
<path d="M132.41 198.435C146.483 200.5 160.45 187.681 162.364 174.633C164.279 161.585 161.094 143.626 145.994 141.411C138.512 140.313 130.706 130.258 120.863 135.451C110.844 140.738 110.291 158.836 109.325 165.418C107.411 178.466 118.336 196.37 132.41 198.435Z" fill="#6DFFDC"/>
<g filter="url(#filter11_f_612_11194)">
<path d="M132.405 197.292C147.498 199.506 159.958 189.792 161.444 179.661C162.93 169.531 159.186 155.402 144.092 153.188C136.613 152.09 128.564 143.723 118.937 147.464C109.138 151.272 109.168 165.39 108.419 170.5C106.933 180.631 117.312 195.078 132.405 197.292Z" fill="#6DFFDC"/>
</g>
<g filter="url(#filter12_f_612_11194)">
<path d="M132.862 197.359C149.778 199.841 163.932 187.665 165.767 175.156C167.602 162.648 163.628 145.296 146.711 142.814C138.328 141.584 129.595 130.239 118.721 135.007C107.653 139.861 107.3 158.317 106.374 164.627C104.539 177.136 115.945 194.878 132.862 197.359Z" fill="#6DFFDC"/>
</g>
<g filter="url(#filter13_f_612_11194)">
<path d="M135.418 193.561C156.801 193.233 176.732 177.837 179.106 161.653C181.48 145.47 173.446 126.419 153.158 123.443C143.105 121.968 132.768 102.434 119.641 108.741C106.278 115.161 103.147 144.895 101.949 153.059C99.5751 169.242 110.646 193.941 135.418 193.561Z" fill="#6DFFDC"/>
</g>
<g filter="url(#filter14_f_612_11194)">
<path d="M141.491 190.262C163.335 193.466 186.761 175.603 189.082 159.78C191.403 143.958 182.498 125.178 160.653 121.973C149.828 120.385 137.57 112.418 123.553 118.411C109.284 124.511 98.0868 156.383 96.9158 164.365C94.5946 180.188 119.646 187.057 141.491 190.262Z" fill="#6DFFDC"/>
</g>
<g filter="url(#filter15_f_612_11194)">
<path d="M152.481 185.422C175.055 188.733 197.618 170.258 199.992 154.075C202.366 137.891 193.138 118.665 170.563 115.354C159.376 113.713 139.461 133.156 124.988 139.266C110.254 145.485 110.093 168.008 108.895 176.172C106.521 192.356 129.906 182.11 152.481 185.422Z" fill="#6DFFDC"/>
</g>
</g>
</g>
<defs>
<filter id="filter0_f_612_11194" x="158.506" y="118.559" width="61.8002" height="69.6865" filterUnits="userSpaceOnUse" color-interpolation-filters="sRGB">
<feFlood flood-opacity="0" result="BackgroundImageFix"/>
<feBlend mode="normal" in="SourceGraphic" in2="BackgroundImageFix" result="shape"/>
<feGaussianBlur stdDeviation="0.287461" result="effect1_foregroundBlur_612_11194"/>
</filter>
<filter id="filter1_f_612_11194" x="142.165" y="114.312" width="79.669" height="80.9019" filterUnits="userSpaceOnUse" color-interpolation-filters="sRGB">
<feFlood flood-opacity="0" result="BackgroundImageFix"/>
<feBlend mode="normal" in="SourceGraphic" in2="BackgroundImageFix" result="shape"/>
<feGaussianBlur stdDeviation="1.00611" result="effect1_foregroundBlur_612_11194"/>
</filter>
<filter id="filter2_f_612_11194" x="122.527" y="109.541" width="98.3606" height="102.2" filterUnits="userSpaceOnUse" color-interpolation-filters="sRGB">
<feFlood flood-opacity="0" result="BackgroundImageFix"/>
<feBlend mode="normal" in="SourceGraphic" in2="BackgroundImageFix" result="shape"/>
<feGaussianBlur stdDeviation="1.43731" result="effect1_foregroundBlur_612_11194"/>
</filter>
<filter id="filter3_f_612_11194" x="124.574" y="109.716" width="95.9614" height="119.924" filterUnits="userSpaceOnUse" color-interpolation-filters="sRGB">
<feFlood flood-opacity="0" result="BackgroundImageFix"/>
<feBlend mode="normal" in="SourceGraphic" in2="BackgroundImageFix" result="shape"/>
<feGaussianBlur stdDeviation="3.88073" result="effect1_foregroundBlur_612_11194"/>
</filter>
<filter id="filter4_f_612_11194" x="118.094" y="102.901" width="97.9701" height="112.735" filterUnits="userSpaceOnUse" color-interpolation-filters="sRGB">
<feFlood flood-opacity="0" result="BackgroundImageFix"/>
<feBlend mode="normal" in="SourceGraphic" in2="BackgroundImageFix" result="shape"/>
<feGaussianBlur stdDeviation="4.45565" result="effect1_foregroundBlur_612_11194"/>
</filter>
<filter id="filter5_f_612_11194" x="108.6" y="143.42" width="54.2534" height="58.602" filterUnits="userSpaceOnUse" color-interpolation-filters="sRGB">
<feFlood flood-opacity="0" result="BackgroundImageFix"/>
<feBlend mode="normal" in="SourceGraphic" in2="BackgroundImageFix" result="shape"/>
<feGaussianBlur stdDeviation="0.287461" result="effect1_foregroundBlur_612_11194"/>
</filter>
<filter id="filter6_f_612_11194" x="107.143" y="137.909" width="70.6163" height="68.4141" filterUnits="userSpaceOnUse" color-interpolation-filters="sRGB">
<feFlood flood-opacity="0" result="BackgroundImageFix"/>
<feBlend mode="normal" in="SourceGraphic" in2="BackgroundImageFix" result="shape"/>
<feGaussianBlur stdDeviation="1.00611" result="effect1_foregroundBlur_612_11194"/>
</filter>
<filter id="filter7_f_612_11194" x="110.341" y="124.448" width="96.3664" height="88.7985" filterUnits="userSpaceOnUse" color-interpolation-filters="sRGB">
<feFlood flood-opacity="0" result="BackgroundImageFix"/>
<feBlend mode="normal" in="SourceGraphic" in2="BackgroundImageFix" result="shape"/>
<feGaussianBlur stdDeviation="1.43731" result="effect1_foregroundBlur_612_11194"/>
</filter>
<filter id="filter8_f_612_11194" x="109.946" y="109.183" width="93.6186" height="112.968" filterUnits="userSpaceOnUse" color-interpolation-filters="sRGB">
<feFlood flood-opacity="0" result="BackgroundImageFix"/>
<feBlend mode="normal" in="SourceGraphic" in2="BackgroundImageFix" result="shape"/>
<feGaussianBlur stdDeviation="3.88073" result="effect1_foregroundBlur_612_11194"/>
</filter>
<filter id="filter9_f_612_11194" x="100.666" y="86.7582" width="119.341" height="132.782" filterUnits="userSpaceOnUse" color-interpolation-filters="sRGB">
<feFlood flood-opacity="0" result="BackgroundImageFix"/>
<feBlend mode="normal" in="SourceGraphic" in2="BackgroundImageFix" result="shape"/>
<feGaussianBlur stdDeviation="9.62995" result="effect1_foregroundBlur_612_11194"/>
</filter>
<filter id="filter10_f_612_11194" x="113.109" y="121.21" width="96.3714" height="96.5164" filterUnits="userSpaceOnUse" color-interpolation-filters="sRGB">
<feFlood flood-opacity="0" result="BackgroundImageFix"/>
<feBlend mode="normal" in="SourceGraphic" in2="BackgroundImageFix" result="shape"/>
<feGaussianBlur stdDeviation="4.45565" result="effect1_foregroundBlur_612_11194"/>
</filter>
<filter id="filter11_f_612_11194" x="107.166" y="145.397" width="55.6895" height="53.3243" filterUnits="userSpaceOnUse" color-interpolation-filters="sRGB">
<feFlood flood-opacity="0" result="BackgroundImageFix"/>
<feBlend mode="normal" in="SourceGraphic" in2="BackgroundImageFix" result="shape"/>
<feGaussianBlur stdDeviation="0.555439" result="effect1_foregroundBlur_612_11194"/>
</filter>
<filter id="filter12_f_612_11194" x="102.293" y="129.955" width="67.7722" height="71.6165" filterUnits="userSpaceOnUse" color-interpolation-filters="sRGB">
<feFlood flood-opacity="0" result="BackgroundImageFix"/>
<feBlend mode="normal" in="SourceGraphic" in2="BackgroundImageFix" result="shape"/>
<feGaussianBlur stdDeviation="1.94404" result="effect1_foregroundBlur_612_11194"/>
</filter>
<filter id="filter13_f_612_11194" x="96.0804" y="101.936" width="88.9838" height="97.1835" filterUnits="userSpaceOnUse" color-interpolation-filters="sRGB">
<feFlood flood-opacity="0" result="BackgroundImageFix"/>
<feBlend mode="normal" in="SourceGraphic" in2="BackgroundImageFix" result="shape"/>
<feGaussianBlur stdDeviation="2.7772" result="effect1_foregroundBlur_612_11194"/>
</filter>
<filter id="filter14_f_612_11194" x="81.7688" y="101.213" width="122.668" height="104.422" filterUnits="userSpaceOnUse" color-interpolation-filters="sRGB">
<feFlood flood-opacity="0" result="BackgroundImageFix"/>
<feBlend mode="normal" in="SourceGraphic" in2="BackgroundImageFix" result="shape"/>
<feGaussianBlur stdDeviation="7.49843" result="effect1_foregroundBlur_612_11194"/>
</filter>
<filter id="filter15_f_612_11194" x="71.5141" y="78.0414" width="166.055" height="144.984" filterUnits="userSpaceOnUse" color-interpolation-filters="sRGB">
<feFlood flood-opacity="0" result="BackgroundImageFix"/>
<feBlend mode="normal" in="SourceGraphic" in2="BackgroundImageFix" result="shape"/>
<feGaussianBlur stdDeviation="18.6072" result="effect1_foregroundBlur_612_11194"/>
</filter>
<linearGradient id="paint0_linear_612_11194" x1="183.756" y1="155.361" x2="146.02" y2="120.499" gradientUnits="userSpaceOnUse">
<stop stop-color="#C4C4C4"/>
<stop offset="1" stop-color="#C4C4C4" stop-opacity="0"/>
</linearGradient>
<linearGradient id="paint1_linear_612_11194" x1="218.316" y1="150.612" x2="146.99" y2="162.858" gradientUnits="userSpaceOnUse">
<stop stop-color="#C4C4C4"/>
<stop offset="1" stop-color="#C4C4C4" stop-opacity="0"/>
</linearGradient>
<linearGradient id="paint2_linear_612_11194" x1="129.723" y1="147.321" x2="135.607" y2="196.979" gradientUnits="userSpaceOnUse">
<stop stop-color="#C4C4C4"/>
<stop offset="0.943414" stop-color="#C4C4C4" stop-opacity="0"/>
</linearGradient>
<linearGradient id="paint3_linear_612_11194" x1="124.431" y1="172.294" x2="182.27" y2="176.269" gradientUnits="userSpaceOnUse">
<stop stop-color="#C4C4C4"/>
<stop offset="1" stop-color="#C4C4C4" stop-opacity="0"/>
</linearGradient>
<linearGradient id="paint4_linear_612_11194" x1="158.205" y1="180.818" x2="112.641" y2="170.264" gradientUnits="userSpaceOnUse">
<stop stop-color="#C4C4C4"/>
<stop offset="0.943414" stop-color="#C4C4C4" stop-opacity="0"/>
</linearGradient>
<linearGradient id="paint5_linear_612_11194" x1="134.446" y1="183.182" x2="136.673" y2="129.003" gradientUnits="userSpaceOnUse">
<stop stop-color="#C4C4C4"/>
<stop offset="1" stop-color="#C4C4C4" stop-opacity="0"/>
</linearGradient>
</defs>
</svg>
