<svg width="763" height="797" viewBox="0 0 763 797" fill="none" xmlns="http://www.w3.org/2000/svg">
<mask id="mask0_1266_51" style="mask-type:alpha" maskUnits="userSpaceOnUse" x="265" y="166" width="312" height="501">
<path d="M338.104 666.276L576.196 551.918L543.22 312.361L516.004 234.493L367.55 166.137L265.78 222.342L300.149 469.463L338.104 666.276Z" fill="url(#paint0_linear_1266_51)"/>
</mask>
<g mask="url(#mask0_1266_51)">
</g>
<mask id="mask1_1266_51" style="mask-type:alpha" maskUnits="userSpaceOnUse" x="256" y="161" width="331" height="467">
<path d="M256.746 199.105C373.14 183.109 521.624 162.726 527.357 161.47L586.959 590.025L316.348 627.661L256.746 199.105Z" fill="url(#paint1_linear_1266_51)"/>
</mask>
<g mask="url(#mask1_1266_51)">
<path d="M515.419 346.716C522.141 395.052 486.117 441.487 448.753 446.683C411.39 451.88 359.635 439.133 352.423 387.273C348.849 361.574 319.532 333.844 333.892 300.724C348.51 267.008 400.452 266.989 419.3 264.367C456.664 259.171 508.696 298.381 515.419 346.716Z" fill="#3757FF"/>
<g filter="url(#filter0_f_1266_51)">
<path d="M512.137 346.582C519.347 398.42 488.683 440.502 456.566 444.969C424.45 449.436 379.583 435.739 372.373 383.9C368.8 358.212 342.158 330.123 353.907 297.379C365.867 264.046 410.652 265.018 426.853 262.765C458.97 258.298 504.928 294.743 512.137 346.582Z" fill="#3757FF"/>
</g>
<g filter="url(#filter1_f_1266_51)">
<path d="M512.355 348.152C520.435 406.254 482.052 453.977 442.457 459.484C402.861 464.991 347.85 450.297 339.77 392.196C335.765 363.404 299.716 332.783 314.677 295.833C329.906 258.22 388.36 258.161 408.334 255.383C447.929 249.877 504.274 290.051 512.355 348.152Z" fill="#3757FF"/>
</g>
<g filter="url(#filter2_f_1266_51)">
<path d="M508.601 355.51C508.865 428.595 465.773 495.156 419.431 501.601C373.089 508.046 317.928 478.605 308.237 408.924C303.435 374.394 246.754 337.03 264.126 292.795C281.809 247.766 346.334 248.472 369.711 245.221C416.053 238.776 508.295 270.846 508.601 355.51Z" fill="#3757FF"/>
</g>
<g filter="url(#filter3_f_1266_51)">
<path d="M493.203 382.287C503.638 457.315 452.914 530.209 407.606 536.511C362.297 542.812 307.864 510.421 297.429 435.393C292.258 398.214 268.689 355.475 285.108 308.164C301.822 260.003 365.039 261.634 387.895 258.455C433.204 252.154 482.769 307.259 493.203 382.287Z" fill="#3757FF"/>
</g>
<g filter="url(#filter4_f_1266_51)">
<path d="M478.443 354.662C487.878 422.504 434.933 489.403 388.591 495.848C342.249 502.293 287.221 473.812 277.786 405.969C273.11 372.35 255.106 333.244 272.628 290.092C290.465 246.165 354.955 246.62 378.332 243.369C424.674 236.924 469.007 286.819 478.443 354.662Z" fill="#3757FF"/>
</g>
</g>
<mask id="mask2_1266_51" style="mask-type:alpha" maskUnits="userSpaceOnUse" x="175" y="154" width="274" height="414">
<path d="M424.965 154.37L175.965 230.464L182.993 428.808L201.638 495.608L341.698 567.256L448.921 528.65L441.441 320.769L424.965 154.37Z" fill="url(#paint2_linear_1266_51)"/>
</mask>
<g mask="url(#mask2_1266_51)">
<mask id="mask3_1266_51" style="mask-type:alpha" maskUnits="userSpaceOnUse" x="181" y="176" width="264" height="381">
<path d="M444.642 547.473C327.224 551.54 199.064 555.931 193.231 556.52L181.443 185.259L432.855 176.212L444.642 547.473Z" fill="url(#paint3_linear_1266_51)"/>
</mask>
<g mask="url(#mask3_1266_51)">
<path d="M214.224 405.634C212.76 364.974 253.581 329.275 291.279 327.918C328.978 326.562 379.043 341.241 380.613 384.866C381.391 406.484 407.536 431.826 389.687 458.186C371.517 485.02 319.887 480.925 300.87 481.609C263.171 482.965 215.687 446.295 214.224 405.634Z" fill="#6DFFDC"/>
<g filter="url(#filter5_f_1266_51)">
<path d="M217.473 406.003C215.904 362.396 247.428 330.013 276.696 328.959C305.964 327.906 344.965 342.977 346.534 386.584C347.312 408.194 368.582 433.7 354.931 459.899C341.035 486.568 300.903 482.061 286.138 482.593C256.87 483.646 219.043 449.61 217.473 406.003Z" fill="#6DFFDC"/>
</g>
<g filter="url(#filter6_f_1266_51)">
<path d="M217.422 404.684C215.663 355.809 254.716 319.38 290.856 318.079C326.996 316.779 375.086 333.513 376.845 382.388C377.717 406.608 407.24 434.991 390.278 464.414C373.012 494.366 320.425 489.589 302.195 490.245C266.055 491.545 219.181 453.56 217.422 404.684Z" fill="#6DFFDC"/>
</g>
<g filter="url(#filter7_f_1266_51)">
<path d="M229.024 398.598C236.653 337.902 286.67 286.054 333.428 284.371C380.185 282.689 431.834 311.498 433.944 370.114C434.989 399.161 487.293 434.668 465.251 470.016C442.812 505.999 357.289 505.592 333.702 506.441C286.945 508.123 220.187 468.911 229.024 398.598Z" fill="#6DFFDC"/>
</g>
<g filter="url(#filter8_f_1266_51)">
<path d="M240.311 382.367C238.04 319.253 296.165 258.243 341.88 256.598C387.595 254.953 438.203 286.153 440.474 349.267C441.599 380.543 460.412 417.891 438.984 455.868C417.171 494.529 323.045 516.385 299.984 517.215C254.269 518.859 242.582 445.482 240.311 382.367Z" fill="#6DFFDC"/>
</g>
<g filter="url(#filter9_f_1266_51)">
<path d="M257.509 352.638C255.162 287.416 314.758 229.049 361.515 227.366C408.272 225.684 460.046 257.945 462.393 323.167C463.556 355.488 402.036 406.024 380.134 445.262C357.838 485.204 293.747 478.611 270.16 479.459C223.402 481.142 259.856 417.861 257.509 352.638Z" fill="#6DFFDC"/>
</g>
<g filter="url(#filter10_f_1266_51)">
<path d="M251.836 401.963C249.783 344.893 309.631 293.545 356.388 291.863C403.146 290.18 454.766 318.181 456.819 375.251C457.837 403.532 471.51 437.423 449.435 471.86C426.963 506.917 362.912 501.434 339.325 502.283C292.568 503.966 253.89 459.033 251.836 401.963Z" fill="#6DFFDC"/>
</g>
</g>
</g>
<defs>
<filter id="filter0_f_1266_51" x="349.397" y="260.857" width="165.341" height="186.44" filterUnits="userSpaceOnUse" color-interpolation-filters="sRGB">
<feFlood flood-opacity="0" result="BackgroundImageFix"/>
<feBlend mode="normal" in="SourceGraphic" in2="BackgroundImageFix" result="shape"/>
<feGaussianBlur stdDeviation="0.769075" result="effect1_foregroundBlur_1266_51"/>
</filter>
<filter id="filter1_f_1266_51" x="305.678" y="249.495" width="213.146" height="216.446" filterUnits="userSpaceOnUse" color-interpolation-filters="sRGB">
<feFlood flood-opacity="0" result="BackgroundImageFix"/>
<feBlend mode="normal" in="SourceGraphic" in2="BackgroundImageFix" result="shape"/>
<feGaussianBlur stdDeviation="2.69176" result="effect1_foregroundBlur_1266_51"/>
</filter>
<filter id="filter2_f_1266_51" x="253.136" y="236.729" width="263.156" height="273.427" filterUnits="userSpaceOnUse" color-interpolation-filters="sRGB">
<feFlood flood-opacity="0" result="BackgroundImageFix"/>
<feBlend mode="normal" in="SourceGraphic" in2="BackgroundImageFix" result="shape"/>
<feGaussianBlur stdDeviation="3.84538" result="effect1_foregroundBlur_1266_51"/>
</filter>
<filter id="filter3_f_1266_51" x="258.614" y="237.2" width="256.734" height="320.844" filterUnits="userSpaceOnUse" color-interpolation-filters="sRGB">
<feFlood flood-opacity="0" result="BackgroundImageFix"/>
<feBlend mode="normal" in="SourceGraphic" in2="BackgroundImageFix" result="shape"/>
<feGaussianBlur stdDeviation="10.3825" result="effect1_foregroundBlur_1266_51"/>
</filter>
<filter id="filter4_f_1266_51" x="241.277" y="218.967" width="262.109" height="301.61" filterUnits="userSpaceOnUse" color-interpolation-filters="sRGB">
<feFlood flood-opacity="0" result="BackgroundImageFix"/>
<feBlend mode="normal" in="SourceGraphic" in2="BackgroundImageFix" result="shape"/>
<feGaussianBlur stdDeviation="11.9207" result="effect1_foregroundBlur_1266_51"/>
</filter>
<filter id="filter5_f_1266_51" x="215.879" y="327.37" width="145.151" height="156.784" filterUnits="userSpaceOnUse" color-interpolation-filters="sRGB">
<feFlood flood-opacity="0" result="BackgroundImageFix"/>
<feBlend mode="normal" in="SourceGraphic" in2="BackgroundImageFix" result="shape"/>
<feGaussianBlur stdDeviation="0.769075" result="effect1_foregroundBlur_1266_51"/>
</filter>
<filter id="filter6_f_1266_51" x="211.982" y="312.626" width="188.925" height="183.035" filterUnits="userSpaceOnUse" color-interpolation-filters="sRGB">
<feFlood flood-opacity="0" result="BackgroundImageFix"/>
<feBlend mode="normal" in="SourceGraphic" in2="BackgroundImageFix" result="shape"/>
<feGaussianBlur stdDeviation="2.69176" result="effect1_foregroundBlur_1266_51"/>
</filter>
<filter id="filter7_f_1266_51" x="220.539" y="276.611" width="257.818" height="237.572" filterUnits="userSpaceOnUse" color-interpolation-filters="sRGB">
<feFlood flood-opacity="0" result="BackgroundImageFix"/>
<feBlend mode="normal" in="SourceGraphic" in2="BackgroundImageFix" result="shape"/>
<feGaussianBlur stdDeviation="3.84538" result="effect1_foregroundBlur_1266_51"/>
</filter>
<filter id="filter8_f_1266_51" x="219.482" y="235.771" width="250.467" height="302.235" filterUnits="userSpaceOnUse" color-interpolation-filters="sRGB">
<feFlood flood-opacity="0" result="BackgroundImageFix"/>
<feBlend mode="normal" in="SourceGraphic" in2="BackgroundImageFix" result="shape"/>
<feGaussianBlur stdDeviation="10.3825" result="effect1_foregroundBlur_1266_51"/>
</filter>
<filter id="filter9_f_1266_51" x="194.654" y="175.776" width="319.284" height="355.245" filterUnits="userSpaceOnUse" color-interpolation-filters="sRGB">
<feFlood flood-opacity="0" result="BackgroundImageFix"/>
<feBlend mode="normal" in="SourceGraphic" in2="BackgroundImageFix" result="shape"/>
<feGaussianBlur stdDeviation="25.764" result="effect1_foregroundBlur_1266_51"/>
</filter>
<filter id="filter10_f_1266_51" x="227.943" y="267.95" width="257.833" height="258.221" filterUnits="userSpaceOnUse" color-interpolation-filters="sRGB">
<feFlood flood-opacity="0" result="BackgroundImageFix"/>
<feBlend mode="normal" in="SourceGraphic" in2="BackgroundImageFix" result="shape"/>
<feGaussianBlur stdDeviation="11.9207" result="effect1_foregroundBlur_1266_51"/>
</filter>
<linearGradient id="paint0_linear_1266_51" x1="416.949" y1="359.317" x2="315.99" y2="266.047" gradientUnits="userSpaceOnUse">
<stop stop-color="#C4C4C4"/>
<stop offset="1" stop-color="#C4C4C4" stop-opacity="0"/>
</linearGradient>
<linearGradient id="paint1_linear_1266_51" x1="509.408" y1="346.612" x2="318.583" y2="379.374" gradientUnits="userSpaceOnUse">
<stop stop-color="#C4C4C4"/>
<stop offset="1" stop-color="#C4C4C4" stop-opacity="0"/>
</linearGradient>
<linearGradient id="paint2_linear_1266_51" x1="272.389" y1="337.805" x2="288.131" y2="470.662" gradientUnits="userSpaceOnUse">
<stop stop-color="#C4C4C4"/>
<stop offset="0.943414" stop-color="#C4C4C4" stop-opacity="0"/>
</linearGradient>
<linearGradient id="paint3_linear_1266_51" x1="258.232" y1="404.62" x2="412.973" y2="415.253" gradientUnits="userSpaceOnUse">
<stop stop-color="#C4C4C4"/>
<stop offset="1" stop-color="#C4C4C4" stop-opacity="0"/>
</linearGradient>
</defs>
</svg>
