<svg width="501" height="501" viewBox="0 0 501 501" fill="none" xmlns="http://www.w3.org/2000/svg">
<path d="M250.491 0.832478C388.366 0.832472 500.136 112.682 500.136 250.655C500.136 388.629 388.366 500.478 250.491 500.478C112.615 500.478 0.845143 388.629 0.845137 250.655C0.845131 112.682 112.615 0.832484 250.491 0.832478Z" stroke="url(#paint0_linear_1266_43)" stroke-width="0.354358"/>
<mask id="mask0_1266_43" style="mask-type:alpha" maskUnits="userSpaceOnUse" x="340" y="173" width="28" height="46">
<path d="M346.617 218.398L367.975 208.14L365.017 186.65L362.576 179.665L349.258 173.533L340.129 178.575L343.212 200.743L346.617 218.398Z" fill="url(#paint1_linear_1266_43)"/>
</mask>
<g mask="url(#mask0_1266_43)">
</g>
<mask id="mask1_1266_43" style="mask-type:alpha" maskUnits="userSpaceOnUse" x="339" y="173" width="30" height="42">
<path d="M339.318 176.49C349.76 175.055 363.08 173.227 363.594 173.114L368.94 211.558L344.665 214.934L339.318 176.49Z" fill="url(#paint2_linear_1266_43)"/>
</mask>
<g mask="url(#mask1_1266_43)">
<path d="M362.523 189.733C363.126 194.069 359.894 198.234 356.542 198.7C353.191 199.166 348.548 198.023 347.901 193.371C347.58 191.065 344.951 188.578 346.239 185.607C347.55 182.582 352.21 182.58 353.9 182.345C357.252 181.879 361.92 185.397 362.523 189.733Z" fill="#3757FF"/>
<g filter="url(#filter0_f_1266_43)">
<path d="M362.228 189.72C362.875 194.37 360.124 198.145 357.243 198.546C354.362 198.947 350.337 197.718 349.691 193.068C349.37 190.763 346.98 188.244 348.034 185.306C349.107 182.316 353.124 182.403 354.578 182.201C357.459 181.801 361.582 185.07 362.228 189.72Z" fill="#3757FF"/>
</g>
<g filter="url(#filter1_f_1266_43)">
<path d="M362.248 189.861C362.972 195.073 359.529 199.354 355.977 199.848C352.425 200.342 347.49 199.024 346.766 193.812C346.406 191.229 343.173 188.482 344.515 185.168C345.881 181.794 351.124 181.789 352.916 181.539C356.468 181.045 361.523 184.649 362.248 189.861Z" fill="#3757FF"/>
</g>
<g filter="url(#filter2_f_1266_43)">
<path d="M361.911 190.521C361.935 197.078 358.069 203.048 353.912 203.627C349.755 204.205 344.807 201.564 343.937 195.313C343.506 192.215 338.422 188.864 339.98 184.896C341.567 180.856 347.355 180.919 349.452 180.628C353.609 180.05 361.884 182.926 361.911 190.521Z" fill="#3757FF"/>
</g>
<g filter="url(#filter3_f_1266_43)">
<path d="M360.53 192.924C361.466 199.654 356.916 206.193 352.852 206.758C348.787 207.324 343.904 204.418 342.968 197.688C342.504 194.352 340.39 190.518 341.863 186.274C343.362 181.954 349.033 182.1 351.083 181.815C355.148 181.25 359.594 186.193 360.53 192.924Z" fill="#3757FF"/>
</g>
<g filter="url(#filter4_f_1266_43)">
<path d="M359.205 190.445C360.052 196.531 355.302 202.532 351.145 203.11C346.988 203.688 342.052 201.133 341.205 195.048C340.786 192.032 339.171 188.524 340.743 184.653C342.343 180.712 348.128 180.753 350.225 180.461C354.382 179.883 358.359 184.359 359.205 190.445Z" fill="#3757FF"/>
</g>
</g>
<mask id="mask2_1266_43" style="mask-type:alpha" maskUnits="userSpaceOnUse" x="332" y="172" width="25" height="38">
<path d="M354.409 172.478L332.072 179.304L332.703 197.097L334.375 203.089L346.939 209.516L356.558 206.053L355.887 187.405L354.409 172.478Z" fill="url(#paint3_linear_1266_43)"/>
</mask>
<g mask="url(#mask2_1266_43)">
<mask id="mask3_1266_43" style="mask-type:alpha" maskUnits="userSpaceOnUse" x="332" y="174" width="25" height="35">
<path d="M356.174 207.741C345.641 208.106 334.144 208.5 333.62 208.553L332.563 175.249L355.116 174.437L356.174 207.741Z" fill="url(#paint4_linear_1266_43)"/>
</mask>
<g mask="url(#mask3_1266_43)">
<path d="M335.504 195.018C335.373 191.371 339.034 188.168 342.416 188.047C345.798 187.925 350.289 189.242 350.43 193.155C350.5 195.094 352.845 197.368 351.244 199.732C349.614 202.14 344.982 201.772 343.277 201.834C339.895 201.955 335.635 198.666 335.504 195.018Z" fill="#6DFFDC"/>
<g filter="url(#filter5_f_1266_43)">
<path d="M335.795 195.051C335.654 191.139 338.482 188.234 341.108 188.14C343.733 188.045 347.232 189.397 347.373 193.309C347.442 195.248 349.351 197.536 348.126 199.886C346.879 202.278 343.279 201.874 341.955 201.922C339.329 202.016 335.936 198.963 335.795 195.051Z" fill="#6DFFDC"/>
</g>
<g filter="url(#filter6_f_1266_43)">
<path d="M335.791 194.933C335.633 190.548 339.136 187.281 342.378 187.164C345.62 187.047 349.934 188.548 350.092 192.933C350.17 195.105 352.819 197.652 351.297 200.291C349.748 202.978 345.031 202.549 343.395 202.608C340.153 202.725 335.948 199.317 335.791 194.933Z" fill="#6DFFDC"/>
</g>
<g filter="url(#filter7_f_1266_43)">
<path d="M336.832 194.386C337.516 188.942 342.003 184.291 346.198 184.14C350.392 183.989 355.025 186.573 355.214 191.831C355.308 194.437 360 197.622 358.023 200.793C356.01 204.021 348.338 203.984 346.222 204.061C342.028 204.211 336.039 200.694 336.832 194.386Z" fill="#6DFFDC"/>
</g>
<g filter="url(#filter8_f_1266_43)">
<path d="M337.844 192.931C337.641 187.269 342.855 181.796 346.956 181.648C351.057 181.501 355.596 184.3 355.8 189.961C355.901 192.767 357.589 196.117 355.667 199.524C353.71 202.992 345.266 204.953 343.197 205.027C339.096 205.175 338.048 198.592 337.844 192.931Z" fill="#6DFFDC"/>
</g>
<g filter="url(#filter9_f_1266_43)">
<path d="M339.387 190.264C339.177 184.413 344.523 179.178 348.717 179.027C352.912 178.876 357.556 181.77 357.767 187.621C357.871 190.52 352.352 195.053 350.387 198.573C348.387 202.156 342.638 201.565 340.522 201.641C336.328 201.792 339.598 196.115 339.387 190.264Z" fill="#6DFFDC"/>
</g>
<g filter="url(#filter10_f_1266_43)">
<path d="M338.879 194.688C338.694 189.569 344.063 184.963 348.258 184.812C352.452 184.661 357.083 187.173 357.267 192.292C357.358 194.829 358.585 197.869 356.604 200.959C354.589 204.103 348.843 203.611 346.727 203.688C342.533 203.839 339.063 199.808 338.879 194.688Z" fill="#6DFFDC"/>
</g>
</g>
</g>
<mask id="mask4_1266_43" style="mask-type:alpha" maskUnits="userSpaceOnUse" x="328" y="182" width="36" height="25">
<path d="M363.734 183.807L361.251 205.057L340.662 206.572L335.021 205.141L328.48 191.39L331.504 182.319L348.956 182.532L363.734 183.807Z" fill="url(#paint5_linear_1266_43)"/>
</mask>
<g mask="url(#mask4_1266_43)">
<mask id="mask5_1266_43" style="mask-type:alpha" maskUnits="userSpaceOnUse" x="329" y="182" width="35" height="24">
<path d="M329.934 182.715C329.827 192.572 330.82 205.011 330.782 205.502L361.946 205.751L363.955 183.701L329.934 182.715Z" fill="url(#paint6_linear_1266_43)"/>
</mask>
<g mask="url(#mask5_1266_43)">
<path d="M342.291 201.76C345.705 201.801 348.618 198.306 348.656 195.141C348.695 191.977 347.364 187.806 343.702 187.762C341.887 187.74 339.709 185.597 337.533 187.147C335.319 188.724 335.765 193.047 335.746 194.643C335.707 197.808 338.878 201.718 342.291 201.76Z" fill="#6DFFDC"/>
<g filter="url(#filter11_f_1266_43)">
<path d="M342.254 201.488C345.915 201.533 348.568 198.824 348.598 196.367C348.628 193.91 347.286 190.668 343.626 190.624C341.811 190.602 339.63 188.868 337.459 190.066C335.25 191.284 335.708 194.642 335.693 195.881C335.663 198.338 338.593 201.443 342.254 201.488Z" fill="#6DFFDC"/>
</g>
<g filter="url(#filter12_f_1266_43)">
<path d="M342.364 201.489C346.467 201.539 349.445 198.19 349.482 195.156C349.519 192.122 348.019 188.122 343.916 188.072C341.883 188.047 339.443 185.627 337.009 187.109C334.531 188.617 335.037 193.018 335.018 194.548C334.981 197.582 338.261 201.438 342.364 201.489Z" fill="#6DFFDC"/>
</g>
<g filter="url(#filter13_f_1266_43)">
<path d="M342.851 200.504C347.927 199.743 352.176 195.445 352.224 191.519C352.272 187.594 349.752 183.319 344.831 183.259C342.393 183.229 339.31 178.913 336.389 180.832C333.416 182.786 333.62 189.959 333.596 191.939C333.548 195.864 336.97 201.386 342.851 200.504Z" fill="#6DFFDC"/>
</g>
<g filter="url(#filter14_f_1266_43)">
<path d="M344.19 199.525C349.489 199.59 354.49 194.593 354.537 190.755C354.584 186.917 351.866 182.735 346.568 182.67C343.942 182.638 340.772 181.134 337.629 183.007C334.43 184.914 332.784 192.853 332.76 194.789C332.714 198.627 338.892 199.461 344.19 199.525Z" fill="#6DFFDC"/>
</g>
<g filter="url(#filter15_f_1266_43)">
<path d="M346.65 198.023C352.125 198.09 356.902 192.975 356.95 189.049C356.998 185.124 354.189 180.846 348.713 180.779C346 180.746 341.883 186.007 338.636 187.922C335.33 189.872 336.011 195.235 335.987 197.215C335.939 201.14 341.174 197.956 346.65 198.023Z" fill="#6DFFDC"/>
</g>
</g>
</g>
<ellipse cx="349.669" cy="193.655" rx="12" ry="12" transform="rotate(-90 349.669 193.655)" fill="#F7931A"/>
<mask id="mask6_1266_43" style="mask-type:alpha" maskUnits="userSpaceOnUse" x="337" y="181" width="25" height="25">
<ellipse cx="349.669" cy="193.655" rx="12" ry="12" transform="rotate(-90 349.669 193.655)" fill="#C3EEFF"/>
</mask>
<g mask="url(#mask6_1266_43)">
<g filter="url(#filter16_f_1266_43)">
<ellipse cx="336.73" cy="181.661" rx="14.1149" ry="11.6782" transform="rotate(-90 336.73 181.661)" fill="white"/>
</g>
<g filter="url(#filter17_f_1266_43)">
<path d="M338.286 194.272C341.024 201.923 345.803 203.695 354.608 203.695C354.608 208.573 343.49 211.937 338.286 211.937C333.082 211.937 328.863 207.982 328.863 203.104C328.863 198.226 333.082 194.272 338.286 194.272Z" fill="white"/>
</g>
</g>
<g filter="url(#filter18_d_1266_43)">
<path d="M353.093 191.739C353.692 191.23 353.968 190.543 353.613 189.617C353.129 188.351 351.801 188.239 350.24 188.524L349.756 186.718L348.572 187.035L349.043 188.794C348.731 188.877 348.415 188.968 348.1 189.059L347.626 187.289L346.443 187.606L346.927 189.412C346.672 189.485 346.421 189.557 346.175 189.623L346.174 189.618L344.541 190.055L344.855 191.229C344.855 191.229 345.726 190.979 345.715 190.998C346.195 190.87 346.42 191.086 346.525 191.297L347.077 193.355L347.852 196.246C347.868 196.391 347.839 196.639 347.504 196.729C347.523 196.738 346.643 196.96 346.643 196.96L346.76 198.336L348.3 197.923C348.587 197.846 348.87 197.775 349.148 197.703L349.638 199.529L350.821 199.213L350.336 197.405C350.663 197.324 350.978 197.243 351.285 197.16L351.766 198.959L352.95 198.642L352.462 196.818C354.424 196.179 355.693 195.34 355.401 193.557C355.166 192.122 354.29 191.688 353.093 191.739ZM348.475 190.344C349.143 190.165 351.19 189.405 351.537 190.7C351.87 191.942 349.732 192.36 349.063 192.539L348.475 190.344ZM350.008 196.068L349.36 193.647C350.162 193.432 352.621 192.544 353.003 193.968C353.37 195.333 350.811 195.852 350.008 196.068Z" fill="white"/>
</g>
<path d="M250.49 73.1217C348.637 73.1217 428.201 152.606 428.201 250.655C428.201 348.704 348.637 428.189 250.49 428.189C152.343 428.189 72.7797 348.704 72.7797 250.655C72.7797 152.606 152.343 73.1217 250.49 73.1217Z" stroke="url(#paint7_linear_1266_43)" stroke-width="0.354358"/>
<g filter="url(#filter19_d_1266_43)">
<ellipse cx="250.313" cy="250.299" rx="133.77" ry="133.77" transform="rotate(-90 250.313 250.299)" fill="url(#paint8_linear_1266_43)"/>
</g>
<mask id="mask7_1266_43" style="mask-type:alpha" maskUnits="userSpaceOnUse" x="116" y="116" width="269" height="269">
<ellipse cx="250.313" cy="250.299" rx="133.77" ry="133.77" transform="rotate(-90 250.313 250.299)" fill="#C3EEFF"/>
</mask>
<g mask="url(#mask7_1266_43)">
<g filter="url(#filter20_f_1266_43)">
<ellipse cx="106.072" cy="116.594" rx="157.347" ry="130.182" transform="rotate(-90 106.072 116.594)" fill="white"/>
</g>
<g filter="url(#filter21_f_1266_43)">
<path d="M123.421 257.182C153.946 342.472 207.214 362.223 305.372 362.223C305.372 416.6 181.433 454.097 123.421 454.097C65.4084 454.097 18.3799 410.016 18.3799 355.639C18.3799 301.263 65.4084 257.182 123.421 257.182Z" fill="white"/>
</g>
</g>
<g filter="url(#filter22_d_1266_43)">
<path d="M285.314 184.406C225.11 200.874 244.726 255.017 202.64 266.314C202.593 266.326 202.557 266.376 202.57 266.422C203.589 270.227 212.143 302.149 213.353 306.666C213.365 306.712 213.412 306.739 213.458 306.727C287.995 290.398 259.162 236.438 305.73 222.287C305.776 222.274 305.81 222.216 305.798 222.17L302.875 211.261L295.012 181.916C294.997 181.861 294.941 181.836 294.895 181.848L285.316 184.415L285.314 184.406Z" fill="white"/>
<path d="M312.632 247.672L282.188 255.829L290.345 286.273L320.789 278.116L312.632 247.672Z" fill="white"/>
<path d="M218.052 202.428L187.608 210.586L195.766 241.03L226.21 232.873L218.052 202.428Z" fill="white"/>
</g>
<defs>
<filter id="filter0_f_1266_43" x="347.63" y="182.03" width="14.8316" height="16.7252" filterUnits="userSpaceOnUse" color-interpolation-filters="sRGB">
<feFlood flood-opacity="0" result="BackgroundImageFix"/>
<feBlend mode="normal" in="SourceGraphic" in2="BackgroundImageFix" result="shape"/>
<feGaussianBlur stdDeviation="0.0689907" result="effect1_foregroundBlur_1266_43"/>
</filter>
<filter id="filter1_f_1266_43" x="343.707" y="181.011" width="19.1202" height="19.4161" filterUnits="userSpaceOnUse" color-interpolation-filters="sRGB">
<feFlood flood-opacity="0" result="BackgroundImageFix"/>
<feBlend mode="normal" in="SourceGraphic" in2="BackgroundImageFix" result="shape"/>
<feGaussianBlur stdDeviation="0.241467" result="effect1_foregroundBlur_1266_43"/>
</filter>
<filter id="filter2_f_1266_43" x="338.995" y="179.866" width="23.6064" height="24.5283" filterUnits="userSpaceOnUse" color-interpolation-filters="sRGB">
<feFlood flood-opacity="0" result="BackgroundImageFix"/>
<feBlend mode="normal" in="SourceGraphic" in2="BackgroundImageFix" result="shape"/>
<feGaussianBlur stdDeviation="0.344953" result="effect1_foregroundBlur_1266_43"/>
</filter>
<filter id="filter3_f_1266_43" x="339.486" y="179.909" width="23.0312" height="28.7812" filterUnits="userSpaceOnUse" color-interpolation-filters="sRGB">
<feFlood flood-opacity="0" result="BackgroundImageFix"/>
<feBlend mode="normal" in="SourceGraphic" in2="BackgroundImageFix" result="shape"/>
<feGaussianBlur stdDeviation="0.931374" result="effect1_foregroundBlur_1266_43"/>
</filter>
<filter id="filter4_f_1266_43" x="337.931" y="178.272" width="23.5128" height="27.0557" filterUnits="userSpaceOnUse" color-interpolation-filters="sRGB">
<feFlood flood-opacity="0" result="BackgroundImageFix"/>
<feBlend mode="normal" in="SourceGraphic" in2="BackgroundImageFix" result="shape"/>
<feGaussianBlur stdDeviation="1.06936" result="effect1_foregroundBlur_1266_43"/>
</filter>
<filter id="filter5_f_1266_43" x="335.652" y="187.998" width="13.0211" height="14.064" filterUnits="userSpaceOnUse" color-interpolation-filters="sRGB">
<feFlood flood-opacity="0" result="BackgroundImageFix"/>
<feBlend mode="normal" in="SourceGraphic" in2="BackgroundImageFix" result="shape"/>
<feGaussianBlur stdDeviation="0.0689907" result="effect1_foregroundBlur_1266_43"/>
</filter>
<filter id="filter6_f_1266_43" x="335.302" y="186.674" width="16.9483" height="16.42" filterUnits="userSpaceOnUse" color-interpolation-filters="sRGB">
<feFlood flood-opacity="0" result="BackgroundImageFix"/>
<feBlend mode="normal" in="SourceGraphic" in2="BackgroundImageFix" result="shape"/>
<feGaussianBlur stdDeviation="0.241467" result="effect1_foregroundBlur_1266_43"/>
</filter>
<filter id="filter7_f_1266_43" x="336.071" y="183.444" width="23.1279" height="21.3115" filterUnits="userSpaceOnUse" color-interpolation-filters="sRGB">
<feFlood flood-opacity="0" result="BackgroundImageFix"/>
<feBlend mode="normal" in="SourceGraphic" in2="BackgroundImageFix" result="shape"/>
<feGaussianBlur stdDeviation="0.344953" result="effect1_foregroundBlur_1266_43"/>
</filter>
<filter id="filter8_f_1266_43" x="335.976" y="179.78" width="22.4677" height="27.1122" filterUnits="userSpaceOnUse" color-interpolation-filters="sRGB">
<feFlood flood-opacity="0" result="BackgroundImageFix"/>
<feBlend mode="normal" in="SourceGraphic" in2="BackgroundImageFix" result="shape"/>
<feGaussianBlur stdDeviation="0.931374" result="effect1_foregroundBlur_1266_43"/>
</filter>
<filter id="filter9_f_1266_43" x="333.749" y="174.399" width="28.6422" height="31.8668" filterUnits="userSpaceOnUse" color-interpolation-filters="sRGB">
<feFlood flood-opacity="0" result="BackgroundImageFix"/>
<feBlend mode="normal" in="SourceGraphic" in2="BackgroundImageFix" result="shape"/>
<feGaussianBlur stdDeviation="2.31119" result="effect1_foregroundBlur_1266_43"/>
</filter>
<filter id="filter10_f_1266_43" x="336.735" y="182.667" width="23.129" height="23.1632" filterUnits="userSpaceOnUse" color-interpolation-filters="sRGB">
<feFlood flood-opacity="0" result="BackgroundImageFix"/>
<feBlend mode="normal" in="SourceGraphic" in2="BackgroundImageFix" result="shape"/>
<feGaussianBlur stdDeviation="1.06936" result="effect1_foregroundBlur_1266_43"/>
</filter>
<filter id="filter11_f_1266_43" x="335.396" y="189.378" width="13.4688" height="12.377" filterUnits="userSpaceOnUse" color-interpolation-filters="sRGB">
<feFlood flood-opacity="0" result="BackgroundImageFix"/>
<feBlend mode="normal" in="SourceGraphic" in2="BackgroundImageFix" result="shape"/>
<feGaussianBlur stdDeviation="0.133305" result="effect1_foregroundBlur_1266_43"/>
</filter>
<filter id="filter12_f_1266_43" x="334.054" y="185.696" width="16.3614" height="16.7266" filterUnits="userSpaceOnUse" color-interpolation-filters="sRGB">
<feFlood flood-opacity="0" result="BackgroundImageFix"/>
<feBlend mode="normal" in="SourceGraphic" in2="BackgroundImageFix" result="shape"/>
<feGaussianBlur stdDeviation="0.466569" result="effect1_foregroundBlur_1266_43"/>
</filter>
<filter id="filter13_f_1266_43" x="332.263" y="179.008" width="21.295" height="22.9229" filterUnits="userSpaceOnUse" color-interpolation-filters="sRGB">
<feFlood flood-opacity="0" result="BackgroundImageFix"/>
<feBlend mode="normal" in="SourceGraphic" in2="BackgroundImageFix" result="shape"/>
<feGaussianBlur stdDeviation="0.666527" result="effect1_foregroundBlur_1266_43"/>
</filter>
<filter id="filter14_f_1266_43" x="329.161" y="178.469" width="28.9768" height="24.6565" filterUnits="userSpaceOnUse" color-interpolation-filters="sRGB">
<feFlood flood-opacity="0" result="BackgroundImageFix"/>
<feBlend mode="normal" in="SourceGraphic" in2="BackgroundImageFix" result="shape"/>
<feGaussianBlur stdDeviation="1.79962" result="effect1_foregroundBlur_1266_43"/>
</filter>
<filter id="filter15_f_1266_43" x="327.013" y="171.847" width="38.8688" height="36.2633" filterUnits="userSpaceOnUse" color-interpolation-filters="sRGB">
<feFlood flood-opacity="0" result="BackgroundImageFix"/>
<feBlend mode="normal" in="SourceGraphic" in2="BackgroundImageFix" result="shape"/>
<feGaussianBlur stdDeviation="4.46573" result="effect1_foregroundBlur_1266_43"/>
</filter>
<filter id="filter16_f_1266_43" x="316.078" y="158.573" width="41.3037" height="46.1767" filterUnits="userSpaceOnUse" color-interpolation-filters="sRGB">
<feFlood flood-opacity="0" result="BackgroundImageFix"/>
<feBlend mode="normal" in="SourceGraphic" in2="BackgroundImageFix" result="shape"/>
<feGaussianBlur stdDeviation="4.48681" result="effect1_foregroundBlur_1266_43"/>
</filter>
<filter id="filter17_f_1266_43" x="324.705" y="190.114" width="34.0621" height="25.9811" filterUnits="userSpaceOnUse" color-interpolation-filters="sRGB">
<feFlood flood-opacity="0" result="BackgroundImageFix"/>
<feBlend mode="normal" in="SourceGraphic" in2="BackgroundImageFix" result="shape"/>
<feGaussianBlur stdDeviation="2.07925" result="effect1_foregroundBlur_1266_43"/>
</filter>
<filter id="filter18_d_1266_43" x="343.79" y="186.718" width="11.6523" height="13.9365" filterUnits="userSpaceOnUse" color-interpolation-filters="sRGB">
<feFlood flood-opacity="0" result="BackgroundImageFix"/>
<feColorMatrix in="SourceAlpha" type="matrix" values="0 0 0 0 0 0 0 0 0 0 0 0 0 0 0 0 0 0 127 0" result="hardAlpha"/>
<feOffset dx="-0.75" dy="1.125"/>
<feComposite in2="hardAlpha" operator="out"/>
<feColorMatrix type="matrix" values="0 0 0 0 0 0 0 0 0 0 0 0 0 0 0 0 0 0 0.2 0"/>
<feBlend mode="normal" in2="BackgroundImageFix" result="effect1_dropShadow_1266_43"/>
<feBlend mode="normal" in="SourceGraphic" in2="effect1_dropShadow_1266_43" result="shape"/>
</filter>
<filter id="filter19_d_1266_43" x="102.451" y="112.124" width="295.725" height="295.726" filterUnits="userSpaceOnUse" color-interpolation-filters="sRGB">
<feFlood flood-opacity="0" result="BackgroundImageFix"/>
<feColorMatrix in="SourceAlpha" type="matrix" values="0 0 0 0 0 0 0 0 0 0 0 0 0 0 0 0 0 0 127 0" result="hardAlpha"/>
<feOffset dy="9.68853"/>
<feGaussianBlur stdDeviation="7.0462"/>
<feComposite in2="hardAlpha" operator="out"/>
<feColorMatrix type="matrix" values="0 0 0 0 0 0 0 0 0 0 0 0 0 0 0 0 0 0 0.15 0"/>
<feBlend mode="normal" in2="BackgroundImageFix" result="effect1_dropShadow_1266_43"/>
<feBlend mode="normal" in="SourceGraphic" in2="effect1_dropShadow_1266_43" result="shape"/>
</filter>
<filter id="filter20_f_1266_43" x="-124.144" y="-140.787" width="460.433" height="514.761" filterUnits="userSpaceOnUse" color-interpolation-filters="sRGB">
<feFlood flood-opacity="0" result="BackgroundImageFix"/>
<feBlend mode="normal" in="SourceGraphic" in2="BackgroundImageFix" result="shape"/>
<feGaussianBlur stdDeviation="50.0169" result="effect1_foregroundBlur_1266_43"/>
</filter>
<filter id="filter21_f_1266_43" x="-27.9772" y="210.825" width="379.706" height="289.629" filterUnits="userSpaceOnUse" color-interpolation-filters="sRGB">
<feFlood flood-opacity="0" result="BackgroundImageFix"/>
<feBlend mode="normal" in="SourceGraphic" in2="BackgroundImageFix" result="shape"/>
<feGaussianBlur stdDeviation="23.1785" result="effect1_foregroundBlur_1266_43"/>
</filter>
<filter id="filter22_d_1266_43" x="179.248" y="181.846" width="141.541" height="137.425" filterUnits="userSpaceOnUse" color-interpolation-filters="sRGB">
<feFlood flood-opacity="0" result="BackgroundImageFix"/>
<feColorMatrix in="SourceAlpha" type="matrix" values="0 0 0 0 0 0 0 0 0 0 0 0 0 0 0 0 0 0 127 0" result="hardAlpha"/>
<feOffset dx="-8.36064" dy="12.541"/>
<feComposite in2="hardAlpha" operator="out"/>
<feColorMatrix type="matrix" values="0 0 0 0 0 0 0 0 0 0 0 0 0 0 0 0 0 0 0.2 0"/>
<feBlend mode="normal" in2="BackgroundImageFix" result="effect1_dropShadow_1266_43"/>
<feBlend mode="normal" in="SourceGraphic" in2="effect1_dropShadow_1266_43" result="shape"/>
</filter>
<linearGradient id="paint0_linear_1266_43" x1="81.3482" y1="81.3928" x2="434.688" y2="508.214" gradientUnits="userSpaceOnUse">
<stop stop-color="#339DFF"/>
<stop offset="0.337797" stop-color="#1E203F" stop-opacity="0.31"/>
<stop offset="0.640184" stop-color="#1E203F"/>
<stop offset="1" stop-color="#339DFF"/>
</linearGradient>
<linearGradient id="paint1_linear_1266_43" x1="353.69" y1="190.862" x2="344.633" y2="182.495" gradientUnits="userSpaceOnUse">
<stop stop-color="#C4C4C4"/>
<stop offset="1" stop-color="#C4C4C4" stop-opacity="0"/>
</linearGradient>
<linearGradient id="paint2_linear_1266_43" x1="361.984" y1="189.722" x2="344.865" y2="192.661" gradientUnits="userSpaceOnUse">
<stop stop-color="#C4C4C4"/>
<stop offset="1" stop-color="#C4C4C4" stop-opacity="0"/>
</linearGradient>
<linearGradient id="paint3_linear_1266_43" x1="340.722" y1="188.933" x2="342.134" y2="200.851" gradientUnits="userSpaceOnUse">
<stop stop-color="#C4C4C4"/>
<stop offset="0.943414" stop-color="#C4C4C4" stop-opacity="0"/>
</linearGradient>
<linearGradient id="paint4_linear_1266_43" x1="339.451" y1="194.927" x2="353.333" y2="195.88" gradientUnits="userSpaceOnUse">
<stop stop-color="#C4C4C4"/>
<stop offset="1" stop-color="#C4C4C4" stop-opacity="0"/>
</linearGradient>
<linearGradient id="paint5_linear_1266_43" x1="347.864" y1="196.746" x2="336.689" y2="195.69" gradientUnits="userSpaceOnUse">
<stop stop-color="#C4C4C4"/>
<stop offset="0.943414" stop-color="#C4C4C4" stop-opacity="0"/>
</linearGradient>
<linearGradient id="paint6_linear_1266_43" x1="342.288" y1="198.066" x2="341.087" y2="185.108" gradientUnits="userSpaceOnUse">
<stop stop-color="#C4C4C4"/>
<stop offset="1" stop-color="#C4C4C4" stop-opacity="0"/>
</linearGradient>
<linearGradient id="paint7_linear_1266_43" x1="130.051" y1="130.336" x2="381.141" y2="434.16" gradientUnits="userSpaceOnUse">
<stop stop-color="#339DFF"/>
<stop offset="0.337797" stop-color="#1E203F" stop-opacity="0.31"/>
<stop offset="0.640184" stop-color="#1E203F"/>
<stop offset="1" stop-color="#339DFF"/>
</linearGradient>
<linearGradient id="paint8_linear_1266_43" x1="113.684" y1="385.117" x2="355.918" y2="151.309" gradientUnits="userSpaceOnUse">
<stop stop-color="#339DFF"/>
<stop offset="1" stop-color="#0EC1D3"/>
</linearGradient>
</defs>
</svg>
