<svg width="516" height="497" viewBox="0 0 516 497" fill="none" xmlns="http://www.w3.org/2000/svg">
<mask id="path-1-inside-1_2033_29" fill="white">
<path d="M375.282 10.2955C147.79 75.726 221.912 290.845 62.8792 335.729C62.7047 335.779 62.5676 335.975 62.6144 336.158C66.4675 351.278 98.7886 478.109 103.362 496.055C103.409 496.238 103.586 496.346 103.76 496.297C385.411 431.42 276.459 217.027 452.429 160.802C452.604 160.753 452.731 160.521 452.685 160.337L441.64 116.996L411.928 0.403558C411.872 0.183365 411.66 0.0857346 411.485 0.134902L375.291 10.3322L375.282 10.2955Z"/>
</mask>
<path d="M375.282 10.2955L376.244 10.0243L375.996 9.04997L375.03 9.32793L375.282 10.2955ZM62.8792 335.729L63.1262 336.698L63.1266 336.698L62.8792 335.729ZM103.76 496.297L103.56 495.316L103.536 495.321L103.513 495.328L103.76 496.297ZM452.429 160.802L452.182 159.833L452.165 159.838L452.149 159.843L452.429 160.802ZM375.291 10.3322L374.329 10.6033L374.576 11.5724L375.538 11.3012L375.291 10.3322ZM375.03 9.32793C317.989 25.7338 279.8 51.5426 252.138 81.7608C224.491 111.962 207.404 146.519 192.502 180.324C162.649 248.049 141.593 312.475 62.6319 334.761L63.1266 336.698C143.198 314.099 164.598 248.524 194.314 181.111C209.198 147.347 226.174 113.051 253.582 83.1116C280.973 53.19 318.829 27.5724 375.534 11.263L375.03 9.32793ZM62.6323 334.76C62.0187 334.933 61.4461 335.622 61.6519 336.429L63.5769 335.887C63.6353 336.116 63.5687 336.312 63.4928 336.43C63.42 336.543 63.2992 336.65 63.1262 336.698L62.6323 334.76ZM61.6519 336.429C61.6594 336.459 61.667 336.489 61.6748 336.519C61.6825 336.549 61.6904 336.58 61.6983 336.612C61.7063 336.643 61.7143 336.674 61.7225 336.706C61.7307 336.739 61.739 336.771 61.7474 336.804C61.7557 336.837 61.7642 336.87 61.7728 336.904C61.7814 336.938 61.7901 336.972 61.799 337.006C61.8078 337.041 61.8167 337.076 61.8257 337.111C61.8347 337.147 61.8439 337.183 61.8531 337.219C61.8623 337.255 61.8717 337.292 61.8811 337.329C61.8906 337.366 61.9001 337.403 61.9098 337.441C61.9194 337.479 61.9292 337.518 61.9391 337.556C61.9489 337.595 61.9589 337.634 61.969 337.674C61.979 337.713 61.9892 337.753 61.9995 337.793C62.0098 337.834 62.0202 337.874 62.0306 337.916C62.0411 337.957 62.0517 337.998 62.0624 338.04C62.0731 338.082 62.0839 338.125 62.0948 338.167C62.1057 338.21 62.1167 338.253 62.1278 338.297C62.1389 338.34 62.1501 338.384 62.1614 338.429C62.1727 338.473 62.1841 338.518 62.1956 338.563C62.2071 338.608 62.2187 338.653 62.2304 338.699C62.2421 338.745 62.2539 338.792 62.2658 338.838C62.2777 338.885 62.2897 338.932 62.3018 338.98C62.3139 339.027 62.3261 339.075 62.3384 339.123C62.3507 339.171 62.3631 339.22 62.3756 339.269C62.3881 339.318 62.4007 339.368 62.4134 339.417C62.426 339.467 62.4388 339.517 62.4517 339.568C62.4646 339.619 62.4776 339.67 62.4907 339.721C62.5038 339.772 62.517 339.824 62.5302 339.876C62.5435 339.928 62.5569 339.981 62.5704 340.034C62.5838 340.086 62.5974 340.14 62.6111 340.193C62.6247 340.247 62.6385 340.301 62.6523 340.355C62.6662 340.41 62.6802 340.464 62.6942 340.519C62.7082 340.575 62.7224 340.63 62.7366 340.686C62.7509 340.742 62.7652 340.798 62.7796 340.855C62.794 340.911 62.8086 340.968 62.8232 341.026C62.8378 341.083 62.8525 341.141 62.8673 341.199C62.8821 341.257 62.897 341.315 62.912 341.374C62.927 341.433 62.9421 341.492 62.9572 341.552C62.9724 341.611 62.9877 341.671 63.003 341.731C63.0184 341.792 63.0338 341.852 63.0494 341.913C63.0649 341.974 63.0806 342.036 63.0963 342.097C63.112 342.159 63.1278 342.221 63.1437 342.284C63.1597 342.346 63.1757 342.409 63.1917 342.472C63.2078 342.535 63.224 342.599 63.2403 342.662C63.2566 342.726 63.2729 342.79 63.2894 342.855C63.3058 342.92 63.3224 342.984 63.339 343.05C63.3556 343.115 63.3723 343.181 63.3892 343.247C63.406 343.312 63.4229 343.379 63.4398 343.445C63.4568 343.512 63.4739 343.579 63.4911 343.646C63.5082 343.714 63.5255 343.781 63.5428 343.85C63.5602 343.918 63.5776 343.986 63.5951 344.055C63.6126 344.123 63.6302 344.192 63.6479 344.262C63.6656 344.331 63.6834 344.401 63.7012 344.471C63.7191 344.541 63.737 344.612 63.7551 344.682C63.7731 344.753 63.7912 344.824 63.8094 344.896C63.8276 344.967 63.8459 345.039 63.8643 345.111C63.8827 345.183 63.9011 345.256 63.9197 345.328C63.9382 345.401 63.9568 345.474 63.9755 345.548C63.9943 345.621 64.0131 345.695 64.0319 345.769C64.0508 345.843 64.0698 345.917 64.0888 345.992C64.1079 346.067 64.127 346.142 64.1462 346.217C64.1655 346.293 64.1848 346.369 64.2041 346.445C64.2235 346.521 64.243 346.597 64.2625 346.674C64.2821 346.75 64.3017 346.827 64.3214 346.905C64.3411 346.982 64.3609 347.06 64.3808 347.138C64.4007 347.216 64.4206 347.294 64.4407 347.373C64.4607 347.451 64.4808 347.53 64.501 347.61C64.5212 347.689 64.5415 347.768 64.5618 347.848C64.5822 347.928 64.6026 348.008 64.6231 348.089C64.6437 348.169 64.6643 348.25 64.6849 348.331C64.7056 348.412 64.7264 348.494 64.7472 348.576C64.768 348.657 64.789 348.74 64.8099 348.822C64.8309 348.904 64.852 348.987 64.8732 349.07C64.8943 349.153 64.9155 349.236 64.9368 349.32C64.9581 349.403 64.9795 349.487 65.001 349.572C65.0224 349.656 65.044 349.74 65.0656 349.825C65.0872 349.91 65.1089 349.995 65.1307 350.08C65.1524 350.166 65.1743 350.252 65.1962 350.338C65.2181 350.424 65.2401 350.51 65.2622 350.596C65.2842 350.683 65.3064 350.77 65.3286 350.857C65.3508 350.944 65.3731 351.032 65.3955 351.12C65.4179 351.207 65.4403 351.295 65.4628 351.384C65.4853 351.472 65.5079 351.561 65.5306 351.65C65.5533 351.739 65.576 351.828 65.5988 351.918C65.6216 352.007 65.6445 352.097 65.6675 352.187C65.6905 352.277 65.7135 352.367 65.7366 352.458C65.7597 352.549 65.7829 352.64 65.8061 352.731C65.8294 352.822 65.8527 352.914 65.8761 353.006C65.8995 353.097 65.923 353.189 65.9465 353.282C65.97 353.374 65.9937 353.467 66.0173 353.56C66.041 353.653 66.0648 353.746 66.0886 353.839C66.1124 353.933 66.1363 354.027 66.1603 354.121C66.1842 354.215 66.2083 354.309 66.2324 354.404C66.2565 354.498 66.2806 354.593 66.3049 354.688C66.3291 354.783 66.3534 354.879 66.3778 354.974C66.4022 355.07 66.4266 355.166 66.4511 355.262C66.4757 355.358 66.5002 355.455 66.5249 355.552C66.5496 355.648 66.5743 355.745 66.5991 355.843C66.6238 355.94 66.6487 356.037 66.6736 356.135C66.6985 356.233 66.7235 356.331 66.7486 356.429C66.7737 356.528 66.7988 356.626 66.824 356.725C66.8492 356.824 66.8744 356.923 66.8997 357.022C66.9251 357.122 66.9504 357.221 66.9759 357.321C67.0013 357.421 67.0269 357.521 67.0524 357.622C67.078 357.722 67.1037 357.823 67.1294 357.924C67.1551 358.025 67.1809 358.126 67.2067 358.227C67.2326 358.328 67.2585 358.43 67.2844 358.532C67.3104 358.634 67.3364 358.736 67.3625 358.839C67.3886 358.941 67.4148 359.044 67.441 359.147C67.4672 359.249 67.4935 359.353 67.5199 359.456C67.5462 359.559 67.5726 359.663 67.5991 359.767C67.6256 359.871 67.6521 359.975 67.6787 360.079C67.7053 360.184 67.732 360.288 67.7587 360.393C67.7854 360.498 67.8122 360.603 67.839 360.708C67.8659 360.814 67.8928 360.919 67.9198 361.025C67.9467 361.131 67.9737 361.237 68.0008 361.343C68.0279 361.449 68.0551 361.556 68.0823 361.663C68.1095 361.77 68.1367 361.877 68.164 361.984C68.1914 362.091 68.2188 362.198 68.2462 362.306C68.2736 362.414 68.3011 362.522 68.3287 362.63C68.3562 362.738 68.3839 362.846 68.4115 362.955C68.4392 363.063 68.4669 363.172 68.4947 363.281C68.5225 363.39 68.5504 363.5 68.5783 363.609C68.6062 363.719 68.6341 363.828 68.6622 363.938C68.6902 364.048 68.7182 364.158 68.7464 364.269C68.7745 364.379 68.8027 364.49 68.8309 364.601C68.8592 364.711 68.8875 364.823 68.9158 364.934C68.9442 365.045 68.9726 365.157 69.0011 365.268C69.0295 365.38 69.058 365.492 69.0866 365.604C69.1152 365.716 69.1438 365.828 69.1725 365.941C69.2012 366.054 69.2299 366.166 69.2587 366.279C69.2875 366.392 69.3163 366.505 69.3452 366.619C69.3741 366.732 69.4031 366.846 69.4321 366.96C69.4611 367.073 69.4901 367.187 69.5193 367.302C69.5484 367.416 69.5775 367.53 69.6067 367.645C69.636 367.76 69.6652 367.874 69.6945 367.99C69.7239 368.105 69.7532 368.22 69.7826 368.335C69.8121 368.451 69.8415 368.566 69.8711 368.682C69.9006 368.798 69.9301 368.914 69.9598 369.03C69.9894 369.147 70.0191 369.263 70.0488 369.38C70.0785 369.496 70.1083 369.613 70.1381 369.73C70.1679 369.847 70.1978 369.964 70.2277 370.082C70.2576 370.199 70.2876 370.317 70.3176 370.435C70.3477 370.552 70.3777 370.67 70.4078 370.789C70.438 370.907 70.4681 371.025 70.4983 371.144C70.5285 371.262 70.5588 371.381 70.5891 371.5C70.6194 371.619 70.6498 371.738 70.6802 371.857C70.7106 371.977 70.741 372.096 70.7715 372.216C70.802 372.335 70.8326 372.455 70.8632 372.575C70.8937 372.695 70.9244 372.816 70.9551 372.936C70.9857 373.056 71.0165 373.177 71.0472 373.298C71.078 373.418 71.1088 373.539 71.1397 373.66C71.1706 373.782 71.2015 373.903 71.2324 374.024C71.2634 374.146 71.2944 374.267 71.3254 374.389C71.3564 374.511 71.3875 374.633 71.4187 374.755C71.4498 374.877 71.481 375 71.5122 375.122C71.5434 375.245 71.5746 375.367 71.6059 375.49C71.6372 375.613 71.6686 375.736 71.7 375.859C71.7314 375.982 71.7628 376.106 71.7943 376.229C71.8257 376.353 71.8572 376.476 71.8888 376.6C71.9203 376.724 71.9519 376.848 71.9836 376.972C72.0152 377.096 72.0469 377.22 72.0786 377.345C72.1103 377.469 72.1421 377.594 72.1739 377.719C72.2057 377.844 72.2375 377.968 72.2694 378.094C72.3013 378.219 72.3332 378.344 72.3652 378.469C72.3971 378.595 72.4291 378.72 72.4612 378.846C72.4932 378.972 72.5253 379.098 72.5574 379.224C72.5895 379.35 72.6217 379.476 72.6539 379.602C72.6861 379.729 72.7183 379.855 72.7506 379.982C72.7828 380.108 72.8151 380.235 72.8475 380.362C72.8798 380.489 72.9122 380.616 72.9446 380.743C72.977 380.87 73.0095 380.998 73.042 381.125C73.0745 381.253 73.107 381.38 73.1396 381.508C73.1721 381.636 73.2047 381.764 73.2374 381.892C73.27 382.02 73.3027 382.148 73.3354 382.277C73.3681 382.405 73.4008 382.533 73.4336 382.662C73.4664 382.791 73.4992 382.919 73.5321 383.048C73.5649 383.177 73.5978 383.306 73.6307 383.435C73.6636 383.565 73.6966 383.694 73.7295 383.823C73.7625 383.953 73.7955 384.082 73.8286 384.212C73.8616 384.342 73.8947 384.471 73.9278 384.601C73.961 384.731 73.9941 384.861 74.0273 384.992C74.0605 385.122 74.0937 385.252 74.1269 385.383C74.1602 385.513 74.1935 385.644 74.2268 385.774C74.2601 385.905 74.2934 386.036 74.3268 386.167C74.3602 386.298 74.3936 386.429 74.427 386.56C74.4604 386.691 74.4939 386.823 74.5274 386.954C74.5609 387.086 74.5944 387.217 74.628 387.349C74.6615 387.48 74.6951 387.612 74.7287 387.744C74.7623 387.876 74.796 388.008 74.8296 388.14C74.8633 388.272 74.897 388.405 74.9307 388.537C74.9645 388.669 74.9982 388.802 75.032 388.934C75.0658 389.067 75.0996 389.2 75.1335 389.332C75.1673 389.465 75.2012 389.598 75.2351 389.731C75.269 389.864 75.3029 389.997 75.3368 390.131C75.3708 390.264 75.4048 390.397 75.4388 390.531C75.4728 390.664 75.5068 390.797 75.5409 390.931C75.5749 391.065 75.609 391.199 75.6431 391.332C75.6772 391.466 75.7114 391.6 75.7455 391.734C75.7797 391.868 75.8139 392.002 75.8481 392.137C75.8823 392.271 75.9165 392.405 75.9508 392.54C75.9851 392.674 76.0193 392.809 76.0536 392.943C76.088 393.078 76.1223 393.213 76.1566 393.347C76.191 393.482 76.2254 393.617 76.2598 393.752C76.2942 393.887 76.3286 394.022 76.3631 394.157C76.3975 394.293 76.432 394.428 76.4665 394.563C76.501 394.699 76.5355 394.834 76.57 394.97C76.6046 395.105 76.6391 395.241 76.6737 395.376C76.7083 395.512 76.7429 395.648 76.7775 395.784C76.8121 395.92 76.8468 396.056 76.8814 396.192C76.9161 396.328 76.9508 396.464 76.9855 396.6C77.0202 396.736 77.0549 396.872 77.0897 397.009C77.1244 397.145 77.1592 397.282 77.194 397.418C77.2288 397.555 77.2636 397.691 77.2984 397.828C77.3332 397.964 77.368 398.101 77.4029 398.238C77.4378 398.375 77.4727 398.512 77.5075 398.649C77.5424 398.786 77.5774 398.923 77.6123 399.06C77.6472 399.197 77.6822 399.334 77.7172 399.471C77.7521 399.608 77.7871 399.746 77.8221 399.883C77.8571 400.02 77.8921 400.158 77.9272 400.295C77.9622 400.433 77.9973 400.57 78.0323 400.708C78.0674 400.845 78.1025 400.983 78.1376 401.121C78.1727 401.259 78.2078 401.396 78.2429 401.534C78.2781 401.672 78.3132 401.81 78.3484 401.948C78.3835 402.086 78.4187 402.224 78.4539 402.362C78.4891 402.5 78.5243 402.638 78.5595 402.777C78.5947 402.915 78.63 403.053 78.6652 403.191C78.7005 403.33 78.7357 403.468 78.771 403.606C78.8063 403.745 78.8415 403.883 78.8768 404.022C78.9121 404.16 78.9474 404.299 78.9828 404.438C79.0181 404.576 79.0534 404.715 79.0888 404.853C79.1241 404.992 79.1595 405.131 79.1949 405.27C79.2302 405.409 79.2656 405.547 79.301 405.686C79.3364 405.825 79.3718 405.964 79.4072 406.103C79.4426 406.242 79.4781 406.381 79.5135 406.52C79.5489 406.659 79.5844 406.798 79.6198 406.937C79.6553 407.077 79.6907 407.216 79.7262 407.355C79.7617 407.494 79.7972 407.633 79.8327 407.773C79.8682 407.912 79.9037 408.051 79.9392 408.191C79.9747 408.33 80.0102 408.469 80.0457 408.609C80.0813 408.748 80.1168 408.888 80.1523 409.027C80.1879 409.166 80.2234 409.306 80.259 409.446C80.2945 409.585 80.3301 409.725 80.3657 409.864C80.4013 410.004 80.4368 410.143 80.4724 410.283C80.508 410.423 80.5436 410.562 80.5792 410.702C80.6148 410.842 80.6504 410.981 80.686 411.121C80.7216 411.261 80.7572 411.401 80.7928 411.54C80.8285 411.68 80.8641 411.82 80.8997 411.96C80.9353 412.1 80.971 412.239 81.0066 412.379C81.0423 412.519 81.0779 412.659 81.1135 412.799C81.1492 412.939 81.1848 413.079 81.2205 413.219C81.2561 413.358 81.2918 413.498 81.3275 413.638C81.3631 413.778 81.3988 413.918 81.4345 414.058C81.4701 414.198 81.5058 414.338 81.5415 414.478C81.5771 414.618 81.6128 414.758 81.6485 414.898C81.6842 415.038 81.7198 415.178 81.7555 415.318C81.7912 415.458 81.8269 415.598 81.8625 415.738C81.8982 415.878 81.9339 416.018 81.9696 416.158C82.0053 416.298 82.041 416.438 82.0766 416.578C82.1123 416.718 82.148 416.858 82.1837 416.998C82.2194 417.138 82.255 417.278 82.2907 417.418C82.3264 417.558 82.3621 417.698 82.3978 417.838C82.4334 417.978 82.4691 418.118 82.5048 418.258C82.5405 418.398 82.5762 418.538 82.6118 418.678C82.6475 418.818 82.6832 418.958 82.7188 419.098C82.7545 419.238 82.7902 419.378 82.8258 419.518C82.8615 419.658 82.8972 419.798 82.9328 419.938C82.9685 420.078 83.0041 420.218 83.0398 420.358C83.0754 420.498 83.1111 420.637 83.1467 420.777C83.1824 420.917 83.218 421.057 83.2536 421.197C83.2893 421.337 83.3249 421.476 83.3605 421.616C83.3962 421.756 83.4318 421.896 83.4674 422.036C83.503 422.175 83.5386 422.315 83.5742 422.455C83.6098 422.595 83.6454 422.734 83.681 422.874C83.7166 423.014 83.7522 423.153 83.7878 423.293C83.8233 423.432 83.8589 423.572 83.8945 423.712C83.93 423.851 83.9656 423.991 84.0012 424.13C84.0367 424.27 84.0722 424.409 84.1078 424.549C84.1433 424.688 84.1788 424.827 84.2144 424.967C84.2499 425.106 84.2854 425.246 84.3209 425.385C84.3564 425.524 84.3919 425.663 84.4274 425.803C84.4629 425.942 84.4983 426.081 84.5338 426.22C84.5693 426.36 84.6047 426.499 84.6402 426.638C84.6756 426.777 84.7111 426.916 84.7465 427.055C84.7819 427.194 84.8173 427.333 84.8527 427.472C84.8881 427.611 84.9235 427.75 84.9589 427.889C84.9943 428.027 85.0297 428.166 85.065 428.305C85.1004 428.444 85.1357 428.582 85.1711 428.721C85.2064 428.86 85.2417 428.998 85.2771 429.137C85.3124 429.276 85.3477 429.414 85.383 429.553C85.4182 429.691 85.4535 429.829 85.4888 429.968C85.524 430.106 85.5593 430.244 85.5945 430.383C85.6298 430.521 85.665 430.659 85.7002 430.797C85.7354 430.935 85.7706 431.074 85.8058 431.212C85.8409 431.35 85.8761 431.488 85.9112 431.626C85.9464 431.763 85.9815 431.901 86.0166 432.039C86.0518 432.177 86.0869 432.315 86.122 432.452C86.157 432.59 86.1921 432.728 86.2272 432.865C86.2622 433.003 86.2973 433.14 86.3323 433.278C86.3673 433.415 86.4023 433.553 86.4373 433.69C86.4723 433.827 86.5073 433.964 86.5422 434.102C86.5772 434.239 86.6121 434.376 86.647 434.513C86.6819 434.65 86.7168 434.787 86.7517 434.924C86.7866 435.061 86.8215 435.197 86.8563 435.334C86.8911 435.471 86.926 435.607 86.9608 435.744C86.9956 435.881 87.0304 436.017 87.0651 436.154C87.0999 436.29 87.1347 436.426 87.1694 436.563C87.2041 436.699 87.2388 436.835 87.2735 436.971C87.3082 437.107 87.3429 437.243 87.3775 437.379C87.4122 437.515 87.4468 437.651 87.4814 437.787C87.516 437.923 87.5506 438.058 87.5851 438.194C87.6197 438.33 87.6543 438.465 87.6888 438.601C87.7233 438.736 87.7578 438.872 87.7923 439.007C87.8267 439.142 87.8612 439.277 87.8956 439.412C87.93 439.548 87.9644 439.683 87.9988 439.817C88.0332 439.952 88.0676 440.087 88.1019 440.222C88.1362 440.357 88.1705 440.491 88.2048 440.626C88.2391 440.76 88.2734 440.895 88.3076 441.029C88.3419 441.164 88.3761 441.298 88.4103 441.432C88.4445 441.566 88.4786 441.7 88.5128 441.834C88.5469 441.968 88.581 442.102 88.6151 442.236C88.6492 442.369 88.6832 442.503 88.7173 442.637C88.7513 442.77 88.7853 442.904 88.8193 443.037C88.8533 443.17 88.8872 443.304 88.9212 443.437C88.9551 443.57 88.989 443.703 89.0229 443.836C89.0567 443.969 89.0906 444.102 89.1244 444.234C89.1582 444.367 89.192 444.5 89.2258 444.632C89.2595 444.765 89.2933 444.897 89.327 445.029C89.3607 445.161 89.3944 445.294 89.428 445.426C89.4616 445.558 89.4953 445.69 89.5289 445.821C89.5624 445.953 89.596 446.085 89.6295 446.216C89.6631 446.348 89.6966 446.479 89.73 446.611C89.7635 446.742 89.7969 446.873 89.8303 447.004C89.8637 447.136 89.8971 447.267 89.9305 447.397C89.9638 447.528 89.9971 447.659 90.0304 447.79C90.0637 447.92 90.0969 448.051 90.1301 448.181C90.1634 448.311 90.1965 448.442 90.2297 448.572C90.2628 448.702 90.296 448.832 90.3291 448.961C90.3621 449.091 90.3952 449.221 90.4282 449.351C90.4612 449.48 90.4942 449.61 90.5272 449.739C90.5601 449.868 90.593 449.997 90.6259 450.126C90.6588 450.256 90.6917 450.384 90.7245 450.513C90.7573 450.642 90.7901 450.771 90.8228 450.899C90.8556 451.028 90.8883 451.156 90.921 451.284C90.9536 451.412 90.9863 451.541 91.0189 451.668C91.0515 451.796 91.0841 451.924 91.1166 452.052C91.1491 452.18 91.1816 452.307 91.2141 452.434C91.2465 452.562 91.279 452.689 91.3114 452.816C91.3437 452.943 91.3761 453.07 91.4084 453.197C91.4407 453.324 91.473 453.45 91.5052 453.577C91.5375 453.703 91.5696 453.83 91.6018 453.956C91.634 454.082 91.6661 454.208 91.6982 454.334C91.7302 454.46 91.7623 454.586 91.7943 454.711C91.8263 454.837 91.8583 454.962 91.8902 455.088C91.9221 455.213 91.954 455.338 91.9858 455.463C92.0177 455.588 92.0495 455.713 92.0813 455.837C92.113 455.962 92.1447 456.086 92.1764 456.211C92.2081 456.335 92.2398 456.459 92.2714 456.583C92.303 456.707 92.3345 456.831 92.366 456.955C92.3975 457.078 92.429 457.202 92.4605 457.325C92.4919 457.449 92.5233 457.572 92.5546 457.695C92.586 457.818 92.6173 457.941 92.6485 458.063C92.6798 458.186 92.711 458.309 92.7422 458.431C92.7734 458.553 92.8045 458.675 92.8356 458.797C92.8667 458.919 92.8977 459.041 92.9287 459.163C92.9597 459.285 92.9907 459.406 93.0216 459.527C93.0525 459.649 93.0834 459.77 93.1142 459.891C93.145 460.012 93.1758 460.132 93.2065 460.253C93.2373 460.374 93.268 460.494 93.2986 460.614C93.3292 460.735 93.3598 460.855 93.3904 460.974C93.4209 461.094 93.4514 461.214 93.4819 461.334C93.5123 461.453 93.5428 461.572 93.5731 461.692C93.6035 461.811 93.6338 461.93 93.6641 462.048C93.6943 462.167 93.7245 462.286 93.7547 462.404C93.7849 462.523 93.815 462.641 93.8451 462.759C93.8751 462.877 93.9052 462.995 93.9351 463.112C93.9651 463.23 93.9951 463.347 94.0249 463.464C94.0548 463.582 94.0846 463.699 94.1144 463.816C94.1442 463.933 94.1739 464.049 94.2036 464.166C94.2333 464.282 94.2629 464.398 94.2925 464.514C94.3221 464.63 94.3516 464.746 94.3811 464.862C94.4106 464.978 94.44 465.093 94.4694 465.208C94.4987 465.324 94.528 465.439 94.5573 465.554C94.5866 465.669 94.6158 465.783 94.645 465.898C94.6741 466.012 94.7033 466.126 94.7323 466.24C94.7614 466.354 94.7904 466.468 94.8194 466.582C94.8483 466.696 94.8772 466.809 94.9061 466.922C94.9349 467.035 94.9637 467.148 94.9925 467.261C95.0212 467.374 95.0499 467.487 95.0785 467.599C95.1072 467.711 95.1357 467.823 95.1643 467.935C95.1928 468.047 95.2213 468.159 95.2497 468.27C95.2781 468.382 95.3064 468.493 95.3347 468.604C95.3631 468.715 95.3913 468.826 95.4195 468.937C95.4477 469.048 95.4758 469.158 95.5039 469.268C95.532 469.378 95.56 469.488 95.588 469.598C95.6159 469.708 95.6439 469.817 95.6717 469.927C95.6996 470.036 95.7274 470.145 95.7551 470.254C95.7828 470.363 95.8105 470.471 95.8381 470.58C95.8658 470.688 95.8933 470.796 95.9208 470.904C95.9483 471.012 95.9758 471.12 96.0032 471.227C96.0306 471.335 96.0579 471.442 96.0852 471.549C96.1124 471.656 96.1396 471.763 96.1668 471.869C96.1939 471.976 96.221 472.082 96.2481 472.188C96.2751 472.294 96.3021 472.4 96.329 472.506C96.3559 472.611 96.3827 472.717 96.4095 472.822C96.4363 472.927 96.463 473.032 96.4897 473.137C96.5164 473.241 96.543 473.346 96.5695 473.45C96.5961 473.554 96.6225 473.658 96.649 473.761C96.6754 473.865 96.7017 473.969 96.728 474.072C96.7543 474.175 96.7806 474.278 96.8067 474.381C96.8329 474.483 96.859 474.586 96.885 474.688C96.9111 474.79 96.9371 474.892 96.963 474.994C96.9889 475.095 97.0147 475.197 97.0405 475.298C97.0663 475.399 97.092 475.5 97.1177 475.601C97.1433 475.701 97.1689 475.802 97.1945 475.902C97.22 476.002 97.2454 476.102 97.2708 476.202C97.2962 476.301 97.3216 476.401 97.3468 476.5C97.3721 476.599 97.3973 476.698 97.4224 476.797C97.4475 476.895 97.4726 476.994 97.4976 477.092C97.5226 477.19 97.5475 477.288 97.5724 477.385C97.5973 477.483 97.6221 477.58 97.6468 477.677C97.6715 477.774 97.6962 477.871 97.7208 477.967C97.7454 478.064 97.7699 478.16 97.7943 478.256C97.8188 478.352 97.8432 478.448 97.8675 478.543C97.8918 478.639 97.9161 478.734 97.9403 478.829C97.9644 478.924 97.9885 479.018 98.0126 479.112C98.0366 479.207 98.0606 479.301 98.0845 479.395C98.1084 479.488 98.1322 479.582 98.156 479.675C98.1797 479.768 98.2034 479.861 98.227 479.954C98.2507 480.047 98.2742 480.139 98.2977 480.231C98.3212 480.323 98.3446 480.415 98.3679 480.507C98.3912 480.598 98.4145 480.69 98.4377 480.781C98.4609 480.872 98.484 480.962 98.507 481.053C98.5301 481.143 98.553 481.233 98.5759 481.323C98.5988 481.413 98.6217 481.502 98.6444 481.592C98.6671 481.681 98.6898 481.77 98.7124 481.859C98.735 481.947 98.7576 482.036 98.78 482.124C98.8025 482.212 98.8248 482.3 98.8471 482.387C98.8695 482.475 98.8917 482.562 98.9138 482.649C98.936 482.736 98.9581 482.823 98.9801 482.909C99.0021 482.995 99.024 483.081 99.0459 483.167C99.0677 483.253 99.0895 483.338 99.1112 483.423C99.1329 483.509 99.1545 483.593 99.176 483.678C99.1976 483.763 99.2191 483.847 99.2404 483.931C99.2618 484.015 99.2832 484.098 99.3044 484.182C99.3256 484.265 99.3468 484.348 99.3679 484.431C99.3889 484.513 99.4099 484.596 99.4309 484.678C99.4518 484.76 99.4726 484.842 99.4934 484.923C99.5142 485.005 99.5349 485.086 99.5555 485.167C99.5761 485.248 99.5966 485.328 99.617 485.409C99.6375 485.489 99.6579 485.569 99.6781 485.648C99.6984 485.728 99.7186 485.807 99.7388 485.886C99.7589 485.965 99.7789 486.044 99.7989 486.122C99.8189 486.2 99.8387 486.279 99.8585 486.356C99.8783 486.434 99.8981 486.511 99.9177 486.588C99.9373 486.665 99.9569 486.742 99.9764 486.819C99.9958 486.895 100.015 486.971 100.035 487.047C100.054 487.123 100.073 487.198 100.092 487.273C100.111 487.348 100.13 487.423 100.149 487.498C100.168 487.572 100.187 487.646 100.206 487.72C100.225 487.794 100.244 487.867 100.262 487.94C100.281 488.014 100.299 488.086 100.318 488.159C100.336 488.231 100.355 488.303 100.373 488.375C100.391 488.447 100.41 488.519 100.428 488.59C100.446 488.661 100.464 488.732 100.482 488.802C100.5 488.873 100.518 488.943 100.535 489.012C100.553 489.082 100.571 489.152 100.589 489.221C100.606 489.29 100.624 489.359 100.641 489.427C100.659 489.495 100.676 489.564 100.693 489.631C100.71 489.699 100.728 489.766 100.745 489.833C100.762 489.901 100.779 489.967 100.796 490.034C100.813 490.1 100.829 490.166 100.846 490.232C100.863 490.297 100.879 490.362 100.896 490.427C100.913 490.492 100.929 490.557 100.945 490.621C100.962 490.685 100.978 490.749 100.994 490.813C101.01 490.876 101.027 490.94 101.043 491.002C101.059 491.065 101.075 491.128 101.09 491.19C101.106 491.252 101.122 491.314 101.138 491.375C101.153 491.437 101.169 491.498 101.184 491.558C101.2 491.619 101.215 491.679 101.23 491.739C101.246 491.799 101.261 491.859 101.276 491.918C101.291 491.977 101.306 492.036 101.321 492.095C101.336 492.153 101.351 492.211 101.365 492.269C101.38 492.327 101.395 492.384 101.409 492.441C101.424 492.498 101.438 492.555 101.452 492.611C101.467 492.667 101.481 492.723 101.495 492.779C101.509 492.834 101.523 492.889 101.537 492.944C101.551 492.999 101.565 493.053 101.579 493.107C101.593 493.162 101.606 493.215 101.62 493.268C101.634 493.322 101.647 493.375 101.66 493.427C101.674 493.48 101.687 493.532 101.7 493.584C101.714 493.635 101.727 493.687 101.74 493.738C101.753 493.789 101.766 493.839 101.778 493.89C101.791 493.94 101.804 493.99 101.816 494.039C101.829 494.089 101.842 494.138 101.854 494.187C101.866 494.235 101.879 494.284 101.891 494.331C101.903 494.379 101.915 494.427 101.927 494.474C101.939 494.521 101.951 494.568 101.963 494.614C101.975 494.661 101.987 494.707 101.998 494.752C102.01 494.798 102.021 494.843 102.033 494.888C102.044 494.933 102.055 494.977 102.067 495.021C102.078 495.065 102.089 495.108 102.1 495.152C102.111 495.195 102.122 495.238 102.133 495.28C102.143 495.322 102.154 495.364 102.165 495.406C102.175 495.448 102.186 495.489 102.196 495.53C102.207 495.57 102.217 495.611 102.227 495.651C102.237 495.691 102.247 495.73 102.257 495.769C102.267 495.809 102.277 495.847 102.287 495.886C102.297 495.924 102.306 495.962 102.316 496C102.326 496.037 102.335 496.074 102.344 496.111C102.354 496.148 102.363 496.184 102.372 496.22C102.381 496.256 102.39 496.291 102.399 496.326L104.324 495.784C104.315 495.749 104.306 495.713 104.297 495.677C104.288 495.642 104.279 495.605 104.269 495.569C104.26 495.532 104.251 495.495 104.241 495.457C104.231 495.42 104.222 495.382 104.212 495.343C104.202 495.305 104.192 495.266 104.182 495.227C104.172 495.188 104.162 495.148 104.152 495.108C104.142 495.068 104.132 495.028 104.121 494.987C104.111 494.946 104.1 494.905 104.09 494.864C104.079 494.822 104.069 494.78 104.058 494.738C104.047 494.695 104.036 494.652 104.025 494.609C104.014 494.566 104.003 494.523 103.992 494.479C103.98 494.435 103.969 494.39 103.958 494.345C103.946 494.301 103.935 494.255 103.923 494.21C103.912 494.164 103.9 494.118 103.888 494.072C103.876 494.026 103.864 493.979 103.852 493.932C103.84 493.885 103.828 493.837 103.816 493.789C103.804 493.741 103.791 493.693 103.779 493.644C103.767 493.595 103.754 493.546 103.742 493.497C103.729 493.447 103.716 493.398 103.703 493.347C103.691 493.297 103.678 493.246 103.665 493.195C103.652 493.144 103.639 493.093 103.625 493.041C103.612 492.99 103.599 492.937 103.586 492.885C103.572 492.832 103.559 492.779 103.545 492.726C103.532 492.673 103.518 492.619 103.504 492.565C103.49 492.511 103.476 492.457 103.462 492.402C103.449 492.347 103.434 492.292 103.42 492.236C103.406 492.181 103.392 492.125 103.378 492.069C103.363 492.012 103.349 491.956 103.334 491.899C103.32 491.842 103.305 491.784 103.29 491.727C103.276 491.669 103.261 491.611 103.246 491.552C103.231 491.494 103.216 491.435 103.201 491.376C103.186 491.316 103.171 491.257 103.155 491.197C103.14 491.137 103.125 491.077 103.109 491.016C103.094 490.955 103.078 490.894 103.063 490.833C103.047 490.771 103.031 490.71 103.015 490.647C103 490.585 102.984 490.523 102.968 490.46C102.952 490.397 102.936 490.334 102.919 490.271C102.903 490.207 102.887 490.143 102.87 490.079C102.854 490.015 102.838 489.95 102.821 489.885C102.805 489.82 102.788 489.755 102.771 489.689C102.754 489.624 102.738 489.558 102.721 489.491C102.704 489.425 102.687 489.358 102.67 489.291C102.653 489.224 102.635 489.157 102.618 489.089C102.601 489.021 102.584 488.953 102.566 488.885C102.549 488.816 102.531 488.748 102.514 488.678C102.496 488.609 102.478 488.54 102.461 488.47C102.443 488.4 102.425 488.33 102.407 488.26C102.389 488.189 102.371 488.118 102.353 488.047C102.335 487.976 102.316 487.905 102.298 487.833C102.28 487.761 102.261 487.689 102.243 487.616C102.224 487.544 102.206 487.471 102.187 487.398C102.169 487.325 102.15 487.251 102.131 487.178C102.112 487.104 102.093 487.03 102.074 486.955C102.055 486.881 102.036 486.806 102.017 486.731C101.998 486.656 101.979 486.58 101.96 486.504C101.94 486.429 101.921 486.353 101.901 486.276C101.882 486.2 101.862 486.123 101.843 486.046C101.823 485.969 101.803 485.892 101.784 485.814C101.764 485.736 101.744 485.658 101.724 485.58C101.704 485.501 101.684 485.423 101.664 485.344C101.644 485.265 101.623 485.186 101.603 485.106C101.583 485.026 101.563 484.946 101.542 484.866C101.522 484.786 101.501 484.705 101.481 484.624C101.46 484.544 101.439 484.462 101.418 484.381C101.398 484.299 101.377 484.218 101.356 484.136C101.335 484.053 101.314 483.971 101.293 483.888C101.272 483.806 101.251 483.723 101.229 483.639C101.208 483.556 101.187 483.472 101.166 483.388C101.144 483.304 101.123 483.22 101.101 483.136C101.08 483.051 101.058 482.966 101.036 482.881C101.015 482.796 100.993 482.71 100.971 482.625C100.949 482.539 100.927 482.453 100.905 482.367C100.883 482.28 100.861 482.194 100.839 482.107C100.817 482.02 100.795 481.933 100.772 481.845C100.75 481.757 100.728 481.67 100.705 481.582C100.683 481.493 100.66 481.405 100.637 481.316C100.615 481.228 100.592 481.139 100.569 481.049C100.547 480.96 100.524 480.871 100.501 480.781C100.478 480.691 100.455 480.601 100.432 480.51C100.409 480.42 100.386 480.329 100.363 480.238C100.34 480.147 100.316 480.056 100.293 479.964C100.27 479.873 100.246 479.781 100.223 479.689C100.199 479.597 100.176 479.504 100.152 479.412C100.128 479.319 100.105 479.226 100.081 479.133C100.057 479.04 100.033 478.946 100.01 478.852C99.9856 478.758 99.9617 478.664 99.9376 478.57C99.9136 478.476 99.8895 478.381 99.8653 478.286C99.8411 478.191 99.8169 478.096 99.7926 478.001C99.7682 477.905 99.7439 477.81 99.7194 477.714C99.6949 477.618 99.6704 477.521 99.6458 477.425C99.6212 477.328 99.5966 477.232 99.5718 477.135C99.5471 477.038 99.5223 476.94 99.4975 476.843C99.4726 476.745 99.4477 476.647 99.4227 476.549C99.3977 476.451 99.3726 476.353 99.3475 476.254C99.3223 476.156 99.2971 476.057 99.2719 475.958C99.2466 475.858 99.2213 475.759 99.1959 475.659C99.1705 475.56 99.145 475.46 99.1195 475.36C99.094 475.26 99.0684 475.159 99.0427 475.058C99.0171 474.958 98.9914 474.857 98.9656 474.756C98.9398 474.654 98.9139 474.553 98.888 474.451C98.8621 474.35 98.8361 474.248 98.8101 474.145C98.7841 474.043 98.758 473.941 98.7318 473.838C98.7056 473.736 98.6794 473.633 98.6531 473.529C98.6268 473.426 98.6004 473.323 98.574 473.219C98.5476 473.115 98.5211 473.012 98.4946 472.907C98.468 472.803 98.4414 472.699 98.4148 472.594C98.3881 472.49 98.3614 472.385 98.3346 472.28C98.3078 472.174 98.2809 472.069 98.254 471.963C98.2271 471.858 98.2002 471.752 98.1731 471.646C98.1461 471.54 98.119 471.434 98.0919 471.327C98.0647 471.22 98.0375 471.114 98.0102 471.007C97.9829 470.9 97.9556 470.792 97.9282 470.685C97.9008 470.577 97.8734 470.47 97.8459 470.362C97.8184 470.254 97.7908 470.146 97.7632 470.037C97.7356 469.929 97.7079 469.82 97.6802 469.711C97.6524 469.603 97.6246 469.494 97.5968 469.384C97.5689 469.275 97.541 469.165 97.513 469.056C97.4851 468.946 97.457 468.836 97.429 468.726C97.4009 468.616 97.3727 468.505 97.3446 468.395C97.3164 468.284 97.2881 468.173 97.2598 468.062C97.2315 467.951 97.2031 467.84 97.1747 467.728C97.1463 467.617 97.1178 467.505 97.0893 467.393C97.0608 467.281 97.0322 467.169 97.0036 467.057C96.9749 466.944 96.9463 466.832 96.9175 466.719C96.8888 466.606 96.86 466.493 96.8311 466.38C96.8023 466.267 96.7734 466.153 96.7444 466.04C96.7155 465.926 96.6864 465.812 96.6574 465.698C96.6283 465.584 96.5992 465.47 96.57 465.355C96.5409 465.241 96.5116 465.126 96.4824 465.011C96.4531 464.896 96.4238 464.781 96.3944 464.666C96.365 464.551 96.3356 464.435 96.3061 464.32C96.2767 464.204 96.2471 464.088 96.2175 463.972C96.188 463.856 96.1583 463.74 96.1287 463.623C96.099 463.507 96.0693 463.39 96.0395 463.273C96.0097 463.156 95.9799 463.039 95.95 462.922C95.9201 462.805 95.8902 462.687 95.8602 462.57C95.8302 462.452 95.8002 462.334 95.7701 462.216C95.7401 462.098 95.7099 461.98 95.6798 461.862C95.6496 461.743 95.6194 461.625 95.5891 461.506C95.5588 461.387 95.5285 461.268 95.4982 461.149C95.4678 461.03 95.4374 460.911 95.4069 460.791C95.3765 460.672 95.346 460.552 95.3154 460.432C95.2849 460.312 95.2543 460.192 95.2237 460.072C95.193 459.952 95.1623 459.831 95.1316 459.711C95.1009 459.59 95.0701 459.469 95.0393 459.348C95.0084 459.227 94.9776 459.106 94.9467 458.985C94.9158 458.864 94.8848 458.742 94.8538 458.621C94.8228 458.499 94.7918 458.377 94.7607 458.255C94.7296 458.133 94.6984 458.011 94.6673 457.889C94.6361 457.766 94.6049 457.644 94.5736 457.521C94.5423 457.398 94.511 457.276 94.4797 457.153C94.4483 457.03 94.4169 456.906 94.3855 456.783C94.3541 456.66 94.3226 456.536 94.2911 456.412C94.2596 456.289 94.228 456.165 94.1964 456.041C94.1648 455.917 94.1332 455.793 94.1015 455.668C94.0698 455.544 94.0381 455.42 94.0063 455.295C93.9745 455.17 93.9427 455.046 93.9109 454.921C93.8791 454.796 93.8472 454.67 93.8152 454.545C93.7833 454.42 93.7514 454.294 93.7194 454.169C93.6873 454.043 93.6553 453.918 93.6232 453.792C93.5911 453.666 93.559 453.54 93.5269 453.414C93.4947 453.287 93.4625 453.161 93.4303 453.035C93.398 452.908 93.3658 452.781 93.3335 452.655C93.3011 452.528 93.2688 452.401 93.2364 452.274C93.204 452.147 93.1716 452.019 93.1391 451.892C93.1067 451.765 93.0742 451.637 93.0417 451.51C93.0091 451.382 92.9766 451.254 92.9439 451.126C92.9113 450.998 92.8787 450.87 92.846 450.742C92.8133 450.614 92.7806 450.485 92.7479 450.357C92.7151 450.228 92.6824 450.1 92.6495 449.971C92.6167 449.842 92.5839 449.713 92.551 449.584C92.5181 449.455 92.4852 449.326 92.4522 449.197C92.4193 449.067 92.3863 448.938 92.3533 448.808C92.3203 448.679 92.2872 448.549 92.2541 448.419C92.221 448.289 92.1879 448.159 92.1548 448.029C92.1216 447.899 92.0884 447.769 92.0552 447.639C92.022 447.508 91.9887 447.378 91.9554 447.247C91.9222 447.117 91.8889 446.986 91.8555 446.855C91.8222 446.724 91.7888 446.593 91.7554 446.462C91.722 446.331 91.6885 446.2 91.6551 446.068C91.6216 445.937 91.5881 445.806 91.5546 445.674C91.5211 445.543 91.4875 445.411 91.4539 445.279C91.4203 445.147 91.3867 445.015 91.3531 444.883C91.3194 444.751 91.2857 444.619 91.252 444.487C91.2183 444.355 91.1846 444.222 91.1508 444.09C91.1171 443.957 91.0833 443.825 91.0495 443.692C91.0156 443.559 90.9818 443.426 90.9479 443.294C90.9141 443.161 90.8801 443.028 90.8462 442.894C90.8123 442.761 90.7783 442.628 90.7444 442.495C90.7104 442.361 90.6764 442.228 90.6423 442.094C90.6083 441.961 90.5742 441.827 90.5401 441.693C90.5061 441.56 90.4719 441.426 90.4378 441.292C90.4037 441.158 90.3695 441.024 90.3353 440.89C90.3011 440.755 90.2669 440.621 90.2327 440.487C90.1984 440.352 90.1642 440.218 90.1299 440.083C90.0956 439.949 90.0613 439.814 90.027 439.68C89.9926 439.545 89.9583 439.41 89.9239 439.275C89.8895 439.14 89.8551 439.005 89.8207 438.87C89.7862 438.735 89.7518 438.6 89.7173 438.464C89.6828 438.329 89.6483 438.194 89.6138 438.058C89.5793 437.923 89.5448 437.787 89.5102 437.652C89.4756 437.516 89.4411 437.38 89.4065 437.245C89.3718 437.109 89.3372 436.973 89.3026 436.837C89.2679 436.701 89.2333 436.565 89.1986 436.429C89.1639 436.293 89.1292 436.157 89.0944 436.02C89.0597 435.884 89.025 435.748 88.9902 435.611C88.9554 435.475 88.9206 435.338 88.8858 435.202C88.851 435.065 88.8162 434.928 88.7814 434.792C88.7465 434.655 88.7117 434.518 88.6768 434.381C88.6419 434.244 88.607 434.107 88.5721 433.97C88.5372 433.833 88.5022 433.696 88.4673 433.559C88.4323 433.422 88.3973 433.285 88.3624 433.147C88.3274 433.01 88.2924 432.873 88.2573 432.735C88.2223 432.598 88.1873 432.46 88.1522 432.323C88.1172 432.185 88.0821 432.048 88.047 431.91C88.0119 431.772 87.9768 431.635 87.9417 431.497C87.9066 431.359 87.8715 431.221 87.8363 431.083C87.8012 430.945 87.766 430.807 87.7308 430.669C87.6956 430.531 87.6604 430.393 87.6252 430.255C87.59 430.117 87.5548 429.979 87.5196 429.84C87.4843 429.702 87.4491 429.564 87.4138 429.425C87.3786 429.287 87.3433 429.149 87.308 429.01C87.2727 428.872 87.2374 428.733 87.2021 428.595C87.1668 428.456 87.1315 428.317 87.0961 428.179C87.0608 428.04 87.0255 427.901 86.9901 427.763C86.9547 427.624 86.9194 427.485 86.884 427.346C86.8486 427.207 86.8132 427.068 86.7778 426.93C86.7424 426.791 86.707 426.652 86.6715 426.513C86.6361 426.374 86.6007 426.234 86.5652 426.095C86.5298 425.956 86.4943 425.817 86.4589 425.678C86.4234 425.539 86.3879 425.4 86.3524 425.26C86.317 425.121 86.2815 424.982 86.246 424.843C86.2105 424.703 86.1749 424.564 86.1394 424.424C86.1039 424.285 86.0684 424.146 86.0328 424.006C85.9973 423.867 85.9618 423.727 85.9262 423.588C85.8907 423.448 85.8551 423.309 85.8195 423.169C85.784 423.03 85.7484 422.89 85.7128 422.75C85.6772 422.611 85.6417 422.471 85.6061 422.332C85.5705 422.192 85.5349 422.052 85.4993 421.912C85.4637 421.773 85.4281 421.633 85.3924 421.493C85.3568 421.353 85.3212 421.214 85.2856 421.074C85.25 420.934 85.2143 420.794 85.1787 420.654C85.1431 420.515 85.1074 420.375 85.0718 420.235C85.0361 420.095 85.0005 419.955 84.9648 419.815C84.9292 419.675 84.8935 419.535 84.8579 419.396C84.8222 419.256 84.7866 419.116 84.7509 418.976C84.7152 418.836 84.6796 418.696 84.6439 418.556C84.6082 418.416 84.5726 418.276 84.5369 418.136C84.5012 417.996 84.4655 417.856 84.4299 417.716C84.3942 417.576 84.3585 417.436 84.3228 417.296C84.2871 417.156 84.2515 417.016 84.2158 416.876C84.1801 416.736 84.1444 416.596 84.1087 416.456C84.0731 416.316 84.0374 416.176 84.0017 416.036C83.966 415.896 83.9303 415.756 83.8946 415.616C83.859 415.476 83.8233 415.336 83.7876 415.196C83.7519 415.056 83.7162 414.916 83.6806 414.776C83.6449 414.636 83.6092 414.496 83.5735 414.356C83.5379 414.216 83.5022 414.076 83.4665 413.936C83.4308 413.796 83.3952 413.656 83.3595 413.516C83.3238 413.376 83.2882 413.236 83.2525 413.096C83.2169 412.956 83.1812 412.816 83.1455 412.676C83.1099 412.536 83.0742 412.396 83.0386 412.257C83.003 412.117 82.9673 411.977 82.9317 411.837C82.896 411.697 82.8604 411.557 82.8248 411.417C82.7891 411.278 82.7535 411.138 82.7179 410.998C82.6823 410.858 82.6467 410.719 82.6111 410.579C82.5754 410.439 82.5398 410.299 82.5042 410.16C82.4686 410.02 82.4331 409.88 82.3975 409.741C82.3619 409.601 82.3263 409.461 82.2907 409.322C82.2552 409.182 82.2196 409.043 82.184 408.903C82.1485 408.764 82.1129 408.624 82.0774 408.485C82.0419 408.345 82.0063 408.206 81.9708 408.066C81.9353 407.927 81.8997 407.788 81.8642 407.648C81.8287 407.509 81.7932 407.37 81.7577 407.23C81.7222 407.091 81.6868 406.952 81.6513 406.813C81.6158 406.673 81.5803 406.534 81.5449 406.395C81.5094 406.256 81.474 406.117 81.4385 405.978C81.4031 405.839 81.3677 405.7 81.3323 405.561C81.2969 405.422 81.2615 405.283 81.2261 405.144C81.1907 405.005 81.1553 404.866 81.1199 404.727C81.0845 404.589 81.0492 404.45 81.0138 404.311C80.9785 404.172 80.9432 404.034 80.9078 403.895C80.8725 403.757 80.8372 403.618 80.8019 403.479C80.7666 403.341 80.7313 403.202 80.696 403.064C80.6608 402.926 80.6255 402.787 80.5903 402.649C80.555 402.511 80.5198 402.372 80.4846 402.234C80.4493 402.096 80.4141 401.958 80.379 401.82C80.3438 401.682 80.3086 401.544 80.2734 401.406C80.2383 401.268 80.2031 401.13 80.168 400.992C80.1329 400.854 80.0977 400.716 80.0626 400.579C80.0275 400.441 79.9925 400.303 79.9574 400.165C79.9223 400.028 79.8873 399.89 79.8522 399.753C79.8172 399.615 79.7822 399.478 79.7472 399.341C79.7122 399.203 79.6772 399.066 79.6422 398.929C79.6072 398.792 79.5723 398.654 79.5374 398.517C79.5024 398.38 79.4675 398.243 79.4326 398.106C79.3977 397.969 79.3628 397.832 79.328 397.696C79.2931 397.559 79.2583 397.422 79.2234 397.285C79.1886 397.149 79.1538 397.012 79.119 396.876C79.0842 396.739 79.0495 396.603 79.0147 396.466C78.98 396.33 78.9453 396.194 78.9105 396.058C78.8758 395.921 78.8412 395.785 78.8065 395.649C78.7718 395.513 78.7372 395.377 78.7026 395.241C78.6679 395.106 78.6333 394.97 78.5988 394.834C78.5642 394.698 78.5296 394.563 78.4951 394.427C78.4605 394.292 78.426 394.156 78.3915 394.021C78.357 393.886 78.3226 393.75 78.2881 393.615C78.2537 393.48 78.2192 393.345 78.1848 393.21C78.1504 393.075 78.1161 392.94 78.0817 392.805C78.0473 392.67 78.013 392.536 77.9787 392.401C77.9444 392.266 77.9101 392.132 77.8758 391.997C77.8416 391.863 77.8074 391.729 77.7731 391.594C77.7389 391.46 77.7047 391.326 77.6706 391.192C77.6364 391.058 77.6023 390.924 77.5682 390.79C77.5341 390.656 77.5 390.522 77.4659 390.389C77.4319 390.255 77.3978 390.122 77.3638 389.988C77.3298 389.855 77.2959 389.721 77.2619 389.588C77.2279 389.455 77.194 389.322 77.1601 389.189C77.1262 389.056 77.0924 388.923 77.0585 388.79C77.0247 388.657 76.9909 388.525 76.9571 388.392C76.9233 388.259 76.8895 388.127 76.8558 387.995C76.8221 387.862 76.7884 387.73 76.7547 387.598C76.721 387.466 76.6874 387.334 76.6538 387.202C76.6201 387.07 76.5866 386.938 76.553 386.806C76.5195 386.675 76.4859 386.543 76.4524 386.412C76.4189 386.28 76.3855 386.149 76.352 386.018C76.3186 385.887 76.2852 385.756 76.2518 385.625C76.2185 385.494 76.1851 385.363 76.1518 385.232C76.1185 385.101 76.0852 384.971 76.052 384.84C76.0187 384.71 75.9855 384.58 75.9523 384.449C75.9192 384.319 75.886 384.189 75.8529 384.059C75.8198 383.929 75.7867 383.799 75.7537 383.67C75.7206 383.54 75.6876 383.41 75.6546 383.281C75.6216 383.152 75.5887 383.022 75.5558 382.893C75.5228 382.764 75.49 382.635 75.4571 382.506C75.4243 382.377 75.3914 382.248 75.3587 382.12C75.3259 381.991 75.2932 381.863 75.2604 381.734C75.2277 381.606 75.1951 381.478 75.1624 381.35C75.1298 381.222 75.0972 381.094 75.0646 380.966C75.0321 380.838 74.9995 380.71 74.967 380.583C74.9345 380.455 74.9021 380.328 74.8697 380.201C74.8373 380.074 74.8049 379.947 74.7725 379.82C74.7402 379.693 74.7079 379.566 74.6756 379.439C74.6433 379.313 74.6111 379.186 74.5789 379.06C74.5467 378.934 74.5146 378.807 74.4825 378.681C74.4503 378.555 74.4183 378.429 74.3862 378.304C74.3542 378.178 74.3222 378.052 74.2902 377.927C74.2583 377.802 74.2263 377.676 74.1945 377.551C74.1626 377.426 74.1307 377.301 74.0989 377.176C74.0671 377.052 74.0354 376.927 74.0037 376.803C73.972 376.678 73.9403 376.554 73.9086 376.43C73.877 376.305 73.8454 376.181 73.8139 376.058C73.7823 375.934 73.7508 375.81 73.7193 375.687C73.6878 375.563 73.6564 375.44 73.625 375.317C73.5936 375.194 73.5623 375.071 73.531 374.948C73.4997 374.825 73.4684 374.702 73.4372 374.58C73.406 374.457 73.3748 374.335 73.3437 374.213C73.3126 374.091 73.2815 373.969 73.2505 373.847C73.2194 373.725 73.1884 373.603 73.1575 373.482C73.1265 373.36 73.0956 373.239 73.0647 373.118C73.0339 372.997 73.0031 372.876 72.9723 372.755C72.9415 372.635 72.9108 372.514 72.8801 372.394C72.8494 372.273 72.8188 372.153 72.7882 372.033C72.7576 371.913 72.7271 371.793 72.6966 371.673C72.6661 371.554 72.6356 371.434 72.6052 371.315C72.5748 371.196 72.5445 371.077 72.5142 370.958C72.4839 370.839 72.4536 370.72 72.4234 370.601C72.3932 370.483 72.363 370.364 72.3329 370.246C72.3028 370.128 72.2727 370.01 72.2427 369.892C72.2127 369.774 72.1827 369.657 72.1528 369.539C72.1229 369.422 72.093 369.305 72.0632 369.188C72.0333 369.071 72.0036 368.954 71.9738 368.837C71.9441 368.721 71.9145 368.604 71.8848 368.488C71.8552 368.372 71.8256 368.256 71.7961 368.14C71.7666 368.024 71.7371 367.908 71.7077 367.793C71.6783 367.677 71.6489 367.562 71.6196 367.447C71.5903 367.332 71.561 367.217 71.5318 367.103C71.5026 366.988 71.4734 366.874 71.4443 366.759C71.4152 366.645 71.3861 366.531 71.3571 366.417C71.3281 366.303 71.2992 366.19 71.2703 366.076C71.2414 365.963 71.2126 365.85 71.1838 365.737C71.155 365.624 71.1262 365.511 71.0976 365.399C71.0689 365.286 71.0402 365.174 71.0117 365.062C70.9831 364.949 70.9546 364.838 70.9261 364.726C70.8976 364.614 70.8692 364.503 70.8409 364.391C70.8125 364.28 70.7842 364.169 70.756 364.058C70.7277 363.947 70.6996 363.837 70.6714 363.726C70.6433 363.616 70.6152 363.506 70.5872 363.396C70.5592 363.286 70.5312 363.176 70.5033 363.067C70.4754 362.957 70.4476 362.848 70.4198 362.739C70.392 362.63 70.3643 362.521 70.3366 362.413C70.3089 362.304 70.2813 362.196 70.2537 362.087C70.2262 361.979 70.1987 361.871 70.1712 361.764C70.1438 361.656 70.1164 361.549 70.0891 361.441C70.0618 361.334 70.0345 361.227 70.0073 361.12C69.9801 361.014 69.953 360.907 69.9259 360.801C69.8988 360.695 69.8718 360.589 69.8448 360.483C69.8178 360.377 69.7909 360.271 69.7641 360.166C69.7373 360.061 69.7105 359.956 69.6838 359.851C69.657 359.746 69.6304 359.641 69.6038 359.537C69.5772 359.433 69.5506 359.328 69.5242 359.225C69.4977 359.121 69.4713 359.017 69.4449 358.914C69.4186 358.81 69.3923 358.707 69.3661 358.604C69.3399 358.501 69.3137 358.399 69.2876 358.296C69.2615 358.194 69.2355 358.092 69.2095 357.99C69.1835 357.888 69.1576 357.786 69.1318 357.685C69.1059 357.583 69.0802 357.482 69.0544 357.381C69.0287 357.28 69.0031 357.18 68.9775 357.079C68.9519 356.979 68.9264 356.879 68.9009 356.779C68.8755 356.679 68.8501 356.579 68.8248 356.48C68.7995 356.381 68.7742 356.282 68.749 356.183C68.7238 356.084 68.6987 355.985 68.6737 355.887C68.6486 355.789 68.6236 355.691 68.5987 355.593C68.5738 355.495 68.5489 355.397 68.5241 355.3C68.4993 355.203 68.4746 355.106 68.45 355.009C68.4253 354.912 68.4007 354.816 68.3762 354.72C68.3517 354.624 68.3272 354.528 68.3029 354.432C68.2785 354.336 68.2542 354.241 68.2299 354.146C68.2057 354.051 68.1815 353.956 68.1574 353.861C68.1333 353.767 68.1093 353.672 68.0853 353.578C68.0614 353.484 68.0375 353.391 68.0136 353.297C67.9898 353.204 67.9661 353.11 67.9424 353.017C67.9187 352.924 67.8951 352.832 67.8716 352.739C67.848 352.647 67.8246 352.555 67.8012 352.463C67.7778 352.371 67.7544 352.28 67.7312 352.189C67.7079 352.097 67.6848 352.006 67.6617 351.916C67.6385 351.825 67.6155 351.735 67.5926 351.645C67.5696 351.555 67.5467 351.465 67.5239 351.375C67.5011 351.286 67.4783 351.196 67.4557 351.107C67.433 351.019 67.4104 350.93 67.3879 350.841C67.3654 350.753 67.3429 350.665 67.3206 350.577C67.2982 350.489 67.2759 350.402 67.2537 350.315C67.2314 350.228 67.2093 350.141 67.1872 350.054C67.1652 349.967 67.1432 349.881 67.1212 349.795C67.0993 349.709 67.0775 349.623 67.0557 349.538C67.034 349.453 67.0123 349.368 66.9907 349.283C66.969 349.198 66.9475 349.113 66.926 349.029C66.9046 348.945 66.8832 348.861 66.8619 348.777C66.8406 348.694 66.8194 348.611 66.7982 348.528C66.7771 348.445 66.756 348.362 66.735 348.28C66.714 348.197 66.6931 348.115 66.6723 348.033C66.6514 347.952 66.6307 347.87 66.61 347.789C66.5893 347.708 66.5687 347.627 66.5482 347.547C66.5277 347.466 66.5072 347.386 66.4869 347.306C66.4665 347.226 66.4463 347.146 66.4261 347.067C66.4059 346.988 66.3857 346.909 66.3657 346.83C66.3457 346.752 66.3257 346.673 66.3058 346.595C66.286 346.517 66.2662 346.44 66.2465 346.362C66.2268 346.285 66.2071 346.208 66.1876 346.131C66.168 346.055 66.1486 345.978 66.1292 345.902C66.1098 345.826 66.0905 345.75 66.0713 345.675C66.0521 345.6 66.0329 345.525 66.0139 345.45C65.9948 345.375 65.9759 345.301 65.957 345.227C65.9381 345.152 65.9193 345.079 65.9006 345.005C65.8819 344.932 65.8633 344.859 65.8447 344.786C65.8262 344.713 65.8077 344.641 65.7893 344.569C65.771 344.497 65.7527 344.425 65.7345 344.353C65.7163 344.282 65.6981 344.211 65.6801 344.14C65.6621 344.069 65.6441 343.999 65.6263 343.929C65.6084 343.859 65.5906 343.789 65.573 343.72C65.5553 343.65 65.5377 343.581 65.5202 343.512C65.5026 343.444 65.4852 343.375 65.4679 343.307C65.4505 343.239 65.4333 343.171 65.4161 343.104C65.399 343.037 65.3819 342.97 65.3649 342.903C65.3479 342.836 65.331 342.77 65.3142 342.704C65.2974 342.638 65.2807 342.573 65.2641 342.507C65.2474 342.442 65.2309 342.377 65.2144 342.313C65.198 342.248 65.1816 342.184 65.1653 342.12C65.1491 342.056 65.1329 341.993 65.1168 341.93C65.1007 341.866 65.0847 341.804 65.0688 341.741C65.0529 341.679 65.0371 341.617 65.0214 341.555C65.0056 341.493 64.99 341.432 64.9744 341.371C64.9589 341.31 64.9435 341.249 64.9281 341.189C64.9127 341.129 64.8975 341.069 64.8823 341.009C64.8671 340.95 64.852 340.891 64.837 340.832C64.8221 340.773 64.8072 340.714 64.7924 340.656C64.7776 340.598 64.7629 340.541 64.7482 340.483C64.7336 340.426 64.7191 340.369 64.7047 340.312C64.6903 340.256 64.6759 340.199 64.6617 340.144C64.6474 340.088 64.6333 340.032 64.6193 339.977C64.6052 339.922 64.5913 339.867 64.5774 339.813C64.5635 339.758 64.5498 339.704 64.5361 339.651C64.5225 339.597 64.5089 339.544 64.4954 339.491C64.4819 339.438 64.4686 339.386 64.4553 339.334C64.442 339.282 64.4288 339.23 64.4157 339.179C64.4027 339.127 64.3897 339.076 64.3768 339.026C64.3639 338.975 64.3511 338.925 64.3384 338.875C64.3257 338.825 64.3131 338.776 64.3006 338.727C64.2881 338.678 64.2757 338.629 64.2634 338.581C64.2511 338.533 64.2389 338.485 64.2268 338.437C64.2147 338.39 64.2027 338.343 64.1908 338.296C64.1789 338.249 64.1671 338.203 64.1554 338.157C64.1437 338.111 64.1321 338.066 64.1206 338.02C64.1091 337.975 64.0977 337.931 64.0864 337.886C64.0751 337.842 64.0639 337.798 64.0528 337.754C64.0417 337.711 64.0307 337.668 64.0198 337.625C64.0089 337.582 63.9981 337.54 63.9875 337.498C63.9768 337.456 63.9662 337.414 63.9557 337.373C63.9452 337.332 63.9348 337.291 63.9246 337.251C63.9143 337.211 63.9041 337.171 63.894 337.131C63.884 337.092 63.874 337.053 63.8641 337.014C63.8543 336.975 63.8445 336.937 63.8348 336.899C63.8252 336.861 63.8156 336.824 63.8062 336.787C63.7967 336.749 63.7874 336.713 63.7782 336.677C63.7689 336.64 63.7598 336.605 63.7508 336.569C63.7418 336.534 63.7328 336.499 63.724 336.464C63.7152 336.43 63.7065 336.395 63.6979 336.362C63.6893 336.328 63.6808 336.295 63.6724 336.262C63.664 336.229 63.6557 336.196 63.6476 336.164C63.6394 336.132 63.6313 336.1 63.6234 336.069C63.6154 336.038 63.6076 336.007 63.5998 335.977C63.5921 335.946 63.5844 335.916 63.5769 335.887L61.6519 336.429ZM102.399 496.326C102.572 497.005 103.262 497.476 104.007 497.266L103.513 495.328C103.909 495.216 104.245 495.472 104.324 495.784L102.399 496.326ZM103.96 497.278C174.509 481.027 220.682 455.393 252.982 425.144C285.276 394.901 303.63 360.111 318.633 325.695C348.676 256.778 365.263 189.702 452.709 161.762L452.149 159.843C363.625 188.128 346.703 256.361 316.818 324.915C301.856 359.235 283.64 393.722 251.649 423.68C219.665 453.634 173.837 479.128 103.56 495.316L103.96 497.278ZM452.676 161.772C453.091 161.655 453.362 161.356 453.506 161.095C453.651 160.83 453.747 160.458 453.647 160.066L451.722 160.608C451.669 160.399 451.724 160.236 451.774 160.146C451.822 160.059 451.941 159.901 452.182 159.833L452.676 161.772ZM453.647 160.066L442.602 116.725L440.677 117.267L451.722 160.608L453.647 160.066ZM442.602 116.725L412.89 0.132378L410.965 0.674739L440.677 117.267L442.602 116.725ZM412.89 0.132378C412.692 -0.646226 411.921 -1.02648 411.238 -0.834128L411.732 1.10393C411.399 1.19795 411.052 1.01296 410.965 0.674739L412.89 0.132378ZM411.238 -0.834128L375.044 9.36313L375.538 11.3012L411.732 1.10393L411.238 -0.834128ZM376.254 10.061L376.244 10.0243L374.319 10.5667L374.329 10.6033L376.254 10.061Z" fill="white" mask="url(#path-1-inside-1_2033_29)"/>
<path d="M364.071 294.421L478.148 262.281L508.725 382.272L394.648 414.412L364.071 294.421Z" stroke="white"/>
<path d="M6.6853 114.662L120.762 82.5226L151.34 202.513L37.2631 234.653L6.6853 114.662Z" stroke="white"/>
</svg>
