<svg width="1283" height="626" viewBox="0 0 1283 626" fill="none" xmlns="http://www.w3.org/2000/svg">
<path d="M269.847 1.78173C384.573 130.007 518.184 124.427 663.385 118.362C677.397 117.776 691.517 117.186 705.738 116.712C786.728 114.01 871.064 115.025 957.737 141.706C1044.39 168.381 1133.44 220.732 1223.8 320.799L1280.79 384.599L1085.08 559.423L1012.39 624.359C885.314 491.346 755.494 498.918 615.376 507.091C594.972 508.282 574.349 509.484 553.485 510.268C471.263 513.355 385.214 509.956 293.713 473.805C202.393 437.726 105.557 368.986 1.682 241.332L1.85301 241.179L2.0425 241.01L2.23623 240.837L2.43415 240.66L2.63634 240.479L2.84272 240.295L3.05324 240.107L3.26795 239.915L3.48681 239.719L3.7098 239.52L3.9369 239.317L4.16813 239.111L4.40337 238.901L4.64271 238.687L4.8861 238.469L5.13353 238.248L5.38493 238.024L5.64034 237.796L5.8997 237.564L6.16303 237.329L6.43031 237.09L6.70151 236.848L6.97663 236.602L7.25561 236.353L7.53851 236.1L7.82523 235.844L8.11578 235.584L8.41014 235.321L8.70834 235.055L9.01026 234.785L9.31601 234.512L9.62549 234.236L9.9387 233.956L10.2556 233.673L10.5762 233.386L10.9006 233.097L11.2285 232.804L11.5601 232.508L11.8954 232.208L12.2343 231.905L12.5767 231.599L12.9227 231.29L13.2723 230.978L13.6254 230.663L13.9821 230.344L14.3423 230.022L14.7059 229.697L15.0731 229.369L15.4437 229.038L15.8177 228.704L16.1951 228.367L16.576 228.027L16.9602 227.684L17.3479 227.337L17.7388 226.988L18.1331 226.636L18.5307 226.281L18.9317 225.923L19.3359 225.562L19.7434 225.198L20.1541 224.831L20.5681 224.461L20.9852 224.088L21.4056 223.713L21.8292 223.334L22.2559 222.953L22.6857 222.569L23.1187 222.182L23.5548 221.793L23.994 221.4L24.4363 221.005L24.8816 220.608L25.33 220.207L25.7814 219.804L26.2358 219.398L26.6932 218.989L27.1536 218.578L27.6169 218.164L28.0832 217.748L28.5524 217.328L29.0245 216.907L29.4995 216.482L29.9774 216.056L30.4581 215.626L30.9416 215.194L31.428 214.76L31.9171 214.323L32.4091 213.883L32.9038 213.441L33.4013 212.997L33.9015 212.55L34.4044 212.101L34.91 211.649L35.4183 211.195L35.9292 210.739L36.4428 210.28L36.959 209.819L37.4779 209.355L37.9993 208.89L38.5233 208.422L39.0499 207.951L39.579 207.479L40.1107 207.004L40.6448 206.526L41.1814 206.047L41.7206 205.565L42.2621 205.082L42.8061 204.596L43.3525 204.108L43.9014 203.617L44.4526 203.125L45.0062 202.63L45.5621 202.134L46.1204 201.635L46.681 201.134L47.2439 200.632L47.8091 200.127L48.3765 199.62L48.9462 199.111L49.5181 198.6L50.0923 198.087L50.6686 197.572L51.2471 197.055L51.8278 196.537L52.4106 196.016L52.9956 195.494L53.5827 194.969L54.1718 194.443L54.763 193.915L55.3563 193.385L55.9517 192.853L56.5491 192.319L57.1484 191.784L57.7498 191.247L58.3531 190.708L58.9584 190.167L59.5656 189.625L60.1748 189.08L60.7858 188.535L61.3988 187.987L62.0136 187.438L62.6303 186.887L63.2488 186.335L63.869 185.78L64.4912 185.225L65.1151 184.667L65.7407 184.108L66.3682 183.548L66.9973 182.986L67.6282 182.422L68.2607 181.857L68.8949 181.291L69.5308 180.723L70.1684 180.153L70.8076 179.582L71.4483 179.01L72.0907 178.436L72.7347 177.861L73.3802 177.284L74.0272 176.706L74.6758 176.127L75.3259 175.546L75.9775 174.964L76.6305 174.381L77.285 173.796L77.941 173.21L78.5983 172.623L79.2571 172.034L79.9173 171.445L80.5788 170.854L81.2416 170.262L81.9058 169.668L82.5714 169.074L83.2382 168.478L83.9063 167.881L84.5757 167.283L85.2463 166.684L85.9182 166.084L86.5912 165.483L87.2655 164.881L87.9409 164.277L88.6176 163.673L89.2953 163.067L89.9742 162.461L90.6541 161.854L91.3352 161.245L92.0174 160.636L92.7006 160.025L93.3849 159.414L94.0702 158.802L94.7565 158.189L95.4437 157.575L96.132 156.96L96.8212 156.345L97.5113 155.728L98.2024 155.111L98.8944 154.493L99.5872 153.874L100.281 153.254L100.976 152.634L101.671 152.012L102.367 151.39L103.064 150.768L103.762 150.144L104.461 149.52L105.16 148.896L105.86 148.27L106.561 147.644L107.262 147.018L107.964 146.39L108.667 145.763L109.371 145.134L110.075 144.505L110.779 143.876L111.485 143.246L112.19 142.615L112.897 141.984L113.604 141.353L114.311 140.721L115.019 140.088L115.728 139.455L116.437 138.822L117.146 138.188L117.856 137.554L118.566 136.92L119.277 136.285L119.988 135.65L120.699 135.014L121.411 134.379L122.123 133.742L122.836 133.106L123.548 132.469L124.261 131.832L124.975 131.195L125.688 130.558L126.402 129.92L127.116 129.283L127.83 128.645L128.544 128.007L129.259 127.368L129.973 126.73L130.688 126.091L131.403 125.453L132.118 124.814L132.833 124.175L133.548 123.537L134.263 122.898L134.978 122.259L135.694 121.62L136.409 120.981L137.124 120.342L137.839 119.704L138.554 119.065L139.269 118.426L139.984 117.788L140.699 117.149L141.413 116.511L142.128 115.873L142.842 115.235L143.556 114.597L144.27 113.959L144.984 113.321L145.697 112.684L146.41 112.047L147.123 111.41L147.836 110.774L148.548 110.137L149.26 109.501L149.972 108.866L150.683 108.23L151.394 107.595L152.105 106.96L152.815 106.326L153.524 105.692L154.234 105.058L154.943 104.425L155.651 103.792L156.359 103.16L157.066 102.528L157.773 101.897L158.479 101.266L159.185 100.636L159.89 100.006L160.594 99.3764L161.298 98.7476L162.002 98.1194L162.704 97.4918L163.406 96.8647L164.107 96.2383L164.808 95.6124L165.508 94.9873L166.207 94.3628L166.905 93.7389L167.603 93.1157L168.3 92.4933L168.996 91.8716L169.691 91.2506L170.385 90.6303L171.079 90.0108L171.771 89.3921L172.463 88.7743L173.154 88.1571L173.844 87.5409L174.533 86.9255L175.221 86.3109L175.908 85.6972L176.594 85.0844L177.279 84.4725L177.963 83.8615L178.646 83.2514L179.328 82.6424L180.008 82.0342L180.688 81.4271L181.367 80.8209L182.044 80.2158L182.72 79.6116L183.395 79.0086L184.069 78.4065L184.742 77.8056L185.414 77.2057L186.084 76.607L186.753 76.0093L187.421 75.4128L188.087 74.8175L188.752 74.2233L189.416 73.6303L190.079 73.0385L190.74 72.4479L191.399 71.8585L192.058 71.2704L192.715 70.6836L193.37 70.098L194.025 69.5136L194.677 68.9306L195.328 68.349L195.978 67.7687L196.626 67.1896L197.273 66.612L197.918 66.0358L198.561 65.4609L199.203 64.8875L199.844 64.3155L200.482 63.7449L201.119 63.1758L201.755 62.6082L202.389 62.042L203.021 61.4774L203.651 60.9143L204.28 60.3527L204.907 59.7927L205.532 59.2342L206.155 58.6773L206.777 58.122L207.397 57.5684L208.015 57.0163L208.631 56.4659L209.245 55.9172L209.858 55.3701L210.468 54.8248L211.077 54.2811L211.683 53.7391L212.288 53.1989L212.891 52.6604L213.492 52.1238L214.091 51.5889L214.687 51.0557L215.282 50.5244L215.875 49.9949L216.465 49.4673L217.054 48.9416L217.641 48.4176L218.225 47.8956L218.807 47.3755L219.387 46.8573L219.965 46.3411L220.541 45.8268L221.114 45.3145L221.686 44.8041L222.255 44.2958L222.822 43.7895L223.386 43.2851L223.948 42.7829L224.508 42.2827L225.066 41.7846L225.621 41.2886L226.174 40.7946L226.725 40.3028L227.273 39.8131L227.819 39.3256L228.362 38.8402L228.903 38.3571L229.441 37.8761L229.977 37.3974L230.511 36.9208L231.042 36.4466L231.57 35.9745L232.096 35.5048L232.619 35.0373L233.14 34.5722L233.658 34.1093L234.174 33.6488L234.686 33.1907L235.197 32.7349L235.704 32.2816L236.209 31.8306L236.711 31.382L237.211 30.9358L237.707 30.4921L238.201 30.0509L238.692 29.6121L239.181 29.1759L239.666 28.7421L240.149 28.3109L240.629 27.8822L241.106 27.456L241.58 27.0324L242.052 26.6114L242.52 26.193L242.985 25.7772L243.448 25.3641L243.908 24.9536L244.364 24.5457L244.818 24.1405L245.268 23.738L245.716 23.3383L246.16 22.9412L246.602 22.5469L247.04 22.1553L247.475 21.7665L247.907 21.3805L248.336 20.9973L248.762 20.6169L249.185 20.2393L249.604 19.8646L250.021 19.4928L250.434 19.1238L250.844 18.7577L251.25 18.3945L251.653 18.0342L252.053 17.6769L252.45 17.3225L252.843 16.9711L253.234 16.6227L253.62 16.2773L254.004 15.9349L254.383 15.5955L254.76 15.2592L255.133 14.9259L255.503 14.5957L255.869 14.2687L256.231 13.9447L256.591 13.6238L256.946 13.3061L257.299 12.9915L257.647 12.6801L257.992 12.3719L258.334 12.0668L258.671 11.7651L259.006 11.4665L259.336 11.1712L259.663 10.8791L259.987 10.5903L260.306 10.3048L260.622 10.0226L260.934 9.74376L261.243 9.46824L261.547 9.19607L261.848 8.92726L262.145 8.66184L262.439 8.39984L262.728 8.14123L263.014 7.88606L263.296 7.63435L263.574 7.38609L263.848 7.14131L264.118 6.90002L264.384 6.66224L264.646 6.42799L264.904 6.19725L265.159 5.9701L265.409 5.7465L265.655 5.5265L265.898 5.3101L266.136 5.0973L266.37 4.88814L266.6 4.68264L266.826 4.48079L267.048 4.28261L267.265 4.08815L267.479 3.89736L267.688 3.71032L267.894 3.52702L268.095 3.34748L268.291 3.17168L268.484 2.9997L268.672 2.83151L268.856 2.66713L269.036 2.50658L269.211 2.34989L269.382 2.19705L269.549 2.0481L269.712 1.90302L269.847 1.78173Z" stroke="url(#paint0_linear_827_10839)" stroke-width="2"/>
<defs>
<linearGradient id="paint0_linear_827_10839" x1="1075.05" y1="361.657" x2="63.5996" y2="263.648" gradientUnits="userSpaceOnUse">
<stop stop-color="#339DFF"/>
<stop offset="0.337797" stop-color="#1E203F" stop-opacity="0"/>
<stop offset="0.589216" stop-color="#1E203F" stop-opacity="0"/>
<stop offset="1" stop-color="#339DFF"/>
</linearGradient>
</defs>
</svg>
