<svg width="232" height="201" viewBox="0 0 232 201" fill="none" xmlns="http://www.w3.org/2000/svg">
<ellipse cx="118.895" cy="100.384" rx="103.872" ry="100" fill="#EAEEF9" fill-opacity="0.1"/>
<g opacity="0.25">
<ellipse cx="8.24425" cy="8.14021" rx="8.24425" ry="8.14021" transform="matrix(-0.998161 0.060662 -0.0622288 -0.99806 217.713 63.1895)" fill="#A0BCF1"/>
<ellipse cx="8.24425" cy="8.14021" rx="8.24425" ry="8.14021" transform="matrix(-0.998161 0.060662 -0.0622288 -0.99806 217.713 63.1895)" fill="url(#paint0_linear_1312_2096)"/>
<path d="M202.281 55.972C202.054 52.3218 204.866 49.1787 208.566 48.9538C212.266 48.7289 215.449 51.5078 215.676 55.1579C215.904 58.808 213.091 61.9512 209.391 62.1761C205.691 62.4009 202.509 59.6221 202.281 55.972Z" stroke="black" stroke-opacity="0.25" stroke-width="0.183366"/>
<path d="M208.965 53.0984L209.297 58.4096L208.956 58.4302L208.625 53.1191L208.965 53.0984ZM208.285 56.7113C208.312 56.8777 208.391 57.0033 208.523 57.0884C208.654 57.1734 208.828 57.2093 209.044 57.1962C209.19 57.1873 209.313 57.159 209.411 57.1114C209.51 57.0652 209.584 57.0044 209.633 56.9292C209.681 56.8541 209.703 56.7709 209.697 56.6796C209.695 56.6034 209.675 56.538 209.637 56.4834C209.597 56.4288 209.545 56.3827 209.48 56.345C209.415 56.3087 209.341 56.2778 209.258 56.2523C209.174 56.2282 209.086 56.2086 208.992 56.1935L208.604 56.1254C208.416 56.0952 208.243 56.0502 208.083 55.9905C207.924 55.9307 207.785 55.8538 207.665 55.7598C207.545 55.6657 207.45 55.5521 207.379 55.4189C207.307 55.2859 207.265 55.1309 207.252 54.9539C207.238 54.6938 207.29 54.4643 207.409 54.2655C207.528 54.0681 207.707 53.9093 207.946 53.7893C208.185 53.6706 208.477 53.6008 208.823 53.5798C209.166 53.559 209.468 53.5934 209.729 53.683C209.988 53.7727 210.196 53.9163 210.351 54.1137C210.505 54.3126 210.595 54.5647 210.621 54.87L209.752 54.9228C209.733 54.7809 209.685 54.6645 209.607 54.5734C209.528 54.4838 209.426 54.4185 209.301 54.3775C209.175 54.3379 209.035 54.3229 208.88 54.3323C208.728 54.3415 208.597 54.3717 208.488 54.4228C208.377 54.4739 208.293 54.5408 208.236 54.6234C208.178 54.706 208.153 54.7985 208.159 54.9009C208.165 54.9963 208.199 55.0748 208.259 55.1364C208.319 55.198 208.404 55.2484 208.515 55.2875C208.624 55.3266 208.757 55.3602 208.914 55.3881L209.384 55.4762C209.748 55.5415 210.039 55.6606 210.258 55.8333C210.478 56.006 210.596 56.2494 210.614 56.5635C210.632 56.8207 210.577 57.0496 210.451 57.2502C210.323 57.451 210.141 57.6127 209.904 57.7354C209.668 57.8581 209.394 57.9288 209.084 57.9476C208.769 57.9668 208.49 57.9296 208.249 57.836C208.005 57.7425 207.812 57.6036 207.669 57.4193C207.525 57.2351 207.443 57.0165 207.424 56.7636L208.285 56.7113Z" fill="white"/>
</g>
<g opacity="0.25">
<ellipse cx="8.24425" cy="8.14021" rx="8.24425" ry="8.14021" transform="matrix(-0.998161 0.060662 -0.0622288 -0.99806 153.834 38.9897)" fill="#A0BCF1"/>
<ellipse cx="8.24425" cy="8.14021" rx="8.24425" ry="8.14021" transform="matrix(-0.998161 0.060662 -0.0622288 -0.99806 153.834 38.9897)" fill="url(#paint1_linear_1312_2096)"/>
<path d="M138.4 31.7723C138.173 28.1221 140.986 24.9789 144.686 24.7541C148.386 24.5292 151.568 27.3081 151.795 30.9582C152.023 34.6083 149.21 37.7515 145.51 37.9764C141.81 38.2012 138.628 35.4224 138.4 31.7723Z" stroke="black" stroke-opacity="0.25" stroke-width="0.183366"/>
<path d="M145.083 28.8982L145.414 34.2094L145.073 34.2301L144.742 28.9189L145.083 28.8982ZM144.402 32.5111C144.429 32.6775 144.508 32.8032 144.64 32.8882C144.772 32.9732 144.945 33.0091 145.161 32.996C145.308 32.9871 145.43 32.9588 145.529 32.9112C145.627 32.865 145.701 32.8042 145.75 32.729C145.799 32.6539 145.82 32.5707 145.814 32.4794C145.812 32.4032 145.792 32.3378 145.754 32.2832C145.714 32.2287 145.662 32.1825 145.597 32.1448C145.533 32.1085 145.459 32.0776 145.375 32.0521C145.292 32.028 145.203 32.0084 145.109 31.9933L144.721 31.9252C144.533 31.895 144.36 31.85 144.201 31.7903C144.041 31.7306 143.902 31.6536 143.782 31.5596C143.663 31.4655 143.567 31.3519 143.496 31.2187C143.424 31.0857 143.382 30.9307 143.37 30.7537C143.355 30.4936 143.407 30.2641 143.527 30.0653C143.645 29.8679 143.824 29.7091 144.063 29.5891C144.302 29.4704 144.594 29.4006 144.94 29.3796C145.283 29.3588 145.585 29.3932 145.846 29.4828C146.106 29.5725 146.313 29.7161 146.468 29.9136C146.622 30.1124 146.712 30.3645 146.738 30.6698L145.869 30.7226C145.85 30.5807 145.802 30.4643 145.724 30.3732C145.645 30.2836 145.543 30.2183 145.418 30.1773C145.292 30.1377 145.152 30.1227 144.997 30.1321C144.845 30.1413 144.714 30.1715 144.605 30.2226C144.494 30.2737 144.41 30.3406 144.353 30.4232C144.296 30.5058 144.27 30.5983 144.276 30.7007C144.282 30.7961 144.316 30.8746 144.377 30.9362C144.436 30.9978 144.521 31.0482 144.632 31.0873C144.741 31.1264 144.874 31.16 145.032 31.1879L145.502 31.276C145.865 31.3413 146.157 31.4604 146.376 31.6331C146.595 31.8058 146.713 32.0492 146.732 32.3633C146.749 32.6205 146.694 32.8494 146.568 33.05C146.44 33.2508 146.258 33.4125 146.021 33.5352C145.785 33.6579 145.511 33.7286 145.202 33.7474C144.886 33.7666 144.608 33.7294 144.366 33.6358C144.122 33.5423 143.929 33.4034 143.786 33.2191C143.642 33.0349 143.561 32.8163 143.541 32.5635L144.402 32.5111Z" fill="white"/>
</g>
<g filter="url(#filter0_f_1312_2096)">
<ellipse cx="8.21156" cy="8.17319" rx="8.21156" ry="8.17319" transform="matrix(-0.8298 -0.558063 0.567906 -0.823091 187.934 92.7329)" fill="#A0BCF1"/>
<ellipse cx="8.21156" cy="8.17319" rx="8.21156" ry="8.17319" transform="matrix(-0.8298 -0.558063 0.567906 -0.823091 187.934 92.7329)" fill="url(#paint2_linear_1312_2096)"/>
<path d="M180.217 77.6928C182.303 74.6697 186.477 73.8878 189.54 75.9478C192.603 78.0077 193.394 82.1286 191.308 85.1518C189.222 88.1749 185.048 88.9568 181.985 86.8968C178.922 84.8369 178.131 80.716 180.217 77.6928Z" stroke="black" stroke-opacity="0.25" stroke-width="0.183366"/>
<path d="M187.268 79.4877L184.245 83.8678L183.963 83.6775L186.985 79.2975L187.268 79.4877ZM184.493 81.9174C184.411 82.0647 184.396 82.2117 184.448 82.3585C184.5 82.5053 184.616 82.6391 184.795 82.7597C184.917 82.8417 185.032 82.8938 185.14 82.916C185.246 82.9394 185.343 82.9365 185.428 82.9074C185.513 82.8774 185.581 82.8248 185.633 82.7495C185.679 82.6884 185.703 82.6247 185.707 82.5586C185.709 82.4917 185.696 82.4238 185.668 82.3548C185.639 82.2869 185.6 82.2176 185.549 82.1469C185.498 82.0773 185.439 82.008 185.374 81.9391L185.109 81.6504C184.978 81.5125 184.868 81.3718 184.779 81.2281C184.689 81.0845 184.626 80.9393 184.589 80.7926C184.553 80.6459 184.547 80.4987 184.573 80.351C184.598 80.2025 184.661 80.0549 184.76 79.9081C184.909 79.6944 185.093 79.5456 185.311 79.4617C185.527 79.3781 185.767 79.3618 186.031 79.4128C186.294 79.4641 186.569 79.5865 186.856 79.7798C187.142 79.9716 187.36 80.182 187.512 80.411C187.663 80.6392 187.738 80.8781 187.74 81.1277C187.739 81.3777 187.654 81.6307 187.486 81.8866L186.763 81.4006C186.836 81.2777 186.87 81.1567 186.865 81.0378C186.857 80.9193 186.817 80.806 186.743 80.698C186.668 80.5904 186.565 80.4933 186.437 80.4067C186.31 80.3216 186.188 80.266 186.069 80.2399C185.95 80.213 185.842 80.2146 185.745 80.2448C185.649 80.275 185.571 80.3323 185.513 80.4168C185.459 80.4955 185.437 80.5775 185.447 80.6628C185.456 80.7473 185.492 80.8386 185.556 80.9366C185.618 81.0337 185.703 81.141 185.811 81.2585L186.13 81.613C186.378 81.8851 186.535 82.1556 186.602 82.4245C186.669 82.6933 186.613 82.9568 186.433 83.215C186.288 83.4279 186.103 83.575 185.879 83.6562C185.653 83.7367 185.409 83.7533 185.145 83.7062C184.881 83.659 184.62 83.5488 184.363 83.3756C184.101 83.1993 183.903 83.0009 183.768 82.7804C183.633 82.5592 183.566 82.3326 183.566 82.1006C183.566 81.8686 183.636 81.647 183.777 81.436L184.493 81.9174Z" fill="white"/>
</g>
<g filter="url(#filter1_f_1312_2096)">
<ellipse cx="8.21156" cy="8.17319" rx="8.21156" ry="8.17319" transform="matrix(-0.8298 -0.558063 0.567906 -0.823091 92.8555 107.398)" fill="#A0BCF1"/>
<path d="M85.135 92.3594C87.2209 89.3362 91.3947 88.5543 94.4577 90.6143C97.5207 92.6742 98.3118 96.7951 96.2259 99.8183C94.14 102.841 89.9662 103.623 86.9032 101.563C83.8402 99.5034 83.0491 95.3825 85.135 92.3594Z" stroke="black" stroke-opacity="0.25" stroke-width="0.183366"/>
<path d="M92.1895 94.1527L89.1673 98.5328L88.8845 98.3426L91.9066 93.9625L92.1895 94.1527ZM89.4145 96.5824C89.3331 96.7297 89.3184 96.8768 89.3703 97.0236C89.4222 97.1704 89.5378 97.3041 89.7172 97.4247C89.8391 97.5067 89.9538 97.5588 90.0614 97.5811C90.1682 97.6044 90.2644 97.6016 90.3502 97.5724C90.4348 97.5425 90.5031 97.4899 90.5551 97.4146C90.6006 97.3534 90.6252 97.2898 90.6287 97.2237C90.6311 97.1568 90.6182 97.0888 90.5901 97.0198C90.5611 96.9519 90.5214 96.8826 90.4709 96.8119C90.4196 96.7423 90.3613 96.6731 90.296 96.6041L90.0306 96.3154C89.9001 96.1776 89.7902 96.0368 89.7007 95.8932C89.6113 95.7495 89.5481 95.6043 89.5113 95.4577C89.4744 95.311 89.4691 95.1638 89.4953 95.016C89.5203 94.8676 89.5826 94.7199 89.6822 94.5731C89.8313 94.3595 90.0148 94.2107 90.2326 94.1267C90.4485 94.0432 90.6887 94.0269 90.9532 94.0778C91.2158 94.1292 91.4908 94.2515 91.7783 94.4448C92.0635 94.6366 92.282 94.847 92.4338 95.076C92.5844 95.3042 92.6603 95.5431 92.6615 95.7928C92.6607 96.0427 92.5762 96.2957 92.4081 96.5517L91.6853 96.0656C91.7583 95.9427 91.7921 95.8218 91.7866 95.7029C91.7792 95.5843 91.7386 95.471 91.665 95.3631C91.5894 95.2555 91.4872 95.1583 91.3584 95.0717C91.2319 94.9867 91.1095 94.931 90.9912 94.9049C90.8717 94.878 90.7637 94.8796 90.667 94.9099C90.5704 94.9401 90.493 94.9974 90.4348 95.0818C90.3805 95.1605 90.3584 95.2425 90.3686 95.3278C90.3776 95.4124 90.4139 95.5036 90.4777 95.6016C90.5402 95.6988 90.6253 95.8061 90.7328 95.9235L91.0514 96.278C91.2996 96.5502 91.4573 96.8207 91.5243 97.0895C91.5913 97.3584 91.535 97.6219 91.3552 97.88C91.2099 98.093 91.0251 98.24 90.8007 98.3213C90.5752 98.4017 90.3305 98.4183 90.0668 98.3712C89.803 98.3241 89.5423 98.2139 89.2847 98.0406C89.0225 97.8643 88.8244 97.6659 88.6903 97.4455C88.555 97.2243 88.4875 96.9976 88.4876 96.7656C88.4878 96.5336 88.5581 96.3121 88.6987 96.101L89.4145 96.5824Z" fill="white"/>
</g>
<g filter="url(#filter2_f_1312_2096)">
<ellipse cx="8.21156" cy="8.17319" rx="8.21156" ry="8.17319" transform="matrix(-0.8298 -0.558063 0.567906 -0.823091 32.6855 51.6641)" fill="url(#paint3_linear_1312_2096)"/>
<path d="M24.969 36.625C27.0549 33.6018 31.2287 32.8199 34.2917 34.8799C37.3547 36.9398 38.1458 41.0607 36.0599 44.0839C33.974 47.1071 29.8002 47.8889 26.7372 45.829C23.6742 43.769 22.8831 39.6482 24.969 36.625Z" stroke="black" stroke-opacity="0.25" stroke-width="0.183366"/>
<path d="M32.0215 38.4179L28.9994 42.798L28.7165 42.6077L31.7386 38.2276L32.0215 38.4179ZM29.2466 40.8476C29.1651 40.9949 29.1504 41.1419 29.2023 41.2887C29.2542 41.4355 29.3699 41.5692 29.5493 41.6899C29.6712 41.7719 29.7859 41.824 29.8934 41.8462C30.0002 41.8696 30.0965 41.8667 30.1822 41.8375C30.2669 41.8076 30.3352 41.755 30.3871 41.6797C30.4327 41.6185 30.4572 41.5549 30.4608 41.4888C30.4631 41.4219 30.4502 41.354 30.4221 41.2849C30.3932 41.2171 30.3534 41.1478 30.3029 41.077C30.2516 41.0075 30.1933 40.9382 30.1281 40.8693L29.8626 40.5805C29.7321 40.4427 29.6222 40.3019 29.5327 40.1583C29.4433 40.0146 29.3802 39.8695 29.3433 39.7228C29.3065 39.5761 29.3011 39.4289 29.3273 39.2812C29.3523 39.1327 29.4146 38.985 29.5142 38.8383C29.6633 38.6246 29.8468 38.4758 30.0646 38.3919C30.2806 38.3083 30.5208 38.292 30.7853 38.343C31.0478 38.3943 31.3229 38.5166 31.6103 38.71C31.8955 38.9018 32.114 39.1122 32.2658 39.3412C32.4164 39.5694 32.4923 39.8083 32.4935 40.0579C32.4927 40.3079 32.4083 40.5608 32.2401 40.8168L31.5174 40.3307C31.5904 40.2078 31.6241 40.0869 31.6186 39.968C31.6112 39.8495 31.5707 39.7362 31.497 39.6282C31.4214 39.5206 31.3192 39.4235 31.1904 39.3369C31.0639 39.2518 30.9415 39.1962 30.8232 39.17C30.7037 39.1431 30.5957 39.1448 30.4991 39.175C30.4025 39.2052 30.325 39.2625 30.2668 39.3469C30.2125 39.4256 30.1904 39.5076 30.2006 39.593C30.2096 39.6775 30.246 39.7688 30.3097 39.8667C30.3723 39.9639 30.4573 40.0712 30.5649 40.1886L30.8834 40.5431C31.1317 40.8153 31.2893 41.0858 31.3563 41.3547C31.4234 41.6235 31.367 41.887 31.1872 42.1452C31.042 42.3581 30.8571 42.5052 30.6328 42.5864C30.4072 42.6668 30.1626 42.6835 29.8988 42.6363C29.635 42.5892 29.3743 42.479 29.1167 42.3058C28.8546 42.1294 28.6564 41.9311 28.5223 41.7106C28.3871 41.4894 28.3195 41.2628 28.3196 41.0308C28.3198 40.7987 28.3902 40.5772 28.5307 40.3661L29.2466 40.8476Z" fill="white"/>
</g>
<g filter="url(#filter3_f_1312_2096)">
<ellipse cx="5.93271" cy="5.91304" rx="5.93271" ry="5.91304" transform="matrix(-0.797357 -0.60351 0.613319 -0.789834 126.408 84.0737)" fill="#A0BCF1"/>
<path d="M121.456 72.9082C123.086 70.8093 126.131 70.412 128.257 72.0214C130.384 73.6308 130.786 76.637 129.156 78.7359C127.526 80.8348 124.481 81.2321 122.355 79.6227C120.228 78.0133 119.826 75.007 121.456 72.9082Z" stroke="black" stroke-opacity="0.25" stroke-width="0.132569"/>
<path d="M126.261 74.7564L123.902 77.7951L123.705 77.6464L126.065 74.6076L126.261 74.7564ZM124.159 76.3976C124.095 76.5006 124.078 76.6061 124.11 76.7141C124.141 76.8222 124.219 76.9234 124.344 77.0177C124.428 77.0818 124.509 77.124 124.586 77.1444C124.662 77.1656 124.732 77.1674 124.795 77.1499C124.857 77.1317 124.909 77.0965 124.949 77.0443C124.985 77.0019 125.005 76.957 125.01 76.9094C125.014 76.8613 125.008 76.8117 124.99 76.7608C124.972 76.7106 124.946 76.659 124.913 76.6059C124.879 76.5536 124.839 76.5013 124.795 76.4489L124.615 76.2298C124.526 76.125 124.453 76.019 124.394 75.9117C124.335 75.8044 124.296 75.6971 124.275 75.5898C124.254 75.4824 124.256 75.376 124.281 75.2704C124.305 75.1642 124.356 75.0602 124.434 74.9583C124.551 74.8102 124.689 74.7102 124.85 74.6584C125.009 74.6069 125.183 74.6048 125.372 74.6523C125.559 74.7 125.753 74.7994 125.953 74.9506C126.151 75.1005 126.3 75.2612 126.4 75.4326C126.5 75.6034 126.545 75.7789 126.536 75.9591C126.525 76.1394 126.454 76.3186 126.322 76.4965L125.82 76.1165C125.878 76.0307 125.907 75.9448 125.908 75.8588C125.907 75.7729 125.882 75.6895 125.834 75.6086C125.783 75.5279 125.714 75.4537 125.624 75.386C125.536 75.3195 125.45 75.2744 125.366 75.2507C125.281 75.2265 125.203 75.2233 125.132 75.2412C125.061 75.2591 125.002 75.2973 124.957 75.3559C124.915 75.4105 124.895 75.4688 124.899 75.5307C124.902 75.5921 124.925 75.6594 124.967 75.7327C125.008 75.8054 125.065 75.8863 125.138 75.9754L125.354 76.2441C125.522 76.4506 125.625 76.6522 125.662 76.8489C125.7 77.0456 125.648 77.2335 125.508 77.4125C125.394 77.5603 125.255 77.659 125.09 77.7085C124.924 77.7574 124.746 77.7596 124.558 77.7149C124.369 77.6702 124.185 77.5801 124.007 77.4447C123.824 77.3068 123.689 77.1556 123.602 76.9911C123.513 76.826 123.473 76.6597 123.483 76.4923C123.492 76.3248 123.552 76.1678 123.662 76.0212L124.159 76.3976Z" fill="white"/>
</g>
<g filter="url(#filter4_f_1312_2096)">
<ellipse cx="9.45213" cy="9.52608" rx="9.45213" ry="9.52608" transform="matrix(0.446611 -0.894726 0.899217 0.437507 105.838 55.9214)" fill="url(#paint4_linear_1312_2096)"/>
<path d="M122.061 44.7492C125.912 46.6228 127.494 51.223 125.597 55.0231C123.7 58.8233 119.042 60.3869 115.191 58.5133C111.34 56.6396 109.757 52.0395 111.654 48.2393C113.551 44.4391 118.21 42.8755 122.061 44.7492Z" stroke="black" stroke-opacity="0.25" stroke-width="0.212391"/>
<path d="M121.119 53.0232L115.577 50.3265L115.753 49.9732L121.296 52.6699L121.119 53.0232ZM117.874 50.2795C117.691 50.2117 117.518 50.2197 117.356 50.3033C117.194 50.387 117.057 50.5408 116.946 50.7649C116.87 50.9171 116.827 51.0562 116.818 51.1821C116.808 51.3073 116.826 51.4162 116.873 51.5087C116.921 51.5998 116.992 51.6685 117.088 51.7149C117.166 51.7563 117.243 51.7735 117.32 51.7664C117.398 51.7579 117.475 51.7318 117.55 51.6883C117.624 51.644 117.698 51.5872 117.772 51.5179C117.845 51.448 117.916 51.3701 117.986 51.2844L118.279 50.9344C118.418 50.763 118.564 50.6145 118.717 50.4887C118.869 50.363 119.028 50.2669 119.192 50.2004C119.356 50.1339 119.526 50.103 119.701 50.1079C119.877 50.1114 120.057 50.1574 120.243 50.2458C120.513 50.3793 120.714 50.5627 120.845 50.796C120.976 51.0273 121.032 51.2974 121.014 51.6064C120.995 51.9133 120.896 52.2462 120.717 52.6053C120.539 52.9614 120.33 53.245 120.088 53.4559C119.847 53.6653 119.582 53.7917 119.293 53.835C119.004 53.8761 118.698 53.8227 118.375 53.6747L118.826 52.772C118.979 52.8343 119.125 52.8523 119.261 52.8261C119.398 52.7977 119.522 52.7326 119.636 52.6308C119.749 52.5269 119.846 52.3945 119.926 52.2336C120.005 52.0757 120.05 51.9273 120.062 51.7885C120.075 51.6482 120.056 51.5258 120.006 51.4211C119.956 51.3165 119.877 51.2382 119.771 51.1862C119.671 51.1377 119.573 51.1264 119.475 51.1523C119.379 51.1768 119.279 51.2334 119.175 51.3222C119.072 51.4097 118.961 51.5243 118.842 51.6662L118.481 52.0876C118.204 52.4153 117.916 52.6399 117.615 52.7612C117.314 52.8825 117 52.8628 116.673 52.7019C116.404 52.5727 116.205 52.3875 116.076 52.1463C115.947 51.9036 115.89 51.6285 115.904 51.3209C115.917 51.0134 116.004 50.6988 116.165 50.3771C116.328 50.0496 116.527 49.7912 116.762 49.6018C116.997 49.411 117.249 49.2962 117.518 49.2574C117.786 49.2186 118.054 49.2613 118.32 49.3855L117.874 50.2795Z" fill="white"/>
</g>
<g opacity="0.25">
<ellipse cx="10.173" cy="10.1255" rx="10.173" ry="10.1255" transform="matrix(-0.8298 -0.558063 0.567906 -0.823091 114.771 146.909)" fill="#A0BCF1"/>
<ellipse cx="10.173" cy="10.1255" rx="10.173" ry="10.1255" transform="matrix(-0.8298 -0.558063 0.567906 -0.823091 114.771 146.909)" fill="url(#paint5_linear_1312_2096)"/>
<path d="M105.21 128.277C107.795 124.531 112.965 123.563 116.76 126.115C120.555 128.667 121.535 133.772 118.951 137.517C116.366 141.263 111.196 142.231 107.401 139.679C103.606 137.127 102.626 132.022 105.21 128.277Z" stroke="black" stroke-opacity="0.25" stroke-width="0.227167"/>
<path d="M114.268 130.033L110.524 135.46L110.174 135.224L113.918 129.798L114.268 130.033ZM110.831 133.044C110.73 133.226 110.712 133.408 110.776 133.59C110.84 133.772 110.983 133.938 111.206 134.087C111.357 134.189 111.499 134.253 111.632 134.281C111.764 134.31 111.884 134.306 111.99 134.27C112.095 134.233 112.179 134.168 112.244 134.075C112.3 133.999 112.331 133.92 112.335 133.838C112.338 133.755 112.322 133.671 112.287 133.585C112.251 133.501 112.202 133.415 112.139 133.328C112.076 133.242 112.004 133.156 111.923 133.07L111.594 132.713C111.432 132.542 111.296 132.368 111.185 132.19C111.074 132.012 110.996 131.832 110.951 131.65C110.905 131.468 110.898 131.286 110.931 131.103C110.962 130.919 111.039 130.736 111.162 130.554C111.347 130.29 111.574 130.105 111.844 130.001C112.112 129.898 112.409 129.878 112.737 129.941C113.062 130.004 113.403 130.156 113.759 130.395C114.112 130.633 114.383 130.894 114.571 131.177C114.758 131.46 114.852 131.756 114.853 132.065C114.852 132.375 114.748 132.688 114.539 133.005L113.644 132.403C113.734 132.251 113.776 132.101 113.769 131.954C113.76 131.807 113.71 131.667 113.619 131.533C113.525 131.4 113.398 131.279 113.239 131.172C113.082 131.067 112.931 130.998 112.784 130.965C112.636 130.932 112.502 130.934 112.382 130.971C112.263 131.009 112.167 131.08 112.095 131.184C112.027 131.282 112 131.384 112.013 131.489C112.024 131.594 112.069 131.707 112.148 131.828C112.225 131.949 112.331 132.082 112.464 132.227L112.859 132.666C113.166 133.004 113.361 133.339 113.444 133.672C113.527 134.005 113.458 134.331 113.235 134.651C113.055 134.915 112.826 135.097 112.548 135.198C112.269 135.297 111.965 135.318 111.639 135.26C111.312 135.201 110.989 135.065 110.67 134.85C110.345 134.632 110.1 134.386 109.933 134.113C109.766 133.839 109.682 133.558 109.682 133.271C109.683 132.983 109.77 132.709 109.944 132.447L110.831 133.044Z" fill="white"/>
</g>
<g opacity="0.25">
<ellipse cx="10.173" cy="10.1255" rx="10.173" ry="10.1255" transform="matrix(-0.8298 -0.558063 0.567906 -0.823091 98.4277 80.9077)" fill="#A0BCF1"/>
<ellipse cx="10.173" cy="10.1255" rx="10.173" ry="10.1255" transform="matrix(-0.8298 -0.558063 0.567906 -0.823091 98.4277 80.9077)" fill="url(#paint6_linear_1312_2096)"/>
<path d="M88.8667 62.2753C91.4508 58.53 96.6216 57.5614 100.416 60.1134C104.211 62.6654 105.191 67.7706 102.607 71.516C100.023 75.2613 94.8519 76.2299 91.0572 73.6779C87.2626 71.1259 86.2825 66.0207 88.8667 62.2753Z" stroke="black" stroke-opacity="0.25" stroke-width="0.227167"/>
<path d="M97.9227 64.0325L94.1787 69.4589L93.8283 69.2232L97.5723 63.7968L97.9227 64.0325ZM94.485 67.0426C94.3841 67.2251 94.3658 67.4072 94.4301 67.5891C94.4944 67.771 94.6377 67.9366 94.86 68.0861C95.011 68.1877 95.1531 68.2522 95.2863 68.2798C95.4186 68.3087 95.5379 68.3052 95.6441 68.269C95.749 68.232 95.8336 68.1668 95.8979 68.0735C95.9544 67.9977 95.9848 67.9189 95.9892 67.837C95.9921 67.7541 95.9761 67.67 95.9413 67.5845C95.9055 67.5004 95.8562 67.4145 95.7936 67.3269C95.7301 67.2407 95.6579 67.1549 95.577 67.0695L95.2482 66.7118C95.0865 66.541 94.9503 66.3666 94.8395 66.1887C94.7287 66.0107 94.6505 65.8309 94.6048 65.6492C94.5592 65.4674 94.5526 65.2851 94.585 65.1021C94.616 64.9181 94.6931 64.7352 94.8165 64.5533C95.0012 64.2886 95.2286 64.1043 95.4984 64.0003C95.7659 63.8968 96.0635 63.8766 96.3912 63.9397C96.7165 64.0033 97.0572 64.1549 97.4134 64.3944C97.7667 64.632 98.0374 64.8927 98.2254 65.1763C98.412 65.4591 98.506 65.7551 98.5075 66.0643C98.5065 66.374 98.4019 66.6874 98.1936 67.0045L97.2982 66.4023C97.3886 66.25 97.4304 66.1003 97.4236 65.9529C97.4144 65.8061 97.3642 65.6657 97.273 65.532C97.1793 65.3986 97.0527 65.2783 96.8932 65.171C96.7365 65.0656 96.5848 64.9967 96.4382 64.9644C96.2902 64.931 96.1563 64.9331 96.0367 64.9705C95.917 65.0079 95.8211 65.0789 95.7489 65.1835C95.6816 65.281 95.6543 65.3826 95.6669 65.4883C95.678 65.593 95.7231 65.7061 95.802 65.8275C95.8796 65.9479 95.9849 66.0808 96.1182 66.2263L96.5128 66.6654C96.8204 67.0026 97.0157 67.3377 97.0987 67.6708C97.1817 68.0039 97.1119 68.3303 96.8891 68.6502C96.7092 68.914 96.4803 69.0962 96.2023 69.1968C95.9229 69.2964 95.6198 69.317 95.293 69.2586C94.9662 69.2002 94.6432 69.0637 94.3241 68.8491C93.9993 68.6307 93.7538 68.3849 93.5877 68.1118C93.4201 67.8377 93.3364 67.557 93.3366 67.2695C93.3368 66.9821 93.424 66.7076 93.5981 66.4462L94.485 67.0426Z" fill="white"/>
</g>
<ellipse cx="13.4534" cy="13.283" rx="13.4534" ry="13.283" transform="matrix(-0.999095 -0.0425841 0.0436861 -0.999043 169.6 80.6528)" fill="#A0BCF1"/>
<ellipse cx="13.4534" cy="13.283" rx="13.4534" ry="13.283" transform="matrix(-0.999095 -0.0425841 0.0436861 -0.999043 169.6 80.6528)" fill="url(#paint7_linear_1312_2096)"/>
<path d="M145.796 66.3441C146.057 60.382 151.164 55.7543 157.208 56.0119C163.251 56.2694 167.936 61.3146 167.675 67.2766C167.414 73.2387 162.307 77.8664 156.263 77.6088C150.22 77.3513 145.535 72.3061 145.796 66.3441Z" stroke="black" stroke-opacity="0.25" stroke-width="0.299219"/>
<path d="M157.148 62.5972L156.768 71.2725L156.213 71.2489L156.592 62.5735L157.148 62.5972ZM155.419 68.3462C155.434 68.6207 155.542 68.838 155.741 68.9981C155.94 69.1583 156.215 69.2458 156.568 69.2609C156.807 69.2711 157.011 69.2458 157.179 69.1851C157.347 69.1266 157.477 69.0405 157.57 68.9267C157.661 68.8129 157.71 68.6815 157.717 68.5323C157.727 68.4083 157.705 68.2987 157.653 68.2037C157.598 68.1086 157.521 68.0249 157.423 67.9528C157.324 67.883 157.209 67.8204 157.078 67.765C156.947 67.7119 156.806 67.6651 156.656 67.6248L156.039 67.4491C155.739 67.3684 155.465 67.2662 155.217 67.1425C154.969 67.0187 154.756 66.8704 154.578 66.6976C154.4 66.5248 154.265 66.3244 154.173 66.0964C154.079 65.8683 154.037 65.6096 154.048 65.3203C154.068 64.8957 154.193 64.5321 154.421 64.2295C154.647 63.929 154.965 63.7015 155.375 63.5469C155.782 63.3945 156.268 63.3304 156.833 63.3544C157.393 63.3783 157.877 63.485 158.286 63.6744C158.691 63.8637 159.003 64.1317 159.221 64.4782C159.437 64.8269 159.54 65.2511 159.529 65.7509L158.109 65.6904C158.103 65.457 158.045 65.2599 157.935 65.099C157.822 64.9402 157.667 64.8171 157.472 64.7296C157.274 64.6442 157.049 64.5961 156.796 64.5853C156.547 64.5747 156.33 64.6017 156.144 64.6662C155.955 64.7306 155.808 64.825 155.7 64.9494C155.593 65.0739 155.536 65.2197 155.528 65.3869C155.522 65.5427 155.562 65.6757 155.65 65.7859C155.736 65.8959 155.865 65.992 156.038 66.074C156.209 66.156 156.419 66.2329 156.67 66.3047L157.417 66.5266C157.996 66.6939 158.448 66.9361 158.774 67.2533C159.1 67.5705 159.25 67.9855 159.226 68.4982C159.209 68.9185 159.082 69.2809 158.842 69.5853C158.6 69.8896 158.276 70.1214 157.871 70.2806C157.466 70.4399 157.01 70.5088 156.504 70.4872C155.989 70.4652 155.543 70.358 155.167 70.1654C154.788 69.9727 154.498 69.7147 154.297 69.3916C154.096 69.0684 154.002 68.6999 154.013 68.2862L155.419 68.3462Z" fill="white"/>
<g filter="url(#filter5_f_1312_2096)">
<ellipse cx="11.1221" cy="11.0701" rx="11.1221" ry="11.0701" transform="matrix(-0.8298 -0.558063 0.567906 -0.823091 160.322 128.413)" fill="#A0BCF1"/>
<path d="M149.868 108.043C152.693 103.949 158.347 102.89 162.495 105.68C166.644 108.47 167.715 114.051 164.89 118.146C162.065 122.241 156.412 123.3 152.263 120.51C148.114 117.719 147.043 112.138 149.868 108.043Z" stroke="black" stroke-opacity="0.25" stroke-width="0.248359"/>
<path d="M159.346 110.578L155.253 116.511L154.87 116.253L158.963 110.32L159.346 110.578ZM155.588 113.869C155.477 114.069 155.457 114.268 155.528 114.467C155.598 114.665 155.755 114.846 155.998 115.01C156.163 115.121 156.318 115.191 156.464 115.222C156.608 115.253 156.739 115.249 156.855 115.21C156.97 115.169 157.062 115.098 157.133 114.996C157.194 114.913 157.228 114.827 157.232 114.738C157.235 114.647 157.218 114.555 157.18 114.461C157.141 114.369 157.087 114.276 157.018 114.18C156.949 114.086 156.87 113.992 156.782 113.898L156.422 113.507C156.245 113.321 156.096 113.13 155.975 112.935C155.854 112.741 155.769 112.544 155.719 112.346C155.669 112.147 155.662 111.948 155.697 111.747C155.731 111.546 155.815 111.346 155.95 111.148C156.152 110.858 156.401 110.657 156.696 110.543C156.988 110.43 157.314 110.408 157.672 110.477C158.027 110.546 158.4 110.712 158.789 110.974C159.176 111.234 159.472 111.519 159.677 111.829C159.881 112.138 159.984 112.461 159.986 112.799C159.985 113.138 159.87 113.481 159.642 113.827L158.663 113.169C158.762 113.003 158.808 112.839 158.801 112.678C158.791 112.517 158.736 112.364 158.636 112.217C158.533 112.072 158.395 111.94 158.221 111.823C158.049 111.708 157.883 111.632 157.723 111.597C157.561 111.56 157.415 111.563 157.284 111.604C157.153 111.645 157.048 111.722 156.97 111.836C156.896 111.943 156.866 112.054 156.88 112.17C156.892 112.284 156.941 112.408 157.028 112.541C157.112 112.672 157.228 112.817 157.373 112.977L157.805 113.457C158.141 113.825 158.355 114.192 158.445 114.556C158.536 114.92 158.46 115.277 158.216 115.627C158.019 115.915 157.769 116.114 157.465 116.224C157.16 116.333 156.828 116.356 156.471 116.292C156.114 116.228 155.761 116.079 155.412 115.844C155.057 115.605 154.788 115.337 154.607 115.038C154.424 114.738 154.332 114.431 154.332 114.117C154.332 113.803 154.428 113.503 154.618 113.217L155.588 113.869Z" fill="white"/>
</g>
<g opacity="0.25">
<ellipse cx="5.45819" cy="5.43269" rx="5.45819" ry="5.43269" transform="matrix(-0.8298 -0.558063 0.567906 -0.823091 220.383 64.9736)" fill="#A0BCF1"/>
<ellipse cx="5.45819" cy="5.43269" rx="5.45819" ry="5.43269" transform="matrix(-0.8298 -0.558063 0.567906 -0.823091 220.383 64.9736)" fill="url(#paint8_linear_1312_2096)"/>
<path d="M215.254 54.9777C216.64 52.9682 219.414 52.4485 221.45 53.8177C223.486 55.187 224.012 57.9261 222.626 59.9356C221.239 61.9451 218.465 62.4648 216.429 61.0956C214.393 59.7263 213.867 56.9872 215.254 54.9777Z" stroke="black" stroke-opacity="0.25" stroke-width="0.121883"/>
<path d="M219.944 56.1612L217.935 59.0726L217.747 58.9461L219.756 56.0347L219.944 56.1612ZM218.1 57.7762C218.046 57.8741 218.036 57.9718 218.07 58.0694C218.105 58.167 218.182 58.2559 218.301 58.3361C218.382 58.3906 218.458 58.4252 218.53 58.44C218.601 58.4555 218.665 58.4536 218.722 58.4342C218.778 58.4143 218.823 58.3794 218.858 58.3293C218.888 58.2886 218.905 58.2463 218.907 58.2024C218.908 58.1579 218.9 58.1128 218.881 58.0669C218.862 58.0218 218.836 57.9757 218.802 57.9287C218.768 57.8825 218.729 57.8364 218.686 57.7906L218.509 57.5987C218.423 57.5071 218.349 57.4135 218.29 57.318C218.231 57.2225 218.189 57.126 218.164 57.0285C218.14 56.931 218.136 56.8332 218.153 56.735C218.17 56.6363 218.211 56.5382 218.278 56.4406C218.377 56.2986 218.499 56.1997 218.644 56.1439C218.787 56.0883 218.947 56.0775 219.123 56.1114C219.297 56.1455 219.48 56.2268 219.671 56.3553C219.861 56.4828 220.006 56.6227 220.107 56.7749C220.207 56.9266 220.257 57.0854 220.258 57.2513C220.258 57.4175 220.201 57.5856 220.09 57.7557L219.609 57.4326C219.658 57.3509 219.68 57.2706 219.677 57.1915C219.672 57.1127 219.645 57.0374 219.596 56.9657C219.545 56.8941 219.477 56.8296 219.392 56.772C219.308 56.7155 219.226 56.6785 219.148 56.6611C219.068 56.6432 218.997 56.6443 218.932 56.6644C218.868 56.6845 218.817 56.7226 218.778 56.7787C218.742 56.831 218.727 56.8855 218.734 56.9422C218.74 56.9984 218.764 57.0591 218.806 57.1242C218.848 57.1888 218.905 57.2601 218.976 57.3382L219.188 57.5738C219.353 57.7547 219.458 57.9345 219.502 58.1132C219.547 58.2919 219.509 58.4671 219.39 58.6387C219.293 58.7802 219.17 58.878 219.021 58.932C218.871 58.9854 218.709 58.9965 218.533 58.9652C218.358 58.9338 218.185 58.8606 218.014 58.7454C217.839 58.6282 217.708 58.4964 217.618 58.3498C217.528 58.2028 217.484 58.0522 217.484 57.8979C217.484 57.7437 217.531 57.5965 217.624 57.4562L218.1 57.7762Z" fill="white"/>
</g>
<g opacity="0.25">
<ellipse cx="5.45819" cy="5.43269" rx="5.45819" ry="5.43269" transform="matrix(-0.8298 -0.558063 0.567906 -0.823091 118.617 106.042)" fill="#A0BCF1"/>
<path d="M113.488 96.0465C114.874 94.0371 117.649 93.5174 119.685 94.8866C121.721 96.2558 122.246 98.995 120.86 101.004C119.474 103.014 116.699 103.534 114.663 102.164C112.627 100.795 112.101 98.056 113.488 96.0465Z" stroke="black" stroke-opacity="0.25" stroke-width="0.121883"/>
<path d="M118.181 97.2295L116.172 100.141L115.984 100.014L117.993 97.1031L118.181 97.2295ZM116.336 98.8445C116.282 98.9424 116.272 99.0402 116.307 99.1378C116.341 99.2353 116.418 99.3242 116.537 99.4044C116.618 99.4589 116.695 99.4935 116.766 99.5083C116.837 99.5239 116.901 99.5219 116.958 99.5026C117.014 99.4827 117.06 99.4477 117.094 99.3977C117.125 99.357 117.141 99.3147 117.143 99.2708C117.145 99.2263 117.136 99.1811 117.117 99.1353C117.098 99.0901 117.072 99.0441 117.038 98.9971C117.004 98.9508 116.965 98.9048 116.922 98.859L116.746 98.6671C116.659 98.5754 116.586 98.4819 116.526 98.3864C116.467 98.2909 116.425 98.1944 116.4 98.0969C116.376 97.9994 116.372 97.9016 116.39 97.8034C116.406 97.7047 116.448 97.6065 116.514 97.509C116.613 97.3669 116.735 97.268 116.88 97.2122C117.023 97.1567 117.183 97.1459 117.359 97.1797C117.533 97.2139 117.716 97.2952 117.907 97.4237C118.097 97.5512 118.242 97.691 118.343 97.8432C118.443 97.9949 118.494 98.1537 118.494 98.3196C118.494 98.4858 118.438 98.654 118.326 98.8241L117.846 98.501C117.894 98.4193 117.916 98.3389 117.913 98.2599C117.908 98.1811 117.881 98.1058 117.832 98.034C117.782 97.9625 117.714 97.898 117.628 97.8404C117.544 97.7838 117.463 97.7469 117.384 97.7295C117.305 97.7116 117.233 97.7127 117.169 97.7328C117.104 97.7529 117.053 97.791 117.014 97.8471C116.978 97.8994 116.964 97.9539 116.97 98.0106C116.976 98.0668 117 98.1275 117.043 98.1926C117.084 98.2572 117.141 98.3285 117.212 98.4065L117.424 98.6422C117.589 98.8231 117.694 99.0029 117.738 99.1816C117.783 99.3603 117.746 99.5355 117.626 99.707C117.53 99.8486 117.407 99.9463 117.258 100C117.108 100.054 116.945 100.065 116.77 100.034C116.594 100.002 116.421 99.9289 116.25 99.8138C116.076 99.6966 115.944 99.5647 115.855 99.4182C115.765 99.2712 115.72 99.1205 115.72 98.9663C115.72 98.8121 115.767 98.6648 115.86 98.5245L116.336 98.8445Z" fill="white"/>
</g>
<g filter="url(#filter6_f_1312_2096)">
<ellipse cx="4.43882" cy="4.41808" rx="4.43882" ry="4.41808" transform="matrix(-0.8298 -0.558063 0.567906 -0.823091 150.443 93.4785)" fill="#A0BCF1"/>
<path d="M146.272 85.348C147.399 83.7138 149.656 83.2911 151.311 84.4047C152.967 85.5182 153.395 87.7458 152.267 89.38C151.14 91.0142 148.883 91.4368 147.228 90.3233C145.572 89.2098 145.144 86.9822 146.272 85.348Z" stroke="black" stroke-opacity="0.25" stroke-width="0.09912"/>
<path d="M149.946 86.5189L148.312 88.8866L148.159 88.7838L149.793 86.4161L149.946 86.5189ZM148.446 87.8323C148.402 87.912 148.394 87.9914 148.422 88.0708C148.45 88.1501 148.512 88.2224 148.609 88.2876C148.675 88.332 148.737 88.3601 148.795 88.3721C148.853 88.3848 148.905 88.3832 148.952 88.3675C148.997 88.3513 149.034 88.3229 149.062 88.2822C149.087 88.2491 149.1 88.2147 149.102 88.1789C149.103 88.1428 149.096 88.1061 149.081 88.0688C149.066 88.0321 149.044 87.9946 149.017 87.9564C148.989 87.9188 148.958 87.8813 148.922 87.8441L148.779 87.688C148.708 87.6135 148.649 87.5374 148.601 87.4597C148.552 87.3821 148.518 87.3036 148.498 87.2243C148.478 87.145 148.475 87.0655 148.489 86.9856C148.503 86.9053 148.537 86.8255 148.59 86.7462C148.671 86.6307 148.77 86.5503 148.888 86.5049C149.005 86.4597 149.135 86.4509 149.278 86.4784C149.42 86.5062 149.568 86.5723 149.724 86.6768C149.878 86.7805 149.996 86.8942 150.078 87.018C150.159 87.1414 150.2 87.2705 150.201 87.4055C150.201 87.5406 150.155 87.6773 150.064 87.8157L149.673 87.553C149.713 87.4865 149.731 87.4212 149.728 87.3569C149.724 87.2928 149.702 87.2316 149.662 87.1732C149.621 87.115 149.566 87.0625 149.497 87.0157C149.428 86.9697 149.362 86.9397 149.298 86.9255C149.233 86.911 149.175 86.9119 149.123 86.9282C149.071 86.9445 149.029 86.9755 148.997 87.0211C148.968 87.0637 148.956 87.108 148.962 87.1541C148.966 87.1998 148.986 87.2492 149.02 87.3021C149.054 87.3547 149.1 87.4127 149.158 87.4761L149.331 87.6678C149.465 87.8149 149.55 87.9611 149.586 88.1064C149.623 88.2518 149.592 88.3942 149.495 88.5338C149.416 88.6489 149.316 88.7284 149.195 88.7723C149.073 88.8157 148.941 88.8247 148.798 88.7993C148.656 88.7738 148.515 88.7142 148.376 88.6206C148.234 88.5253 148.127 88.418 148.054 88.2989C147.981 88.1793 147.945 88.0568 147.945 87.9314C147.945 87.8059 147.983 87.6862 148.059 87.5721L148.446 87.8323Z" fill="white"/>
</g>
<g filter="url(#filter7_f_1312_2096)">
<ellipse cx="4.43882" cy="4.41808" rx="4.43882" ry="4.41808" transform="matrix(-0.8298 -0.558063 0.567906 -0.823091 80.6211 49.4761)" fill="#A0BCF1"/>
<ellipse cx="4.43882" cy="4.41808" rx="4.43882" ry="4.41808" transform="matrix(-0.8298 -0.558063 0.567906 -0.823091 80.6211 49.4761)" fill="url(#paint9_linear_1312_2096)"/>
<path d="M76.4496 41.3455C77.5772 39.7113 79.8333 39.2887 81.4891 40.4022C83.1448 41.5157 83.5724 43.7433 82.4449 45.3775C81.3173 47.0117 79.0611 47.4344 77.4054 46.3208C75.7497 45.2073 75.3221 42.9797 76.4496 41.3455Z" stroke="black" stroke-opacity="0.25" stroke-width="0.09912"/>
<path d="M80.1236 42.515L78.4899 44.8827L78.337 44.7799L79.9706 42.4122L80.1236 42.515ZM78.6236 43.8284C78.5795 43.908 78.5716 43.9875 78.5996 44.0669C78.6277 44.1462 78.6902 44.2185 78.7872 44.2837C78.8531 44.3281 78.9151 44.3562 78.9732 44.3682C79.0309 44.3809 79.083 44.3793 79.1293 44.3636C79.1751 44.3474 79.212 44.3189 79.2401 44.2783C79.2647 44.2452 79.278 44.2108 79.2799 44.175C79.2812 44.1389 79.2742 44.1022 79.259 44.0649C79.2434 44.0282 79.2219 43.9907 79.1946 43.9525C79.1668 43.9149 79.1353 43.8774 79.1001 43.8402L78.9566 43.6841C78.886 43.6096 78.8266 43.5335 78.7782 43.4558C78.7299 43.3782 78.6958 43.2997 78.6758 43.2204C78.6559 43.1411 78.653 43.0616 78.6672 42.9817C78.6807 42.9014 78.7144 42.8216 78.7682 42.7423C78.8488 42.6268 78.948 42.5463 79.0658 42.501C79.1825 42.4558 79.3123 42.447 79.4553 42.4745C79.5972 42.5023 79.7459 42.5684 79.9013 42.6729C80.0555 42.7766 80.1736 42.8903 80.2556 43.0141C80.337 43.1375 80.3781 43.2666 80.3787 43.4016C80.3783 43.5367 80.3326 43.6734 80.2417 43.8118L79.851 43.549C79.8905 43.4826 79.9088 43.4173 79.9058 43.353C79.9018 43.2889 79.8799 43.2277 79.84 43.1693C79.7992 43.1111 79.7439 43.0586 79.6743 43.0118C79.606 42.9658 79.5398 42.9358 79.4758 42.9216C79.4112 42.9071 79.3528 42.908 79.3006 42.9243C79.2484 42.9406 79.2065 42.9716 79.1751 43.0172C79.1457 43.0598 79.1338 43.1041 79.1393 43.1502C79.1441 43.1959 79.1638 43.2453 79.1982 43.2982C79.2321 43.3508 79.278 43.4088 79.3362 43.4722L79.5084 43.6639C79.6426 43.811 79.7278 43.9572 79.764 44.1025C79.8002 44.2479 79.7698 44.3903 79.6726 44.5299C79.5941 44.645 79.4942 44.7245 79.3729 44.7684C79.251 44.8118 79.1187 44.8208 78.9761 44.7954C78.8335 44.7699 78.6926 44.7103 78.5534 44.6167C78.4116 44.5214 78.3045 44.4141 78.232 44.295C78.1589 44.1754 78.1224 44.0529 78.1225 43.9274C78.1226 43.802 78.1606 43.6823 78.2366 43.5682L78.6236 43.8284Z" fill="white"/>
</g>
<ellipse cx="8.89033" cy="8.84097" rx="8.89033" ry="8.84097" transform="matrix(-0.850096 0.526628 -0.536391 -0.84397 199.361 38.9175)" fill="url(#paint10_linear_1312_2096)"/>
<path d="M180.913 39.9473C178.782 36.5943 179.807 32.1696 183.204 30.065C186.602 27.9603 191.083 28.9736 193.214 32.3267C195.345 35.6797 194.32 40.1043 190.923 42.209C187.525 44.3137 183.044 43.3003 180.913 39.9473Z" stroke="black" stroke-opacity="0.25" stroke-width="0.198436"/>
<path d="M185.498 33.3941L188.587 38.2544L188.273 38.4486L185.184 33.5883L185.498 33.3941ZM186.735 37.1654C186.848 37.3091 186.989 37.3874 187.159 37.4003C187.329 37.4132 187.513 37.3581 187.712 37.2349C187.847 37.1512 187.949 37.0615 188.018 36.9659C188.088 36.8715 188.127 36.776 188.135 36.6794C188.141 36.5836 188.118 36.4939 188.065 36.4104C188.023 36.3392 187.97 36.2875 187.905 36.2554C187.839 36.224 187.765 36.2071 187.684 36.2047C187.603 36.2035 187.516 36.2123 187.423 36.2311C187.331 36.2511 187.236 36.2781 187.139 36.312L186.734 36.4464C186.539 36.5143 186.35 36.5608 186.167 36.586C185.984 36.6111 185.811 36.6099 185.648 36.5823C185.484 36.5546 185.334 36.4959 185.197 36.4062C185.059 36.3172 184.938 36.1921 184.833 36.0309C184.683 35.7921 184.614 35.5479 184.624 35.2982C184.633 35.0506 184.721 34.8084 184.887 34.5716C185.052 34.3369 185.294 34.1208 185.613 33.9234C185.929 33.7275 186.235 33.605 186.531 33.5559C186.825 33.5075 187.098 33.537 187.349 33.6442C187.6 33.7535 187.817 33.9461 188.001 34.2218L187.2 34.7182C187.108 34.5934 187.002 34.5078 186.88 34.4616C186.757 34.4173 186.626 34.4078 186.486 34.433C186.345 34.4603 186.203 34.5182 186.06 34.6066C185.92 34.6935 185.811 34.7892 185.734 34.8936C185.655 34.9989 185.61 35.1054 185.598 35.2131C185.587 35.3207 185.611 35.4214 185.67 35.5151C185.726 35.6024 185.799 35.6596 185.889 35.6867C185.977 35.7146 186.085 35.7187 186.211 35.6988C186.336 35.6798 186.48 35.6431 186.645 35.5888L187.139 35.431C187.52 35.3062 187.86 35.2693 188.159 35.3205C188.458 35.3716 188.698 35.5412 188.879 35.8293C189.03 36.064 189.098 36.3087 189.082 36.5636C189.065 36.8193 188.976 37.0661 188.814 37.3038C188.652 37.5415 188.429 37.7488 188.143 37.9257C187.853 38.1058 187.567 38.2136 187.288 38.2491C187.007 38.2855 186.75 38.2532 186.517 38.1523C186.285 38.0514 186.093 37.8863 185.942 37.6571L186.735 37.1654Z" fill="white"/>
<g clip-path="url(#clip0_1312_2096)">
<path d="M54.5547 153.447L57.3098 79.7578H61.0853L63.8404 153.447H54.5547Z" fill="#EAEEF9"/>
<path d="M60.7345 80.1194L63.4605 153.07H54.9182L57.6587 80.1194H60.7199M61.4197 79.3945H56.9444L54.1602 153.794H64.2039L61.4197 79.3945V79.3945Z" fill="#FAFAFA"/>
<path d="M59.4975 81.8294C59.4975 81.8294 60.6637 81.8729 62.5879 82.1918C63.5354 82.3513 64.7016 82.5688 65.9698 82.9022C67.2526 83.2211 68.6666 83.627 70.1681 84.1345C71.6841 84.6419 73.2731 85.2362 74.9203 85.9466C76.5821 86.6425 78.2731 87.4688 79.9495 88.4546C81.6259 89.4405 83.2585 90.6292 84.9058 91.8615C86.553 93.0938 88.2294 94.326 89.9495 95.5003C93.3898 97.8489 96.8446 100.154 100.022 102.43C103.229 104.663 106.174 106.808 108.711 108.649C113.769 112.332 117.092 114.883 117.092 114.883L116.626 115.695C116.626 115.695 112.748 114.115 107.005 111.592C104.148 110.331 100.795 108.852 97.2528 107.214C93.6813 105.619 89.9349 103.793 86.174 102.01C84.2935 101.111 82.3839 100.284 80.4888 99.487C78.5938 98.6897 76.7425 97.8779 75.0369 96.921C73.346 95.9642 71.7716 94.9204 70.343 93.8331C68.8999 92.7748 67.5733 91.702 66.378 90.6437C65.1827 89.5999 64.1185 88.5851 63.2001 87.6428C62.2818 86.715 61.5238 85.8306 60.8969 85.0913C59.6579 83.6126 59.031 82.6122 59.031 82.6122L59.4975 81.8004M59.0893 81.061L58.8707 81.438L58.4042 82.2498L58.1855 82.6267L58.4188 83.0037C58.4188 83.0037 59.0893 84.0475 60.343 85.5552C60.9698 86.2945 61.7424 87.2079 62.6899 88.1647C63.7541 89.2665 64.8036 90.2523 65.8969 91.1946C67.1506 92.2964 68.5063 93.3837 69.9057 94.413C71.4509 95.5728 73.0544 96.6311 74.6725 97.5444C76.4363 98.5157 78.3751 99.3711 80.1973 100.139C81.7571 100.792 83.8125 101.676 85.8533 102.647C86.8446 103.111 87.8358 103.59 88.8125 104.054C91.5093 105.344 94.2936 106.678 96.9466 107.852C100.197 109.36 103.273 110.708 105.985 111.911L106.699 112.23C112.384 114.724 116.291 116.318 116.334 116.333L116.918 116.579L117.238 116.028L117.705 115.217L118.025 114.666L117.515 114.274C117.515 114.274 114.133 111.679 109.119 108.026L108.434 107.533C106.043 105.808 103.331 103.851 100.416 101.807C98.0545 100.11 95.4597 98.3563 92.967 96.6601C92.0924 96.0657 91.2177 95.4713 90.3431 94.8769C88.4918 93.6157 86.6842 92.2819 85.3139 91.2526C83.7396 90.0638 82.034 88.8171 80.2993 87.8023C78.7104 86.8599 76.9757 86.0046 75.1681 85.2507C73.5646 84.5549 71.9465 83.9315 70.3576 83.4096C69.0019 82.9457 67.6171 82.5398 66.1156 82.1628C64.862 81.8294 63.7395 81.6264 62.6899 81.4525C60.7512 81.119 59.5558 81.0755 59.4975 81.0755H59.0602L59.0893 81.061Z" fill="#FAFAFA"/>
<path d="M58.9585 81.8295L59.4396 82.6414C59.4396 82.6414 58.8127 83.6272 57.5737 85.1204C56.9468 85.8597 56.2034 86.7441 55.2704 87.6719C54.3521 88.6142 53.3025 89.629 52.0926 90.6728C50.8973 91.7166 49.5707 92.7894 48.1276 93.8622C46.699 94.9495 45.1246 95.9933 43.4337 96.9501C41.7281 97.8925 39.8768 98.7043 37.9818 99.5162C36.0867 100.314 34.1625 101.154 32.282 102.039C28.5211 103.822 24.7747 105.649 21.2033 107.243C17.661 108.881 14.3082 110.346 11.451 111.621C5.70758 114.144 1.83002 115.724 1.83002 115.724L1.36354 114.912C1.36354 114.912 4.68717 112.361 9.7455 108.678C12.282 106.852 15.2266 104.706 18.4336 102.459C21.6114 100.183 25.0663 97.878 28.5065 95.5294C30.2266 94.3551 31.903 93.1229 33.5503 91.8906C35.1975 90.6583 36.8301 89.4696 38.5065 88.4837C40.1829 87.4979 41.8739 86.6716 43.5357 85.9757C45.1829 85.2654 46.7865 84.6565 48.2879 84.1636C49.7894 83.6562 51.218 83.2502 52.4862 82.9313C53.7544 82.5979 54.906 82.3949 55.8681 82.2209C57.7778 81.902 58.9585 81.8585 58.9585 81.8585M59.3667 81.1191H58.9294C58.9294 81.1191 57.6903 81.1916 55.7515 81.5106C54.7019 81.699 53.5649 81.902 52.3113 82.2354C50.7952 82.6124 49.4104 83.0183 48.0547 83.4822C46.4803 84.0041 44.8477 84.6275 43.2442 85.3233C41.4512 86.0772 39.731 86.9325 38.1275 87.8749C36.3928 88.9042 34.6873 90.1364 33.1129 91.3397C31.7572 92.3545 29.9497 93.7028 28.0983 94.964C27.1945 95.5729 26.3053 96.1963 25.4015 96.7907C22.9234 98.4724 20.3578 100.212 18.0108 101.908C14.935 104.068 12.107 106.112 9.6143 107.91L9.32276 108.113C4.30816 111.752 0.955376 114.332 0.926222 114.361L0.416016 114.753L0.736717 115.304L1.20319 116.116L1.52389 116.666L2.10698 116.42C2.10698 116.42 6.05744 114.811 11.7426 112.317L12.6901 111.897C15.3432 110.723 18.3461 109.389 21.5094 107.925C24.1333 106.75 26.9176 105.417 29.5998 104.141C30.5911 103.662 31.5823 103.198 32.5881 102.72C34.2062 101.952 35.9409 101.183 38.2587 100.212C40.387 99.3132 42.1363 98.5303 43.7835 97.617C45.4016 96.7182 47.0051 95.6599 48.5649 94.4856C49.9789 93.4418 51.32 92.3545 52.5736 91.2672C53.6524 90.3394 54.7311 89.3101 55.7807 88.2373C56.7428 87.266 57.5445 86.3382 58.113 85.6423C59.3667 84.1346 60.0081 83.1343 60.0372 83.0908L60.2705 82.7138L60.0518 82.3369L59.5708 81.5251L59.3521 81.1481L59.3667 81.1191Z" fill="#FAFAFA"/>
<path d="M58.7979 16.114H59.7454C59.7454 16.114 60.2993 20.2457 60.9699 26.4506C61.2906 29.553 61.6696 33.1628 62.0049 37.0481C62.3985 40.9188 62.6609 45.0506 62.9816 49.1823C63.1419 51.2554 63.3752 53.314 63.623 55.3581C63.8708 57.3877 64.0894 59.3883 64.104 61.331C64.1186 63.2736 63.9874 65.1438 63.7542 66.9124C63.5501 68.6811 63.2731 70.3628 62.9524 71.914C62.6463 73.4652 62.2819 74.8859 61.9174 76.1472C61.5676 77.4084 61.174 78.4957 60.8387 79.4091C60.1681 81.2212 59.6142 82.2505 59.6142 82.2505H58.6667C58.6667 82.2505 58.1273 81.2212 57.4568 79.4091C57.1215 78.5102 56.7279 77.4084 56.3926 76.1472C56.0282 74.8859 55.6783 73.4652 55.3722 71.914C55.0515 70.3628 54.7891 68.6811 54.585 66.9124C54.3664 65.1293 54.2352 63.2591 54.2643 61.331C54.2935 59.3883 54.5121 57.3877 54.7745 55.3581C55.0224 53.3285 55.2702 51.2554 55.4305 49.1968C55.7658 45.065 56.0573 40.9333 56.4509 37.0626C56.8154 33.1918 57.2089 29.5675 57.5442 26.4796C58.2294 20.2892 58.7979 16.1575 58.7979 16.1575M58.1565 15.3892L58.069 16.0125C58.069 16.0125 57.4859 20.2312 56.8008 26.3636L56.6404 27.8423C56.3489 30.5823 56.0136 33.6847 55.7075 36.9756C55.4014 39.904 55.1535 43.0644 54.9203 46.1233C54.8474 47.1237 54.76 48.124 54.6871 49.1243C54.5121 51.3134 54.2498 53.459 54.0311 55.2566C53.7395 57.5327 53.55 59.4173 53.5209 61.302C53.5063 63.1721 53.6084 65.0858 53.8562 66.9849C54.0457 68.7246 54.3226 70.4208 54.6433 72.0444C54.9057 73.4217 55.241 74.8279 55.6638 76.3356C56.0136 77.5969 56.4072 78.7132 56.7571 79.6555C57.4422 81.4967 57.9815 82.5405 58.0107 82.584L58.2148 82.9754H58.6521H59.5996H60.0369L60.241 82.584C60.2702 82.5405 60.8241 81.4967 61.5093 79.6555C61.83 78.8002 62.2527 77.6404 62.6171 76.3356C63.0545 74.8279 63.3897 73.4217 63.6667 72.0589C64.002 70.4353 64.2789 68.7246 64.483 66.9994C64.7308 65.0713 64.8475 63.1576 64.8329 61.331C64.8037 59.2579 64.5705 57.1268 64.3373 55.2711C64.0311 52.8066 63.8416 50.9074 63.7104 49.1388C63.6375 48.1385 63.5647 47.1382 63.4918 46.1523C63.2585 43.0934 63.0253 39.933 62.7338 36.9901C62.4276 33.5977 62.1069 30.3938 61.8154 27.5524L61.6988 26.3926C61.0428 20.2457 60.4888 16.0705 60.4743 16.0415L60.3868 15.4182H59.7454H58.7979H58.1565V15.3892Z" fill="#FAFAFA"/>
<path d="M59.4369 16.114H59.7431C59.7431 16.114 60.297 20.2457 60.9676 26.4506C61.2883 29.553 61.6673 33.1628 62.0026 37.0481C62.3961 40.9188 62.6585 45.0506 62.9792 49.1823C63.1396 51.2554 63.3728 53.314 63.6206 55.3581C63.8684 57.3877 64.0871 59.3883 64.1017 61.331C64.1163 63.2736 63.9851 65.1438 63.7518 66.9124C63.5477 68.6811 63.2708 70.3628 62.9501 71.914C62.644 73.4652 62.2795 74.8859 61.9151 76.1472C61.5652 77.4084 61.1716 78.4957 60.8364 79.4091C60.1658 81.2212 59.6119 82.2505 59.6119 82.2505H59.4515V16.114M58.7227 15.3892V82.9609H60.0638L60.2678 82.5695C60.2678 82.5695 60.8509 81.4822 61.5361 79.641C61.8568 78.7857 62.2795 77.6259 62.644 76.3211C63.0813 74.8134 63.4166 73.4072 63.6935 72.0445C64.0288 70.4208 64.3058 68.7101 64.5098 66.9849C64.7577 65.0568 64.8743 63.1431 64.8597 61.3165C64.8305 59.2434 64.5973 57.1123 64.3641 55.2566C64.058 52.7921 63.8684 50.893 63.7373 49.1243C63.6644 48.124 63.5915 47.1237 63.5186 46.1378C63.2854 43.0789 63.0521 39.9185 62.7606 36.9756C62.4544 33.5832 62.1337 30.3793 61.8422 27.5379L61.7256 26.3781C61.0696 20.2312 60.5157 16.056 60.5011 16.027L60.4136 15.4037H59.7722H59.4661H58.7372L58.7227 15.3892Z" fill="#FAFAFA"/>
<path d="M58.9438 81.8297L59.0313 81.9747L1.45086 115.043L1.30509 114.782C1.30509 114.782 4.62872 112.23 9.70162 108.563C12.2381 106.736 15.1973 104.605 18.4043 102.372C21.5821 100.096 25.0515 97.8057 28.4918 95.4571C30.2119 94.2828 31.9029 93.0506 33.5355 91.8328C35.1828 90.6005 36.8154 89.4118 38.4918 88.4259C40.1682 87.4401 41.8592 86.6283 43.5356 85.9324C45.1828 85.2221 46.7863 84.6277 48.2878 84.1203C49.7892 83.6129 51.2032 83.2069 52.486 82.9025C53.7543 82.5691 54.9059 82.3661 55.868 82.2066C57.7776 81.8877 58.9584 81.8442 58.9584 81.8442M59.3665 81.1048H58.9292C58.9292 81.1048 57.6901 81.1628 55.7514 81.4963C54.7018 81.6847 53.5648 81.8877 52.3111 82.2066C50.8242 82.5836 49.4248 82.9895 48.0691 83.4389C46.451 83.9753 44.833 84.5842 43.2586 85.2655C41.4802 86.0049 39.7455 86.8602 38.142 87.8026C36.4073 88.8319 34.7017 90.0641 33.1128 91.2529C31.1594 92.7026 29.5705 93.8624 28.0836 94.8627C27.2381 95.4426 26.3781 96.0225 25.5326 96.5879C23.0107 98.2986 20.3868 100.067 17.9961 101.778C15.139 103.764 12.4859 105.678 10.1389 107.359L9.29346 107.968C4.27886 111.607 0.926079 114.173 0.882347 114.202L0.386719 114.579L0.692842 115.13L0.838616 115.391L1.20305 116.029L1.84445 115.666L59.4248 82.598L60.0517 82.2356L59.6872 81.6122L59.5998 81.4673L59.3811 81.0903L59.3665 81.1048Z" fill="#FAFAFA"/>
<path d="M59.3965 153.448V79.7583H61.0875L63.8426 153.448H59.3965Z" fill="#EAEEF9"/>
<path d="M60.7368 80.1199L63.4628 153.07H59.7601V80.1199H60.7368ZM61.4365 79.395H59.0312V153.795H64.2208L61.4365 79.395V79.395Z" fill="#FAFAFA"/>
<path d="M59.279 81.8295C59.279 81.8295 60.4452 81.873 62.3694 82.192C63.3169 82.3514 64.4831 82.5544 65.7513 82.8878C67.0341 83.2068 68.4481 83.5982 69.9496 84.1056C71.4656 84.5985 73.0546 85.2074 74.7018 85.9178C76.3636 86.6136 78.0691 87.4255 79.7455 88.4113C81.4219 89.3971 83.0546 90.5859 84.7018 91.8182C86.3491 93.0504 88.04 94.2827 89.7602 95.4425C93.2004 97.7765 96.6552 100.082 99.8477 102.358C103.055 104.59 106.014 106.736 108.55 108.548C113.623 112.216 116.932 114.767 116.932 114.767L116.787 115.028L59.2061 81.96L59.2936 81.815M58.8854 81.0757L58.6667 81.4526L58.5793 81.5976L58.2148 82.221L58.8417 82.5834L116.422 115.652L117.049 116.014L117.413 115.376L117.559 115.115L117.88 114.564L117.37 114.173C117.37 114.173 113.988 111.578 108.973 107.939L108.098 107.316C105.751 105.634 103.113 103.72 100.256 101.734C97.9089 100.053 95.3433 98.3129 92.8505 96.6457C91.9613 96.0369 91.0575 95.428 90.1683 94.8191C88.3607 93.6013 86.6115 92.3111 85.1391 91.2093C83.5648 90.035 81.8593 88.7882 80.11 87.7589C78.5065 86.8166 76.7863 85.9758 74.9788 85.2219C73.4044 84.5405 71.7863 83.9316 70.1682 83.3952C68.8126 82.9313 67.4131 82.5254 65.9117 82.163C64.6726 81.844 63.5793 81.6411 62.486 81.4526C60.5472 81.1337 59.3519 81.0902 59.2936 81.0757H58.8562H58.8854Z" fill="#FAFAFA"/>
<path d="M66.5668 82.2357C66.5668 86.2804 63.2724 89.5568 59.2053 89.5568C55.1382 89.5568 51.8438 86.2804 51.8438 82.2357C51.8438 78.1909 55.1382 74.9146 59.2053 74.9146C63.2724 74.9146 66.5668 78.1909 66.5668 82.2357Z" fill="#9FBBF0"/>
<path d="M69.2806 151.345H49.1348V156.274H69.2806V151.345Z" fill="#EAEEF9"/>
<path d="M68.9154 151.707V155.911H49.4984V151.707H68.9154ZM69.6442 150.982H48.7695V156.636H69.6442V150.982Z" fill="#FAFAFA"/>
<g style="mix-blend-mode:screen" opacity="0.2">
<path d="M64.4392 82.2353C64.4392 85.1057 62.0922 87.4398 59.2059 87.4398C56.3196 87.4398 53.9727 85.1057 53.9727 82.2353C53.9727 79.3648 56.3196 77.0308 59.2059 77.0308C62.0922 77.0308 64.4392 79.3648 64.4392 82.2353V82.2353Z" fill="#EAEEF9"/>
</g>
<path d="M181.57 157.317L183.509 105.156H185.987L187.941 157.317H181.57Z" fill="#EAEEF9"/>
<path d="M185.636 105.518L187.561 156.969H181.934L183.858 105.518H185.636M186.336 104.793H183.158L181.176 157.694H188.319L186.336 104.793V104.793Z" fill="#FAFAFA"/>
<path d="M184.962 106.517C184.962 106.517 185.793 106.546 187.163 106.778C187.834 106.894 188.665 107.039 189.568 107.286C190.472 107.518 191.478 107.793 192.557 108.155C193.636 108.518 194.758 108.938 195.939 109.446C197.119 109.939 198.315 110.518 199.51 111.229C200.706 111.939 201.857 112.78 203.023 113.65C204.189 114.534 205.385 115.404 206.609 116.23C209.044 117.898 211.507 119.536 213.767 121.159C216.041 122.754 218.14 124.276 219.933 125.581C223.534 128.205 225.895 130.017 225.895 130.017L225.56 130.597C225.56 130.597 222.805 129.466 218.723 127.683C216.682 126.784 214.306 125.741 211.784 124.566C209.248 123.435 206.595 122.131 203.913 120.869C202.571 120.232 201.216 119.637 199.86 119.072C198.519 118.506 197.192 117.927 195.982 117.245C194.773 116.564 193.665 115.824 192.644 115.056C191.624 114.302 190.676 113.534 189.831 112.795C188.985 112.055 188.227 111.33 187.586 110.663C186.93 109.997 186.391 109.373 185.953 108.851C185.079 107.793 184.627 107.097 184.627 107.097L184.962 106.517M184.554 105.778L184.335 106.155L184 106.735L183.781 107.112L184.014 107.489C184.014 107.489 184.496 108.242 185.385 109.315C185.88 109.91 186.42 110.533 187.061 111.185C187.805 111.954 188.577 112.679 189.35 113.345C190.239 114.128 191.201 114.897 192.207 115.65C193.3 116.477 194.452 117.231 195.618 117.883C196.799 118.535 198.052 119.101 199.568 119.739C200.676 120.203 202.149 120.84 203.592 121.522C204.335 121.87 205.064 122.232 205.808 122.58C207.776 123.522 209.641 124.407 211.478 125.233C213.694 126.248 215.793 127.19 217.644 128.002L218.417 128.336C222.455 130.104 225.239 131.25 225.268 131.264L225.866 131.51L226.187 130.96L226.522 130.38L226.843 129.829L226.347 129.437C226.347 129.437 223.942 127.596 220.37 125.001L220.181 124.871C218.402 123.58 216.391 122.116 214.19 120.58C212.557 119.405 210.778 118.202 209.058 117.028C208.388 116.564 207.703 116.1 207.017 115.636C205.968 114.911 204.86 114.128 203.446 113.07C202.382 112.273 201.128 111.359 199.86 110.605C198.708 109.924 197.469 109.315 196.201 108.779C195.064 108.286 193.898 107.851 192.761 107.474C191.799 107.141 190.808 106.851 189.729 106.575C188.796 106.329 187.95 106.184 187.28 106.068C185.88 105.836 185.02 105.792 184.991 105.792H184.554V105.778Z" fill="#FAFAFA"/>
<path d="M184.586 106.517L184.921 107.097C184.921 107.097 184.484 107.793 183.595 108.851C183.157 109.373 182.618 110.011 181.962 110.663C181.306 111.33 180.563 112.055 179.702 112.795C178.857 113.534 177.909 114.302 176.889 115.056C175.869 115.824 174.761 116.564 173.551 117.245C172.341 117.912 171.029 118.492 169.673 119.072C168.332 119.637 166.962 120.232 165.621 120.869C162.953 122.131 160.285 123.435 157.749 124.566C155.227 125.726 152.851 126.77 150.81 127.683C146.729 129.466 143.973 130.597 143.973 130.597L143.638 130.017C143.638 130.017 146 128.205 149.6 125.581C151.393 124.276 153.507 122.754 155.781 121.159C158.041 119.536 160.504 117.898 162.939 116.23C164.163 115.404 165.358 114.52 166.525 113.65C167.691 112.766 168.857 111.925 170.052 111.229C171.248 110.533 172.458 109.939 173.638 109.446C174.804 108.938 175.942 108.503 177.02 108.155C178.084 107.793 179.09 107.503 180.009 107.286C180.912 107.054 181.729 106.909 182.414 106.778C183.77 106.546 184.615 106.517 184.615 106.517M185.023 105.778H184.586C184.586 105.778 183.697 105.836 182.297 106.068C181.612 106.184 180.767 106.343 179.834 106.59C178.755 106.865 177.764 107.155 176.802 107.489C175.665 107.865 174.498 108.315 173.361 108.808C172.079 109.344 170.839 109.953 169.702 110.634C168.536 111.316 167.428 112.128 166.116 113.113C164.732 114.143 163.609 114.969 162.56 115.679C161.904 116.129 161.248 116.564 160.606 117.013C158.857 118.202 157.049 119.434 155.387 120.623C153.201 122.145 151.218 123.58 149.207 125.045C145.635 127.64 143.259 129.466 143.23 129.481L142.734 129.872L143.055 130.423L143.39 131.003L143.711 131.554L144.309 131.308C144.309 131.308 147.122 130.162 151.16 128.379L151.933 128.046C153.784 127.219 155.898 126.291 158.113 125.262C159.994 124.421 161.991 123.464 163.93 122.537L165.985 121.551C167.37 120.898 168.784 120.275 170.009 119.768C171.32 119.217 172.691 118.608 173.959 117.912C175.125 117.26 176.277 116.506 177.385 115.665C178.376 114.94 179.338 114.157 180.242 113.36C181.014 112.693 181.787 111.968 182.545 111.185C183.201 110.518 183.755 109.881 184.192 109.359C185.125 108.242 185.577 107.518 185.592 107.489L185.825 107.126L185.606 106.749L185.271 106.169L185.052 105.792L185.023 105.778Z" fill="#FAFAFA"/>
<path d="M185.136 59.8079C185.136 59.8079 185.53 62.7508 185.996 67.158C186.23 69.3616 186.492 71.9276 186.74 74.6821C187.017 77.4366 187.206 80.3795 187.44 83.308C187.556 84.7722 187.717 86.2509 187.891 87.6861C188.066 89.1359 188.212 90.5566 188.241 91.9338C188.241 93.3111 188.154 94.6448 187.994 95.9061C187.848 97.1673 187.644 98.3561 187.425 99.4579C187.206 100.56 186.944 101.575 186.682 102.459C186.434 103.358 186.157 104.141 185.909 104.778C185.428 106.069 185.034 106.794 185.034 106.794H184.364C184.364 106.794 183.97 106.054 183.504 104.764C183.27 104.126 182.993 103.343 182.746 102.444C182.498 101.546 182.235 100.545 182.017 99.4434C181.798 98.3416 181.594 97.1528 181.463 95.8771C181.303 94.6158 181.215 93.2821 181.23 91.9048C181.244 90.5276 181.405 89.1069 181.594 87.6571C181.784 86.2074 181.944 84.7432 182.061 83.279C182.294 80.336 182.512 77.4076 182.789 74.6531C183.037 71.8986 183.329 69.3326 183.562 67.129C184.043 62.7219 184.451 59.7934 184.451 59.7934H185.122M185.763 59.0685H183.81L183.722 59.6919C183.722 59.6919 183.314 62.6929 182.833 67.0565L182.789 67.39C182.556 69.5356 182.294 71.9711 182.046 74.5951C181.827 76.6392 181.667 78.8428 181.492 80.9739L181.317 83.221C181.2 84.8012 180.996 86.3669 180.851 87.5702C180.676 88.9619 180.515 90.4551 180.486 91.8903C180.472 93.2241 180.545 94.6013 180.719 95.9641C180.851 97.1818 181.055 98.3996 181.288 99.5739C181.477 100.56 181.711 101.56 182.031 102.633C182.279 103.561 182.571 104.358 182.804 104.996C183.3 106.315 183.693 107.083 183.708 107.112L183.912 107.504H185.457L185.661 107.112C185.661 107.112 186.084 106.33 186.565 105.01C186.813 104.343 187.104 103.546 187.352 102.633C187.658 101.56 187.906 100.56 188.096 99.5739C188.343 98.3706 188.533 97.1528 188.679 95.9641C188.854 94.6158 188.941 93.2531 188.926 91.9048C188.912 90.4406 188.752 88.9619 188.577 87.5702C188.373 85.8885 188.227 84.4967 188.125 83.221C188.066 82.3946 187.993 81.5683 187.935 80.7419C187.775 78.6833 187.629 76.5522 187.425 74.5661C187.221 72.319 187.002 70.1589 186.813 68.2598L186.682 67.0275C186.215 62.6639 185.821 59.6919 185.821 59.6629L185.734 59.0396L185.763 59.0685Z" fill="#FAFAFA"/>
<path d="M185.137 59.8082C185.137 59.8082 185.531 62.7512 185.997 67.1583C186.23 69.3619 186.493 71.9279 186.74 74.6824C187.017 77.4369 187.207 80.3798 187.44 83.3083C187.557 84.7725 187.717 86.2512 187.892 87.6864C188.067 89.1362 188.213 90.5569 188.242 91.9341C188.242 93.3114 188.154 94.6451 187.994 95.9064C187.848 97.1676 187.644 98.3564 187.426 99.4582C187.207 100.56 186.945 101.575 186.682 102.459C186.434 103.358 186.157 104.141 185.91 104.779C185.429 106.069 185.035 106.794 185.035 106.794H184.918V59.8082H185.137M185.778 59.0833H184.189V107.533H185.472L185.676 107.142C185.676 107.142 186.099 106.359 186.58 105.04C186.828 104.373 187.119 103.575 187.367 102.662C187.673 101.604 187.921 100.589 188.111 99.6032C188.359 98.3999 188.548 97.1821 188.694 95.9934C188.869 94.6451 188.956 93.2824 188.942 91.9341C188.927 90.4699 188.767 88.9912 188.592 87.5995C188.388 85.9178 188.242 84.526 188.14 83.2503C188.082 82.4239 188.009 81.5976 187.95 80.7712C187.79 78.7126 187.644 76.5815 187.44 74.5954C187.236 72.3338 187.017 70.1882 186.828 68.2891L186.697 67.0568C186.23 62.6932 185.837 59.7212 185.837 59.6922L185.749 59.0688L185.778 59.0833Z" fill="#FAFAFA"/>
<path d="M184.57 106.518L184.628 106.619L143.695 130.119L143.579 129.931C143.579 129.931 145.94 128.118 149.541 125.509C151.348 124.204 153.447 122.696 155.721 121.102C157.981 119.493 160.444 117.854 162.893 116.187C164.118 115.361 165.313 114.477 166.494 113.607C167.66 112.737 168.826 111.896 170.022 111.186C171.217 110.49 172.427 109.91 173.608 109.417C174.774 108.91 175.911 108.489 176.99 108.127C178.054 107.764 179.074 107.489 179.978 107.257C180.882 107.025 181.713 106.88 182.383 106.764C183.739 106.532 184.57 106.503 184.57 106.503M184.978 105.764H184.555C184.555 105.764 183.666 105.807 182.267 106.039C181.552 106.155 180.707 106.315 179.803 106.547C178.724 106.822 177.719 107.112 176.771 107.431C175.634 107.808 174.482 108.243 173.331 108.736C172.048 109.272 170.809 109.881 169.672 110.548C168.418 111.287 167.208 112.171 166.086 113.012C164.701 114.056 163.564 114.868 162.514 115.578L160.809 116.738C158.972 117.985 157.077 119.261 155.328 120.507C153.404 121.856 151.581 123.146 149.993 124.306L149.147 124.915C145.576 127.495 143.185 129.322 143.17 129.351L142.66 129.742L142.981 130.293L143.097 130.481L143.462 131.105L144.089 130.742L185.022 107.242L185.663 106.865L185.284 106.228L185.226 106.126L185.007 105.764H184.978Z" fill="#FAFAFA"/>
<path d="M184.996 157.317V105.156H185.987L187.941 157.317H184.996Z" fill="#EAEEF9"/>
<path d="M185.635 105.518L187.559 156.969H185.358V105.518H185.635M186.334 104.793H184.629V157.694H188.317L186.334 104.793V104.793Z" fill="#FAFAFA"/>
<path d="M184.802 106.517C184.802 106.517 185.632 106.546 186.988 106.778C187.659 106.894 188.49 107.039 189.393 107.271C190.297 107.503 191.303 107.779 192.382 108.141C193.446 108.489 194.597 108.924 195.764 109.431C196.944 109.924 198.154 110.504 199.335 111.2C200.53 111.896 201.697 112.751 202.863 113.621C204.029 114.491 205.239 115.375 206.463 116.202C208.912 117.869 211.376 119.507 213.635 121.116C215.91 122.696 218.023 124.218 219.816 125.523C223.417 128.133 225.778 129.945 225.778 129.945L225.676 130.133L184.743 106.633L184.802 106.532M184.393 105.792L184.175 106.169L184.116 106.271L183.752 106.894L184.379 107.257L225.312 130.757L225.953 131.119L226.318 130.481L226.42 130.293L226.726 129.742L226.23 129.365C226.23 129.365 223.825 127.524 220.254 124.929L219.685 124.523C218.009 123.32 216.099 121.942 214.058 120.522C212.367 119.318 210.53 118.072 208.752 116.868L206.886 115.607C205.837 114.897 204.7 114.07 203.315 113.041C202.192 112.2 200.968 111.316 199.714 110.577C198.577 109.91 197.338 109.301 196.041 108.764C194.918 108.286 193.767 107.837 192.6 107.46C191.638 107.141 190.647 106.851 189.568 106.575C188.665 106.343 187.834 106.184 187.119 106.068C185.72 105.836 184.86 105.807 184.831 105.807H184.393V105.792Z" fill="#FAFAFA"/>
<path d="M189.994 106.809C189.994 109.679 187.647 112.013 184.761 112.013C181.874 112.013 179.527 109.679 179.527 106.809C179.527 103.938 181.874 101.604 184.761 101.604C187.647 101.604 189.994 103.938 189.994 106.809Z" fill="#9FBBF0"/>
<path d="M191.814 156.042H177.703V159.332H191.814V156.042Z" fill="#EAEEF9"/>
<path d="M191.435 156.404V158.97H178.053V156.404H191.435ZM192.164 155.679H177.324V159.694H192.164V155.679Z" fill="#FAFAFA"/>
<g style="mix-blend-mode:screen" opacity="0.2">
<path d="M188.464 106.808C188.464 108.852 186.802 110.505 184.747 110.505C182.691 110.505 181.029 108.852 181.029 106.808C181.029 104.764 182.691 103.111 184.747 103.111C186.802 103.111 188.464 104.764 188.464 106.808Z" fill="#EAEEF9"/>
</g>
<path d="M181.597 143.835H70.5469L78.5644 75.6689H173.579L181.597 143.835Z" fill="#EAEEF9" stroke="#FAFAFA" stroke-width="1.21124" stroke-miterlimit="10"/>
<path d="M175.562 140.138H76.582L83.7395 79.3804H168.419L175.562 140.138Z" fill="#50C8D7"/>
<path d="M75.9551 140.5L82.8501 81.9023H169.294L176.189 140.5H75.9551Z" fill="url(#paint11_linear_1312_2096)"/>
<path d="M126.745 85.188H125.4V134.327H126.745V85.188Z" fill="#FAFAFA"/>
<path d="M138.82 85.1682L137.477 85.2202L139.401 134.359L140.744 134.307L138.82 85.1682Z" fill="#FAFAFA"/>
<path d="M150.891 85.1343L149.551 85.2383L153.405 134.374L154.745 134.27L150.891 85.1343Z" fill="#FAFAFA"/>
<path d="M113.331 85.1593L111.398 134.297L112.742 134.35L114.674 85.2115L113.331 85.1593Z" fill="#FAFAFA"/>
<path d="M101.244 85.1302L97.373 134.265L98.7133 134.369L102.584 85.2346L101.244 85.1302Z" fill="#FAFAFA"/>
<path d="M163.458 94.3413H88.6758V95.6783H163.458V94.3413Z" fill="#FAFAFA"/>
<path d="M164.619 104.174H87.5273V105.511H164.619V104.174Z" fill="#FAFAFA"/>
<path d="M165.781 113.995H86.3672V115.332H165.781V113.995Z" fill="#FAFAFA"/>
<path d="M166.94 123.827H85.2168V125.164H166.94V123.827Z" fill="#FAFAFA"/>
<path d="M134.759 155.52V144.633H117.383V155.52H112.441V162.435H139.701V155.52H134.759Z" fill="#EAEEF9" stroke="#FAFAFA" stroke-width="1.21124" stroke-miterlimit="10"/>
</g>
<defs>
<filter id="filter0_f_1312_2096" x="176.773" y="72.5394" width="17.9758" height="17.7668" filterUnits="userSpaceOnUse" color-interpolation-filters="sRGB">
<feFlood flood-opacity="0" result="BackgroundImageFix"/>
<feBlend mode="normal" in="SourceGraphic" in2="BackgroundImageFix" result="shape"/>
<feGaussianBlur stdDeviation="0.371397" result="effect1_foregroundBlur_1312_2096"/>
</filter>
<filter id="filter1_f_1312_2096" x="81.6947" y="87.205" width="17.9758" height="17.7668" filterUnits="userSpaceOnUse" color-interpolation-filters="sRGB">
<feFlood flood-opacity="0" result="BackgroundImageFix"/>
<feBlend mode="normal" in="SourceGraphic" in2="BackgroundImageFix" result="shape"/>
<feGaussianBlur stdDeviation="0.371397" result="effect1_foregroundBlur_1312_2096"/>
</filter>
<filter id="filter2_f_1312_2096" x="21.5248" y="31.4706" width="17.9758" height="17.7668" filterUnits="userSpaceOnUse" color-interpolation-filters="sRGB">
<feFlood flood-opacity="0" result="BackgroundImageFix"/>
<feBlend mode="normal" in="SourceGraphic" in2="BackgroundImageFix" result="shape"/>
<feGaussianBlur stdDeviation="0.371397" result="effect1_foregroundBlur_1312_2096"/>
</filter>
<filter id="filter3_f_1312_2096" x="118.807" y="69.401" width="12.9959" height="12.8441" filterUnits="userSpaceOnUse" color-interpolation-filters="sRGB">
<feFlood flood-opacity="0" result="BackgroundImageFix"/>
<feBlend mode="normal" in="SourceGraphic" in2="BackgroundImageFix" result="shape"/>
<feGaussianBlur stdDeviation="0.26851" result="effect1_foregroundBlur_1312_2096"/>
</filter>
<filter id="filter4_f_1312_2096" x="108.214" y="41.3413" width="20.8243" height="20.5816" filterUnits="userSpaceOnUse" color-interpolation-filters="sRGB">
<feFlood flood-opacity="0" result="BackgroundImageFix"/>
<feBlend mode="normal" in="SourceGraphic" in2="BackgroundImageFix" result="shape"/>
<feGaussianBlur stdDeviation="0.430186" result="effect1_foregroundBlur_1312_2096"/>
</filter>
<filter id="filter5_f_1312_2096" x="144.725" y="100.583" width="25.3091" height="25.0234" filterUnits="userSpaceOnUse" color-interpolation-filters="sRGB">
<feFlood flood-opacity="0" result="BackgroundImageFix"/>
<feBlend mode="normal" in="SourceGraphic" in2="BackgroundImageFix" result="shape"/>
<feGaussianBlur stdDeviation="0.742794" result="effect1_foregroundBlur_1312_2096"/>
</filter>
<filter id="filter6_f_1312_2096" x="144.07" y="82.2216" width="10.3997" height="10.2864" filterUnits="userSpaceOnUse" color-interpolation-filters="sRGB">
<feFlood flood-opacity="0" result="BackgroundImageFix"/>
<feBlend mode="normal" in="SourceGraphic" in2="BackgroundImageFix" result="shape"/>
<feGaussianBlur stdDeviation="0.371397" result="effect1_foregroundBlur_1312_2096"/>
</filter>
<filter id="filter7_f_1312_2096" x="74.2474" y="38.2191" width="10.3997" height="10.2864" filterUnits="userSpaceOnUse" color-interpolation-filters="sRGB">
<feFlood flood-opacity="0" result="BackgroundImageFix"/>
<feBlend mode="normal" in="SourceGraphic" in2="BackgroundImageFix" result="shape"/>
<feGaussianBlur stdDeviation="0.371397" result="effect1_foregroundBlur_1312_2096"/>
</filter>
<linearGradient id="paint0_linear_1312_2096" x1="4.02456" y1="14.3584" x2="12.5788" y2="4.83668" gradientUnits="userSpaceOnUse">
<stop stop-color="#339DFF"/>
<stop offset="1" stop-color="#0EC1D3"/>
</linearGradient>
<linearGradient id="paint1_linear_1312_2096" x1="4.02456" y1="14.3584" x2="12.5788" y2="4.83668" gradientUnits="userSpaceOnUse">
<stop stop-color="#339DFF"/>
<stop offset="1" stop-color="#0EC1D3"/>
</linearGradient>
<linearGradient id="paint2_linear_1312_2096" x1="4.0086" y1="14.4166" x2="12.6045" y2="4.92479" gradientUnits="userSpaceOnUse">
<stop stop-color="#339DFF"/>
<stop offset="1" stop-color="#0EC1D3"/>
</linearGradient>
<linearGradient id="paint3_linear_1312_2096" x1="4.0086" y1="14.4166" x2="12.6045" y2="4.92479" gradientUnits="userSpaceOnUse">
<stop stop-color="#339DFF"/>
<stop offset="1" stop-color="#0EC1D3"/>
</linearGradient>
<linearGradient id="paint4_linear_1312_2096" x1="4.6142" y1="16.803" x2="14.6446" y2="5.86452" gradientUnits="userSpaceOnUse">
<stop stop-color="#339DFF"/>
<stop offset="1" stop-color="#0EC1D3"/>
</linearGradient>
<linearGradient id="paint5_linear_1312_2096" x1="4.96613" y1="17.8603" x2="15.6154" y2="6.10118" gradientUnits="userSpaceOnUse">
<stop stop-color="#339DFF"/>
<stop offset="1" stop-color="#0EC1D3"/>
</linearGradient>
<linearGradient id="paint6_linear_1312_2096" x1="4.96613" y1="17.8603" x2="15.6154" y2="6.10118" gradientUnits="userSpaceOnUse">
<stop stop-color="#339DFF"/>
<stop offset="1" stop-color="#0EC1D3"/>
</linearGradient>
<linearGradient id="paint7_linear_1312_2096" x1="6.56749" y1="23.4297" x2="20.5259" y2="7.89168" gradientUnits="userSpaceOnUse">
<stop stop-color="#339DFF"/>
<stop offset="1" stop-color="#0EC1D3"/>
</linearGradient>
<linearGradient id="paint8_linear_1312_2096" x1="2.6645" y1="9.58267" x2="8.37819" y2="3.27349" gradientUnits="userSpaceOnUse">
<stop stop-color="#339DFF"/>
<stop offset="1" stop-color="#0EC1D3"/>
</linearGradient>
<linearGradient id="paint9_linear_1312_2096" x1="2.16688" y1="7.79301" x2="6.81348" y2="2.66213" gradientUnits="userSpaceOnUse">
<stop stop-color="#339DFF"/>
<stop offset="1" stop-color="#0EC1D3"/>
</linearGradient>
<linearGradient id="paint10_linear_1312_2096" x1="4.33995" y1="15.5945" x2="13.6374" y2="5.31898" gradientUnits="userSpaceOnUse">
<stop stop-color="#339DFF"/>
<stop offset="1" stop-color="#0EC1D3"/>
</linearGradient>
<linearGradient id="paint11_linear_1312_2096" x1="100.42" y1="133.582" x2="126.098" y2="85.309" gradientUnits="userSpaceOnUse">
<stop stop-color="#339DFF"/>
<stop offset="1" stop-color="#0EC1D3"/>
</linearGradient>
<clipPath id="clip0_1312_2096">
<rect width="226.502" height="147.771" fill="white" transform="translate(0.355469 15.3887)"/>
</clipPath>
</defs>
</svg>
