<svg width="1512" height="1016" viewBox="0 0 1512 1016" fill="none" xmlns="http://www.w3.org/2000/svg">
<mask id="mask0_642_14352" style="mask-type:alpha" maskUnits="userSpaceOnUse" x="0" y="0" width="1512" height="997">
<path d="M13.2837 138.719L3.12968 133.53C2.8479 133.386 2.53595 133.31 2.21949 133.31H2C0.895431 133.31 0 132.415 0 131.31V1.99994C0 0.895386 0.895422 -6.10352e-05 1.99999 -6.10352e-05L1510 6.10352e-05C1511.1 6.10352e-05 1512 0.895508 1512 2.00006V994.757C1512 997.184 1508.49 997.515 1508.03 995.13L1491.02 905.588C1490.6 903.367 1487.4 903.442 1487.08 905.681L1483.55 930.588C1483.25 932.705 1480.28 932.938 1479.66 930.893L1474.66 914.585C1474.12 912.821 1471.68 912.667 1470.92 914.35L1462.31 933.466C1461.5 935.27 1458.84 934.924 1458.52 932.973L1441.75 832.334C1441.39 830.19 1438.35 830.075 1437.84 832.187L1413.78 930.276C1413.27 932.376 1410.25 932.278 1409.87 930.148L1406.04 908.529C1405.63 906.229 1402.29 906.373 1402.08 908.699L1397.31 961.937C1397.1 964.286 1393.71 964.398 1393.34 962.068L1365.6 784.902C1365.26 782.725 1362.16 782.618 1361.67 784.766L1359.55 794.076C1359.05 796.266 1355.87 796.096 1355.61 793.865L1349.2 739.394C1348.94 737.145 1345.73 736.999 1345.26 739.214L1335.34 786.159C1334.96 787.928 1332.61 788.305 1331.7 786.741C1330.71 785.037 1328.11 785.671 1328.02 787.638L1322.7 901.491C1322.59 903.879 1319.14 904.094 1318.74 901.738L1294.03 758.792C1293.73 757.048 1291.48 756.526 1290.44 757.961L1285.94 764.188C1284.87 765.661 1282.56 765.066 1282.33 763.263L1261.34 593.912C1261.08 591.807 1258.15 591.503 1257.46 593.51L1256.63 595.933C1255.94 597.946 1253 597.634 1252.75 595.521L1246.07 539.274C1245.8 537.018 1242.58 536.885 1242.12 539.111L1241.06 544.33C1240.61 546.544 1237.41 546.429 1237.12 544.187L1231.16 498.106C1230.86 495.835 1227.6 495.76 1227.2 498.015L1221.96 527.73C1221.59 529.866 1218.56 529.959 1218.05 527.851L1209.22 491.174C1208.69 488.958 1205.46 489.217 1205.29 491.491L1198.81 576.659C1198.64 578.774 1195.73 579.216 1194.95 577.244L1194.69 576.578C1193.95 574.728 1191.26 574.968 1190.87 576.918L1183.59 612.835C1183.14 615.096 1179.85 614.913 1179.64 612.615L1175.35 564.436C1175.14 562.073 1171.72 561.978 1171.38 564.326L1161.62 631.351C1161.28 633.688 1157.88 633.608 1157.65 631.258L1146.65 518.75C1146.44 516.61 1143.46 516.262 1142.76 518.296L1142.11 520.202C1141.46 522.114 1138.7 521.96 1138.27 519.987L1115.87 419.021C1115.51 417.394 1113.41 416.927 1112.39 418.248C1111.42 419.505 1109.44 419.154 1108.96 417.64L1092.91 366.744C1092.34 364.938 1089.82 364.861 1089.14 366.629L1085.71 375.578C1085.02 377.354 1082.48 377.266 1081.93 375.447L1055.05 287.687C1054.58 286.132 1052.54 285.765 1051.55 287.055L1039.67 302.542C1039.15 303.23 1038.24 303.5 1037.42 303.211L1022.8 298.033C1021.78 297.672 1020.65 298.188 1020.26 299.197L1016.14 309.845C1015.44 311.646 1012.85 311.511 1012.35 309.647L1004.47 280.618C1003.94 278.666 1001.18 278.644 1000.62 280.588L995.925 296.86C995.366 298.801 992.609 298.783 992.075 296.834L989.895 288.877C989.415 287.125 987.037 286.869 986.195 288.478L983.335 293.939C982.58 295.38 980.51 295.365 979.777 293.912L959.937 254.594C959.37 253.469 957.917 253.143 956.923 253.917L952.087 257.683C951.311 258.288 950.21 258.238 949.491 257.565L931.198 240.441C930.366 239.663 929.053 239.735 928.312 240.601L924.138 245.477C923.072 246.722 921.043 246.227 920.67 244.631L913.826 215.315C913.615 214.41 912.808 213.77 911.879 213.77H895.818C895.353 213.77 894.903 213.608 894.545 213.313L883.229 203.973C882.871 203.677 882.421 203.515 881.956 203.515H871.212C870.604 203.515 870.029 203.239 869.65 202.764L852.601 181.425C851.908 180.558 850.641 180.421 849.779 181.12L847.627 182.866C846.946 183.418 845.985 183.463 845.256 182.976L815.381 163.012C814.892 162.685 814.284 162.59 813.719 162.752L787.628 170.222C787.258 170.329 786.864 170.325 786.496 170.213L762.417 162.888C761.64 162.651 760.796 162.909 760.283 163.54L751.915 173.83C751.308 174.577 750.255 174.785 749.409 174.325L728.086 162.74C727.793 162.58 727.465 162.497 727.131 162.497H693.272C692.489 162.497 691.778 162.954 691.453 163.666L682.888 182.426C682.518 183.236 681.656 183.704 680.774 183.573L656.734 179.991C656.139 179.902 655.536 180.086 655.091 180.492L651.764 183.529C651.571 183.705 651.346 183.841 651.101 183.93L628.689 192.112C628.072 192.338 627.384 192.245 626.848 191.866L610.91 180.582C610.279 180.135 609.448 180.092 608.775 180.47L603.622 183.364C603.133 183.639 602.552 183.696 602.019 183.521L577.556 175.502C576.838 175.266 576.049 175.456 575.516 175.991L569.555 181.975C568.635 182.899 567.092 182.71 566.422 181.592L546.409 148.191C545.728 147.056 544.152 146.883 543.242 147.843L537.298 154.112C536.342 155.12 534.676 154.87 534.056 153.627L527.409 140.281C526.989 139.436 526.034 139.001 525.12 139.236L499.502 145.838C499.261 145.9 499.012 145.917 498.765 145.887L440.629 138.941C440.05 138.872 439.469 139.059 439.04 139.454L421.719 155.352C421.162 155.863 420.364 156.017 419.657 155.748L394.672 146.262C394.119 146.053 393.503 146.098 392.987 146.386L375.888 155.932C375.59 156.099 375.255 156.186 374.913 156.186H344.41C343.868 156.186 343.35 155.967 342.973 155.577L322.729 134.668C321.991 133.906 320.787 133.853 319.985 134.546L296.001 155.274C295.367 155.822 294.458 155.916 293.724 155.51L265.111 139.661C264.249 139.184 263.168 139.405 262.563 140.182L252.46 153.166C251.468 154.441 249.452 154.074 248.972 152.532L245.145 140.238C244.885 139.402 244.111 138.832 243.235 138.832H221.47C220.529 138.832 219.716 138.177 219.515 137.258L216.314 122.566C216.167 121.89 215.68 121.338 215.027 121.107L198.723 115.335C198.413 115.225 198.135 115.041 197.913 114.798L191.309 107.565C190.44 106.613 188.908 106.719 188.122 107.741C185.62 110.996 181.803 115.168 179.344 115.168C176.656 115.168 171.78 110.187 168.958 106.863C168.38 106.182 167.432 105.939 166.608 106.282L146.185 114.803C145.632 115.034 145.005 115.005 144.477 114.724L127.719 105.826C127.564 105.743 127.421 105.641 127.292 105.522L109.673 89.0835C108.801 88.2703 107.416 88.3954 106.704 89.3517L95.827 103.964C95.13 104.901 93.7826 105.044 92.9046 104.274L84.2956 96.7317C83.9309 96.4121 83.4625 96.236 82.9776 96.236H71.7062C71.1102 96.236 70.5453 95.9702 70.1653 95.511L56.9309 79.5173C56.043 78.4443 54.3577 78.5846 53.6595 79.7896L50.8136 84.7009C50.0602 86.0012 48.1955 86.0371 47.3926 84.7668L45.8444 82.3177C44.8212 80.699 42.3273 81.3054 42.1614 83.2131L38.5125 125.173C38.4227 126.207 37.5575 127 36.52 127H30.0215C29.1852 127 28.4372 127.52 28.1463 128.304L22.6173 143.21C22.1301 144.523 20.478 144.942 19.4242 144.018L13.6915 138.996C13.5675 138.887 13.4306 138.794 13.2837 138.719Z" fill="#75EFEF"/>
</mask>
<g mask="url(#mask0_642_14352)">
<path d="M0.787109 1078L0.787147 0M8.66211 1078L8.66215 0M16.5371 1078L16.5371 0M24.4121 1078L24.4121 0M32.2871 1078L32.2871 0M40.1621 1078L40.1621 0M48.0371 1078L48.0371 0M55.9121 1078L55.9121 0M63.7871 1078L63.7871 0M71.6621 1078L71.6621 0M79.5371 1078L79.5371 0M87.4121 1078L87.4121 0M95.2871 1078L95.2871 0M103.162 1078L103.162 0M111.037 1078L111.037 0M118.912 1078L118.912 0M126.787 1078L126.787 0M134.662 1078L134.662 0M142.537 1078L142.537 0M150.412 1078L150.412 0M158.287 1078L158.287 0M166.162 1078L166.162 0M174.037 1078L174.037 0M181.912 1078L181.912 0M189.787 1078L189.787 0M197.662 1078L197.662 0M205.537 1078L205.537 0M213.412 1078L213.412 0M221.287 1078L221.287 0M229.162 1078L229.162 0M237.037 1078L237.037 0M244.912 1078L244.912 0M252.787 1078L252.787 0M260.662 1078L260.662 0M268.537 1078L268.537 0M276.412 1078L276.412 0M284.287 1078L284.287 0M292.162 1078L292.162 0M300.037 1078L300.037 0M307.912 1078L307.912 0M315.787 1078L315.787 0M323.662 1078L323.662 0M331.537 1078L331.537 0M339.412 1078L339.412 0M347.287 1078L347.287 0M355.162 1078L355.162 0M363.037 1078L363.037 0M370.912 1078L370.912 0M378.787 1078L378.787 0M386.662 1078L386.662 0M394.537 1078L394.537 0M402.412 1078L402.412 0M410.287 1078L410.287 0M418.162 1078L418.162 0M426.037 1078L426.037 0M433.912 1078L433.912 0M441.787 1078L441.787 0M449.662 1078L449.662 0M457.537 1078L457.537 0M465.412 1078L465.412 0M473.287 1078L473.287 0M481.162 1078L481.162 0M489.037 1078L489.037 0M496.912 1078L496.912 0M504.787 1078L504.787 0M512.662 1078L512.662 0M520.537 1078L520.537 0M528.412 1078L528.412 0M536.287 1078L536.287 0M544.162 1078L544.162 0M552.037 1078L552.037 0M559.912 1078L559.912 0M567.787 1078L567.787 0M575.662 1078L575.662 0M583.537 1078L583.537 0M591.412 1078L591.412 0M599.287 1078L599.287 0M607.162 1078L607.162 0M615.037 1078L615.037 0M622.912 1078L622.912 0M630.787 1078L630.787 0M638.662 1078L638.662 0M646.537 1078L646.537 0M654.412 1078L654.412 0M662.287 1078L662.287 0M670.162 1078L670.162 0M678.037 1078L678.037 0M685.912 1078L685.912 0M693.787 1078L693.787 0M701.662 1078L701.662 0M709.537 1078L709.537 0M717.412 1078L717.412 0M725.287 1078L725.287 0M733.162 1078L733.162 0M741.037 1078L741.037 0M748.912 1078L748.912 0M756.787 1078L756.787 0M764.662 1078L764.662 0M772.537 1078L772.537 0M780.412 1078L780.412 0M788.287 1078L788.287 0M796.162 1078L796.162 0M804.037 1078L804.037 0M811.912 1078V0M819.787 1078V0M827.662 1078V0M835.537 1078V0M843.412 1078V0M851.287 1078V0M859.162 1078V0M867.037 1078V0M874.912 1078V0M882.787 1078V0M890.662 1078V0M898.537 1078V0M906.412 1078V0M914.287 1078V0M922.162 1078V0M930.037 1078V0M937.912 1078V0M945.787 1078V0M953.662 1078V0M961.537 1078V0M969.412 1078V0M977.287 1078V0M985.162 1078V0M993.037 1078V0M1000.91 1078V0M1008.79 1078V0M1016.66 1078V0M1024.54 1078V0M1032.41 1078V0M1040.29 1078V0M1048.16 1078V0M1056.04 1078V0M1063.91 1078V0M1071.79 1078V0M1079.66 1078V0M1087.54 1078V0M1095.41 1078V0M1103.29 1078V0M1111.16 1078V0M1119.04 1078V0M1126.91 1078V0M1134.79 1078V0M1142.66 1078V0M1150.54 1078V0M1158.41 1078V0M1166.29 1078V0M1174.16 1078V0M1182.04 1078V0M1189.91 1078V0M1197.79 1078V0M1205.66 1078V0M1213.54 1078V0M1221.41 1078V0M1229.29 1078V0M1237.16 1078V0M1245.04 1078V0M1252.91 1078V0M1260.79 1078V0M1268.66 1078V0M1276.54 1078V0M1284.41 1078V0M1292.29 1078V0M1300.16 1078V0M1308.04 1078V0M1315.91 1078V0M1323.79 1078V0M1331.66 1078V0M1339.54 1078V0M1347.41 1078V0M1355.29 1078V0M1363.16 1078V0M1371.04 1078V0M1378.91 1078V0M1386.79 1078V0M1394.66 1078V0M1402.54 1078V0M1410.41 1078V0M1418.29 1078V0M1426.16 1078V0M1434.04 1078V0M1441.91 1078V0M1449.79 1078V0M1457.66 1078V0M1465.54 1078V0M1473.41 1078V0M1481.29 1078V0M1489.16 1078V0M1497.04 1078V0M1504.91 1078V0M1512.79 1078V0" stroke="url(#paint0_linear_642_14352)" stroke-width="2"/>
</g>
<defs>
<linearGradient id="paint0_linear_642_14352" x1="1513.18" y1="912.928" x2="-118.53" y2="342.951" gradientUnits="userSpaceOnUse">
<stop offset="0.00925926" stop-color="#339DFF" stop-opacity="0.48"/>
<stop offset="1" stop-color="#1E203F"/>
</linearGradient>
</defs>
</svg>
